Nunito-400.ufo
<glyph name="exclam" format="1">
  <advance width="791"/>
  <unicode hex="0021"/>
  <outline>
    <contour>
      <point x="362" y="455" type="line"/>
      <point x="366" y="380"/>
      <point x="456" y="378"/>
      <point x="463" y="455" type="curve" smooth="yes"/>
      <point x="517" y="1393" type="line" smooth="yes"/>
      <point x="526" y="1525"/>
      <point x="300" y="1524"/>
      <point x="309" y="1393" type="curve" smooth="yes"/>
    </contour>
    <component base="period" xOffset="120" yOffset="-3"/>
  </outline>
</glyph>
<glyph name="quotedbl" format="1">
  <advance width="664"/>
  <unicode hex="0022"/>
  <outline>
    <contour>
      <point x="189" y="986" type="curve" smooth="yes"/>
      <point x="215" y="986"/>
      <point x="243" y="1004"/>
      <point x="247" y="1055" type="curve" smooth="yes"/>
      <point x="275" y="1410" type="line"/>
      <point x="277" y="1456"/>
      <point x="233" y="1480"/>
      <point x="190" y="1480" type="curve" smooth="yes"/>
      <point x="145" y="1480"/>
      <point x="100" y="1457"/>
      <point x="103" y="1405" type="curve" smooth="yes"/>
      <point x="103" y="1404"/>
      <point x="123" y="1138"/>
      <point x="131" y="1055" type="curve" smooth="yes"/>
      <point x="135" y="1003"/>
      <point x="162" y="986"/>
    </contour>
    <contour>
      <point x="467" y="986" type="curve" smooth="yes"/>
      <point x="494" y="986"/>
      <point x="522" y="1003"/>
      <point x="526" y="1055" type="curve" smooth="yes"/>
      <point x="554" y="1410" type="line"/>
      <point x="556" y="1455"/>
      <point x="512" y="1480"/>
      <point x="469" y="1480" type="curve" smooth="yes"/>
      <point x="425" y="1480"/>
      <point x="380" y="1455"/>
      <point x="382" y="1410" type="curve" smooth="yes"/>
      <point x="382" y="1409"/>
      <point x="402" y="1138"/>
      <point x="410" y="1055" type="curve" smooth="yes"/>
      <point x="414" y="1005"/>
      <point x="439" y="986"/>
    </contour>
  </outline>
</glyph>
<glyph name="numbersign" format="1">
  <advance width="1184"/>
  <unicode hex="0023"/>
  <outline>
    <contour>
      <point x="295" y="-49" type="curve" smooth="yes"/>
      <point x="326" y="-49"/>
      <point x="360" y="-28"/>
      <point x="366" y="15" type="curve" smooth="yes"/>
      <point x="432" y="456" type="line"/>
      <point x="690" y="456" type="line"/>
      <point x="677" y="361"/>
      <point x="629" y="27"/>
      <point x="629" y="25" type="curve" smooth="yes"/>
      <point x="623" y="-27"/>
      <point x="662" y="-49"/>
      <point x="698" y="-49" type="curve" smooth="yes"/>
      <point x="730" y="-49"/>
      <point x="763" y="-28"/>
      <point x="770" y="15" type="curve" smooth="yes"/>
      <point x="834" y="456" type="line"/>
      <point x="979" y="456" type="line" smooth="yes"/>
      <point x="1024" y="456"/>
      <point x="1047" y="489"/>
      <point x="1047" y="523" type="curve" smooth="yes"/>
      <point x="1047" y="557"/>
      <point x="1023" y="592"/>
      <point x="979" y="592" type="curve" smooth="yes"/>
      <point x="855" y="592" type="line"/>
      <point x="894" y="862" type="line"/>
      <point x="1036" y="862" type="line" smooth="yes"/>
      <point x="1081" y="862"/>
      <point x="1103" y="895"/>
      <point x="1103" y="930" type="curve" smooth="yes"/>
      <point x="1103" y="964"/>
      <point x="1080" y="999"/>
      <point x="1036" y="999" type="curve" smooth="yes"/>
      <point x="914" y="999" type="line"/>
      <point x="927" y="1085"/>
      <point x="972" y="1392"/>
      <point x="972" y="1393" type="curve" smooth="yes"/>
      <point x="976" y="1438"/>
      <point x="938" y="1461"/>
      <point x="902" y="1461" type="curve" smooth="yes"/>
      <point x="868" y="1461"/>
      <point x="834" y="1440"/>
      <point x="827" y="1397" type="curve" smooth="yes"/>
      <point x="769" y="999" type="line"/>
      <point x="511" y="999" type="line"/>
      <point x="523" y="1085"/>
      <point x="568" y="1392"/>
      <point x="568" y="1393" type="curve" smooth="yes"/>
      <point x="574" y="1439"/>
      <point x="534" y="1461"/>
      <point x="498" y="1461" type="curve" smooth="yes"/>
      <point x="465" y="1461"/>
      <point x="431" y="1440"/>
      <point x="424" y="1397" type="curve" smooth="yes"/>
      <point x="366" y="999" type="line"/>
      <point x="203" y="999" type="line" smooth="yes"/>
      <point x="158" y="999"/>
      <point x="135" y="965"/>
      <point x="135" y="931" type="curve" smooth="yes"/>
      <point x="135" y="896"/>
      <point x="158" y="862"/>
      <point x="203" y="862" type="curve" smooth="yes"/>
      <point x="346" y="862" type="line"/>
      <point x="307" y="592" type="line"/>
      <point x="147" y="592" type="line" smooth="yes"/>
      <point x="101" y="592"/>
      <point x="79" y="558"/>
      <point x="79" y="524" type="curve" smooth="yes"/>
      <point x="79" y="490"/>
      <point x="102" y="456"/>
      <point x="147" y="456" type="curve" smooth="yes"/>
      <point x="288" y="456" type="line"/>
      <point x="274" y="361"/>
      <point x="225" y="27"/>
      <point x="225" y="25" type="curve" smooth="yes"/>
      <point x="219" y="-27"/>
      <point x="258" y="-49"/>
    </contour>
    <contour>
      <point x="452" y="592" type="line"/>
      <point x="491" y="862" type="line"/>
      <point x="749" y="862" type="line"/>
      <point x="710" y="592" type="line"/>
    </contour>
  </outline>
</glyph>
<glyph name="dollar" format="1">
  <advance width="1250"/>
  <unicode hex="0024"/>
  <outline>
    <contour>
      <point x="576" y="0" type="line"/>
      <point x="576" y="-86"/>
      <point x="701" y="-80"/>
      <point x="701" y="0" type="curve" smooth="yes"/>
      <point x="701" y="262" type="line"/>
      <point x="576" y="262" type="line"/>
    </contour>
    <contour>
      <point x="571" y="1196" type="line"/>
      <point x="696" y="1196" type="line"/>
      <point x="696" y="1438" type="line" smooth="yes"/>
      <point x="696" y="1518"/>
      <point x="571" y="1524"/>
      <point x="571" y="1438" type="curve" smooth="yes"/>
    </contour>
    <component base="s" xOffset="119" yOffset="221"/>
  </outline>
</glyph>
<glyph name="percent" format="1">
  <advance width="2066"/>
  <unicode hex="0025"/>
  <outline>
    <contour>
      <point x="608" y="-70" type="curve" smooth="yes"/>
      <point x="630" y="-70"/>
      <point x="648" y="-57"/>
      <point x="661" y="-33" type="curve" smooth="yes"/>
      <point x="1442" y="1343" type="line" smooth="yes"/>
      <point x="1449" y="1356"/>
      <point x="1454" y="1370"/>
      <point x="1454" y="1383" type="curve" smooth="yes"/>
      <point x="1454" y="1416"/>
      <point x="1428" y="1442"/>
      <point x="1398" y="1442" type="curve" smooth="yes"/>
      <point x="1378" y="1442"/>
      <point x="1355" y="1431"/>
      <point x="1340" y="1403" type="curve" smooth="yes"/>
      <point x="557" y="20" type="line" smooth="yes"/>
      <point x="551" y="9"/>
      <point x="546" y="-4"/>
      <point x="546" y="-13" type="curve" smooth="yes"/>
      <point x="546" y="-45"/>
      <point x="576" y="-70"/>
    </contour>
    <contour>
      <point x="552" y="743" type="curve" smooth="yes"/>
      <point x="411" y="743"/>
      <point x="360" y="879"/>
      <point x="360" y="1021" type="curve" smooth="yes"/>
      <point x="360" y="1162"/>
      <point x="411" y="1298"/>
      <point x="552" y="1298" type="curve" smooth="yes"/>
      <point x="694" y="1298"/>
      <point x="745" y="1162"/>
      <point x="745" y="1021" type="curve" smooth="yes"/>
      <point x="745" y="878"/>
      <point x="694" y="743"/>
    </contour>
    <contour>
      <point x="552" y="632" type="curve" smooth="yes"/>
      <point x="765" y="632"/>
      <point x="893" y="806"/>
      <point x="893" y="1021" type="curve" smooth="yes"/>
      <point x="893" y="1213"/>
      <point x="788" y="1409"/>
      <point x="552" y="1409" type="curve" smooth="yes"/>
      <point x="339" y="1409"/>
      <point x="213" y="1234"/>
      <point x="213" y="1021" type="curve" smooth="yes"/>
      <point x="213" y="800"/>
      <point x="338" y="632"/>
    </contour>
    <contour>
      <point x="1513" y="80" type="curve" smooth="yes"/>
      <point x="1369" y="80"/>
      <point x="1321" y="217"/>
      <point x="1321" y="358" type="curve" smooth="yes"/>
      <point x="1321" y="500"/>
      <point x="1370" y="636"/>
      <point x="1513" y="636" type="curve" smooth="yes"/>
      <point x="1655" y="636"/>
      <point x="1705" y="499"/>
      <point x="1705" y="358" type="curve" smooth="yes"/>
      <point x="1705" y="215"/>
      <point x="1654" y="80"/>
    </contour>
    <contour>
      <point x="1513" y="-31" type="curve" smooth="yes"/>
      <point x="1727" y="-31"/>
      <point x="1853" y="146"/>
      <point x="1853" y="358" type="curve" smooth="yes"/>
      <point x="1853" y="550"/>
      <point x="1749" y="747"/>
      <point x="1513" y="747" type="curve" smooth="yes"/>
      <point x="1300" y="747"/>
      <point x="1173" y="571"/>
      <point x="1173" y="358" type="curve" smooth="yes"/>
      <point x="1173" y="140"/>
      <point x="1297" y="-31"/>
    </contour>
  </outline>
</glyph>
<glyph name="ampersand" format="1">
  <advance width="1521"/>
  <unicode hex="0026"/>
  <outline>
    <contour>
      <point x="652" y="-29" type="curve" smooth="yes"/>
      <point x="848" y="-29"/>
      <point x="988" y="50"/>
      <point x="1106" y="182" type="curve"/>
      <point x="1254" y="20" type="line"/>
      <point x="1273" y="-1"/>
      <point x="1293" y="-10"/>
      <point x="1314" y="-10" type="curve" smooth="yes"/>
      <point x="1361" y="-10"/>
      <point x="1411" y="38"/>
      <point x="1411" y="87" type="curve" smooth="yes"/>
      <point x="1411" y="106"/>
      <point x="1403" y="120"/>
      <point x="1386" y="140" type="curve"/>
      <point x="1230" y="307" type="line"/>
      <point x="1350" y="507"/>
      <point x="1391" y="749"/>
      <point x="1392" y="853" type="curve" smooth="yes"/>
      <point x="1393" y="903"/>
      <point x="1350" y="931"/>
      <point x="1308" y="931" type="curve" smooth="yes"/>
      <point x="1271" y="931"/>
      <point x="1234" y="911"/>
      <point x="1228" y="864" type="curve"/>
      <point x="1224" y="718"/>
      <point x="1175" y="556"/>
      <point x="1113" y="426" type="curve"/>
      <point x="719" y="844" type="line"/>
      <point x="858" y="947"/>
      <point x="987" y="1064"/>
      <point x="987" y="1236" type="curve" smooth="yes"/>
      <point x="987" y="1423"/>
      <point x="863" y="1507"/>
      <point x="654" y="1508" type="curve" smooth="yes"/>
      <point x="449" y="1508"/>
      <point x="268" y="1417"/>
      <point x="268" y="1228" type="curve" smooth="yes"/>
      <point x="268" y="1084"/>
      <point x="367" y="968"/>
      <point x="465" y="864" type="curve"/>
      <point x="277" y="763"/>
      <point x="99" y="634"/>
      <point x="99" y="405" type="curve" smooth="yes"/>
      <point x="99" y="130"/>
      <point x="323" y="-29"/>
    </contour>
    <contour>
      <point x="647" y="121" type="curve" smooth="yes"/>
      <point x="465" y="121"/>
      <point x="293" y="233"/>
      <point x="293" y="430" type="curve" smooth="yes"/>
      <point x="293" y="551"/>
      <point x="410" y="658"/>
      <point x="576" y="746" type="curve"/>
      <point x="1003" y="288" type="line"/>
      <point x="907" y="187"/>
      <point x="798" y="121"/>
    </contour>
    <contour>
      <point x="610" y="952" type="curve"/>
      <point x="540" y="1024"/>
      <point x="454" y="1131"/>
      <point x="454" y="1228" type="curve" smooth="yes"/>
      <point x="454" y="1329"/>
      <point x="541" y="1369"/>
      <point x="633" y="1369" type="curve" smooth="yes"/>
      <point x="719" y="1369"/>
      <point x="806" y="1323"/>
      <point x="806" y="1228" type="curve" smooth="yes"/>
      <point x="806" y="1111"/>
      <point x="693" y="1030"/>
    </contour>
  </outline>
</glyph>
<glyph name="quotesingle" format="1">
  <advance width="591"/>
  <unicode hex="0027"/>
  <outline>
    <contour>
      <point x="295" y="986" type="curve" smooth="yes"/>
      <point x="322" y="986"/>
      <point x="350" y="997"/>
      <point x="353" y="1043" type="curve" smooth="yes"/>
      <point x="382" y="1410" type="line"/>
      <point x="382" y="1456"/>
      <point x="340" y="1480"/>
      <point x="296" y="1480" type="curve" smooth="yes"/>
      <point x="252" y="1480"/>
      <point x="209" y="1455"/>
      <point x="209" y="1410" type="curve" smooth="yes"/>
      <point x="209" y="1409"/>
      <point x="230" y="1126"/>
      <point x="238" y="1043" type="curve" smooth="yes"/>
      <point x="241" y="997"/>
      <point x="268" y="986"/>
    </contour>
  </outline>
</glyph>
<glyph name="parenleft" format="1">
  <advance width="604"/>
  <unicode hex="0028"/>
  <outline>
    <contour>
      <point x="429" y="-225" type="curve" smooth="yes"/>
      <point x="465" y="-225"/>
      <point x="498" y="-198"/>
      <point x="498" y="-158" type="curve" smooth="yes"/>
      <point x="498" y="-145"/>
      <point x="495" y="-133"/>
      <point x="491" y="-123" type="curve" smooth="yes"/>
      <point x="398" y="132"/>
      <point x="343" y="386"/>
      <point x="343" y="630" type="curve" smooth="yes"/>
      <point x="343" y="876"/>
      <point x="399" y="1134"/>
      <point x="492" y="1390" type="curve" smooth="yes"/>
      <point x="497" y="1402"/>
      <point x="499" y="1414"/>
      <point x="499" y="1424" type="curve" smooth="yes"/>
      <point x="499" y="1465"/>
      <point x="465" y="1493"/>
      <point x="429" y="1493" type="curve" smooth="yes"/>
      <point x="400" y="1493"/>
      <point x="371" y="1472"/>
      <point x="355" y="1432" type="curve" smooth="yes"/>
      <point x="248" y="1172"/>
      <point x="154" y="903"/>
      <point x="154" y="629" type="curve" smooth="yes"/>
      <point x="154" y="355"/>
      <point x="249" y="86"/>
      <point x="359" y="-174" type="curve"/>
      <point x="375" y="-211"/>
      <point x="402" y="-225"/>
    </contour>
  </outline>
</glyph>
<glyph name="parenright" format="1">
  <advance width="604"/>
  <unicode hex="0029"/>
  <outline>
    <contour>
      <point x="176" y="-225" type="curve" smooth="yes"/>
      <point x="203" y="-225"/>
      <point x="231" y="-211"/>
      <point x="247" y="-174" type="curve"/>
      <point x="358" y="85"/>
      <point x="452" y="354"/>
      <point x="452" y="629" type="curve" smooth="yes"/>
      <point x="452" y="902"/>
      <point x="358" y="1172"/>
      <point x="251" y="1432" type="curve"/>
      <point x="233" y="1472"/>
      <point x="207" y="1492"/>
      <point x="177" y="1492" type="curve" smooth="yes"/>
      <point x="141" y="1492"/>
      <point x="106" y="1463"/>
      <point x="106" y="1424" type="curve" smooth="yes"/>
      <point x="106" y="1412"/>
      <point x="109" y="1402"/>
      <point x="114" y="1390" type="curve" smooth="yes"/>
      <point x="208" y="1133"/>
      <point x="263" y="876"/>
      <point x="263" y="631" type="curve" smooth="yes"/>
      <point x="263" y="386"/>
      <point x="209" y="131"/>
      <point x="116" y="-123" type="curve" smooth="yes"/>
      <point x="111" y="-136"/>
      <point x="108" y="-147"/>
      <point x="108" y="-158" type="curve" smooth="yes"/>
      <point x="108" y="-198"/>
      <point x="140" y="-225"/>
    </contour>
  </outline>
</glyph>
<glyph name="asterisk" format="1">
  <advance width="1087"/>
  <unicode hex="002A"/>
  <outline>
    <contour>
      <point x="430" y="778" type="curve" smooth="yes"/>
      <point x="542" y="980" type="line"/>
      <point x="655" y="778" type="line" smooth="yes"/>
      <point x="700" y="695"/>
      <point x="806" y="771"/>
      <point x="765" y="843" type="curve" smooth="yes"/>
      <point x="646" y="1036" type="line"/>
      <point x="883" y="1027" type="line" smooth="yes"/>
      <point x="971" y="1027"/>
      <point x="971" y="1153"/>
      <point x="883" y="1153" type="curve" smooth="yes"/>
      <point x="648" y="1144" type="line"/>
      <point x="769" y="1339" type="line"/>
      <point x="807" y="1407"/>
      <point x="711" y="1488"/>
      <point x="656" y="1402" type="curve" smooth="yes"/>
      <point x="542" y="1195" type="line"/>
      <point x="428" y="1404" type="line" smooth="yes"/>
      <point x="382" y="1485"/>
      <point x="274" y="1410"/>
      <point x="317" y="1338" type="curve" smooth="yes"/>
      <point x="437" y="1144" type="line"/>
      <point x="204" y="1153" type="line" smooth="yes"/>
      <point x="117" y="1153"/>
      <point x="118" y="1027"/>
      <point x="204" y="1027" type="curve" smooth="yes"/>
      <point x="440" y="1036" type="line"/>
      <point x="318" y="841" type="line" smooth="yes"/>
      <point x="276" y="773"/>
      <point x="383" y="694"/>
    </contour>
  </outline>
</glyph>
<glyph name="plus" format="1">
  <advance width="1334"/>
  <unicode hex="002B"/>
  <outline>
    <contour>
      <point x="667" y="4" type="curve" smooth="yes"/>
      <point x="709" y="4"/>
      <point x="740" y="39"/>
      <point x="740" y="79" type="curve" smooth="yes"/>
      <point x="740" y="426" type="line"/>
      <point x="1103" y="426" type="line" smooth="yes"/>
      <point x="1145" y="426"/>
      <point x="1180" y="457"/>
      <point x="1180" y="497" type="curve" smooth="yes"/>
      <point x="1180" y="541"/>
      <point x="1144" y="568"/>
      <point x="1103" y="568" type="curve" smooth="yes"/>
      <point x="740" y="568" type="line"/>
      <point x="740" y="919" type="line" smooth="yes"/>
      <point x="740" y="961"/>
      <point x="708" y="995"/>
      <point x="667" y="995" type="curve" smooth="yes"/>
      <point x="621" y="995"/>
      <point x="593" y="960"/>
      <point x="593" y="919" type="curve" smooth="yes"/>
      <point x="593" y="568" type="line"/>
      <point x="231" y="568" type="line" smooth="yes"/>
      <point x="188" y="568"/>
      <point x="154" y="540"/>
      <point x="154" y="497" type="curve" smooth="yes"/>
      <point x="154" y="456"/>
      <point x="190" y="426"/>
      <point x="231" y="426" type="curve" smooth="yes"/>
      <point x="593" y="426" type="line"/>
      <point x="593" y="79" type="line" smooth="yes"/>
      <point x="593" y="35"/>
      <point x="623" y="4"/>
    </contour>
  </outline>
</glyph>
<glyph name="comma" format="1">
  <advance width="592"/>
  <unicode hex="002C"/>
  <outline>
    <contour>
      <point x="155" y="-336" type="curve"/>
      <point x="206" y="-336" type="line"/>
      <point x="235" y="-337"/>
      <point x="251" y="-325"/>
      <point x="262" y="-293" type="curve" smooth="yes"/>
      <point x="426" y="181" type="line" smooth="yes"/>
      <point x="431" y="195"/>
      <point x="434" y="234"/>
      <point x="392" y="237" type="curve"/>
      <point x="288" y="237" type="line"/>
      <point x="256" y="236"/>
      <point x="223" y="228"/>
      <point x="215" y="181" type="curve" smooth="yes"/>
      <point x="131" y="-293" type="line" smooth="yes"/>
      <point x="129" y="-305"/>
      <point x="127" y="-335"/>
    </contour>
  </outline>
</glyph>
<glyph name="hyphen" format="1">
  <advance width="683"/>
  <unicode hex="002D"/>
  <outline>
    <contour>
      <point x="119" y="459" type="curve" smooth="yes"/>
      <point x="564" y="459" type="line" smooth="yes"/>
      <point x="611" y="459"/>
      <point x="644" y="487"/>
      <point x="644" y="527" type="curve" smooth="yes"/>
      <point x="644" y="570"/>
      <point x="612" y="598"/>
      <point x="564" y="598" type="curve" smooth="yes"/>
      <point x="119" y="598" type="line" smooth="yes"/>
      <point x="72" y="598"/>
      <point x="39" y="570"/>
      <point x="39" y="527" type="curve" smooth="yes"/>
      <point x="39" y="487"/>
      <point x="72" y="459"/>
    </contour>
  </outline>
</glyph>
<glyph name="period" format="1">
  <advance width="593"/>
  <unicode hex="002E"/>
  <outline>
    <contour>
      <point x="296" y="-2" type="curve" smooth="yes"/>
      <point x="368" y="-2"/>
      <point x="412" y="50"/>
      <point x="412" y="106" type="curve" smooth="yes"/>
      <point x="412" y="161"/>
      <point x="367" y="212"/>
      <point x="296" y="212" type="curve" smooth="yes"/>
      <point x="223" y="212"/>
      <point x="180" y="159"/>
      <point x="180" y="106" type="curve" smooth="yes"/>
      <point x="180" y="50"/>
      <point x="224" y="-2"/>
    </contour>
  </outline>
</glyph>
<glyph name="slash" format="1">
  <advance width="746"/>
  <unicode hex="002F"/>
  <outline>
    <contour>
      <point x="130" y="-168" type="curve" smooth="yes"/>
      <point x="159" y="-168"/>
      <point x="187" y="-152"/>
      <point x="200" y="-115" type="curve"/>
      <point x="684" y="1337" type="line" smooth="yes"/>
      <point x="688" y="1348"/>
      <point x="689" y="1358"/>
      <point x="689" y="1366" type="curve" smooth="yes"/>
      <point x="689" y="1409"/>
      <point x="652" y="1435"/>
      <point x="615" y="1435" type="curve" smooth="yes"/>
      <point x="584" y="1435"/>
      <point x="554" y="1419"/>
      <point x="543" y="1382" type="curve" smooth="yes"/>
      <point x="62" y="-71" type="line" smooth="yes"/>
      <point x="59" y="-82"/>
      <point x="57" y="-91"/>
      <point x="57" y="-99" type="curve" smooth="yes"/>
      <point x="57" y="-142"/>
      <point x="93" y="-168"/>
    </contour>
  </outline>
</glyph>
<glyph name="zero" format="1">
  <advance width="1184"/>
  <unicode hex="0030"/>
  <outline>
    <contour>
      <point x="591" y="137" type="curve" smooth="yes"/>
      <point x="326" y="137"/>
      <point x="295" y="465"/>
      <point x="295" y="712" type="curve" smooth="yes"/>
      <point x="295" y="974"/>
      <point x="329" y="1290"/>
      <point x="591" y="1290" type="curve" smooth="yes"/>
      <point x="856" y="1290"/>
      <point x="889" y="972"/>
      <point x="889" y="712" type="curve" smooth="yes"/>
      <point x="889" y="468"/>
      <point x="858" y="137"/>
    </contour>
    <contour>
      <point x="591" y="-22" type="curve" smooth="yes"/>
      <point x="988" y="-22"/>
      <point x="1092" y="335"/>
      <point x="1092" y="712" type="curve" smooth="yes"/>
      <point x="1092" y="1107"/>
      <point x="983" y="1448"/>
      <point x="591" y="1448" type="curve" smooth="yes"/>
      <point x="200" y="1448"/>
      <point x="91" y="1108"/>
      <point x="91" y="712" type="curve" smooth="yes"/>
      <point x="91" y="332"/>
      <point x="195" y="-22"/>
    </contour>
  </outline>
</glyph>
<glyph name="one" format="1">
  <advance width="1173"/>
  <unicode hex="0031"/>
  <outline>
    <contour>
      <point x="657" y="0" type="curve" smooth="yes"/>
      <point x="706" y="0"/>
      <point x="756" y="31"/>
      <point x="756" y="93" type="curve" smooth="yes"/>
      <point x="756" y="1332" type="line" smooth="yes"/>
      <point x="756" y="1398"/>
      <point x="710" y="1429"/>
      <point x="662" y="1429" type="curve"/>
      <point x="644" y="1428"/>
      <point x="623" y="1423"/>
      <point x="607" y="1414" type="curve" smooth="yes"/>
      <point x="265" y="1200" type="line" smooth="yes"/>
      <point x="242" y="1184"/>
      <point x="232" y="1164"/>
      <point x="232" y="1143" type="curve" smooth="yes"/>
      <point x="232" y="1105"/>
      <point x="264" y="1069"/>
      <point x="305" y="1069" type="curve" smooth="yes"/>
      <point x="317" y="1069"/>
      <point x="331" y="1073"/>
      <point x="343" y="1081" type="curve" smooth="yes"/>
      <point x="559" y="1221" type="line"/>
      <point x="559" y="93" type="line" smooth="yes"/>
      <point x="559" y="31"/>
      <point x="608" y="0"/>
    </contour>
  </outline>
</glyph>
<glyph name="two" format="1">
  <advance width="1176.68"/>
  <unicode hex="0032"/>
  <outline>
    <contour>
      <point x="265.76" y="0.0" type="curve" smooth="yes"/>
      <point x="952.88" y="0.0" type="line" smooth="yes"/>
      <point x="1005.32" y="0.0"/>
      <point x="1031.16" y="37.08"/>
      <point x="1031.16" y="74.8" type="curve" smooth="yes"/>
      <point x="1031.16" y="112.52"/>
      <point x="1004.56" y="149.12"/>
      <point x="952.88" y="149.12" type="curve" smooth="yes"/>
      <point x="351.0" y="149.12" type="line"/>
      <point x="807.48" y="597.56" type="line" smooth="yes"/>
      <point x="977.64" y="756.52"/>
      <point x="1044.08" y="886.0"/>
      <point x="1044.08" y="1037.8" type="curve" smooth="yes"/>
      <point x="1044.08" y="1257.76"/>
      <point x="861.84" y="1438.6"/>
      <point x="612.4" y="1439.68" type="curve" smooth="yes"/>
      <point x="413.76" y="1440.28"/>
      <point x="304.52" y="1382.52"/>
      <point x="196.64" y="1316.56" type="curve" smooth="yes"/>
      <point x="107.64" y="1262.88"/>
      <point x="192.92" y="1142.96"/>
      <point x="265.8" y="1181.16" type="curve" smooth="yes"/>
      <point x="344.24" y="1222.88"/>
      <point x="404.68" y="1285.28"/>
      <point x="594.76" y="1285.28" type="curve" smooth="yes"/>
      <point x="739.36" y="1285.28"/>
      <point x="860.28" y="1182.48"/>
      <point x="860.28" y="1020.52" type="curve" smooth="yes"/>
      <point x="860.28" y="923.8"/>
      <point x="810.16" y="835.56"/>
      <point x="702.08" y="725.84" type="curve" smooth="yes"/>
      <point x="181.8" y="198.72" type="line" smooth="yes"/>
      <point x="88.0" y="104.04"/>
      <point x="144.28" y="0.0"/>
    </contour>
  </outline>
</glyph>
<glyph name="three" format="1">
  <advance width="1173"/>
  <unicode hex="0033"/>
  <outline>
    <contour>
      <point x="557" y="-22" type="curve" smooth="yes"/>
      <point x="808" y="-22"/>
      <point x="1045" y="97"/>
      <point x="1045" y="377" type="curve" smooth="yes"/>
      <point x="1045" y="565"/>
      <point x="938" y="703"/>
      <point x="768" y="744" type="curve"/>
      <point x="904" y="789"/>
      <point x="1011" y="894"/>
      <point x="1011" y="1062" type="curve" smooth="yes"/>
      <point x="1011" y="1324"/>
      <point x="802" y="1448"/>
      <point x="546" y="1448" type="curve" smooth="yes"/>
      <point x="395" y="1448"/>
      <point x="235" y="1392"/>
      <point x="185" y="1363" type="curve" smooth="yes"/>
      <point x="110" y="1320"/>
      <point x="180" y="1187"/>
      <point x="251" y="1221" type="curve" smooth="yes"/>
      <point x="302" y="1245"/>
      <point x="405" y="1290"/>
      <point x="545" y="1290" type="curve" smooth="yes"/>
      <point x="685" y="1290"/>
      <point x="812" y="1212"/>
      <point x="812" y="1058" type="curve" smooth="yes"/>
      <point x="812" y="891"/>
      <point x="683" y="809"/>
      <point x="502" y="809" type="curve" smooth="yes"/>
      <point x="437" y="809" type="line" smooth="yes"/>
      <point x="390" y="809"/>
      <point x="367" y="773"/>
      <point x="367" y="735" type="curve" smooth="yes"/>
      <point x="367" y="698"/>
      <point x="390" y="664"/>
      <point x="437" y="664" type="curve" smooth="yes"/>
      <point x="510" y="664" type="line" smooth="yes"/>
      <point x="701" y="664"/>
      <point x="848" y="554"/>
      <point x="848" y="375" type="curve" smooth="yes"/>
      <point x="848" y="221"/>
      <point x="721" y="137"/>
      <point x="549" y="137" type="curve" smooth="yes"/>
      <point x="431" y="137"/>
      <point x="336" y="174"/>
      <point x="273" y="204" type="curve" smooth="yes"/>
      <point x="193" y="235"/>
      <point x="120" y="106"/>
      <point x="224" y="53" type="curve" smooth="yes"/>
      <point x="310" y="8"/>
      <point x="434" y="-22"/>
    </contour>
  </outline>
</glyph>
<glyph name="four" format="1">
  <advance width="1173"/>
  <unicode hex="0034"/>
  <outline>
    <contour>
      <point x="840" y="-1" type="curve" smooth="yes"/>
      <point x="887" y="-1"/>
      <point x="935" y="29"/>
      <point x="935" y="88" type="curve" smooth="yes"/>
      <point x="935" y="310" type="line"/>
      <point x="1082" y="310" type="line" smooth="yes"/>
      <point x="1130" y="310"/>
      <point x="1154" y="347"/>
      <point x="1154" y="383" type="curve" smooth="yes"/>
      <point x="1154" y="419"/>
      <point x="1130" y="455"/>
      <point x="1082" y="455" type="curve" smooth="yes"/>
      <point x="936" y="455" type="line"/>
      <point x="936" y="1292" type="line" smooth="yes"/>
      <point x="936" y="1388"/>
      <point x="870" y="1429"/>
      <point x="798" y="1429" type="curve" smooth="yes"/>
      <point x="734" y="1429"/>
      <point x="679" y="1401"/>
      <point x="638" y="1336" type="curve" smooth="yes"/>
      <point x="89" y="475" type="line" smooth="yes"/>
      <point x="44" y="405"/>
      <point x="87" y="310"/>
      <point x="173" y="310" type="curve" smooth="yes"/>
      <point x="744" y="310" type="line"/>
      <point x="744" y="88" type="line" smooth="yes"/>
      <point x="744" y="29"/>
      <point x="794" y="-1"/>
    </contour>
    <contour>
      <point x="262" y="455" type="line"/>
      <point x="744" y="1227" type="line"/>
      <point x="744" y="455" type="line"/>
    </contour>
  </outline>
</glyph>
<glyph name="five" format="1">
  <advance width="1173"/>
  <unicode hex="0035"/>
  <outline>
    <contour>
      <point x="606" y="-22" type="curve" smooth="yes"/>
      <point x="890" y="-22"/>
      <point x="1090" y="160"/>
      <point x="1090" y="442" type="curve" smooth="yes"/>
      <point x="1090" y="707"/>
      <point x="921" y="899"/>
      <point x="650" y="899" type="curve" smooth="yes"/>
      <point x="435" y="899"/>
      <point x="338" y="781"/>
      <point x="338" y="781" type="curve"/>
      <point x="339" y="1268" type="line"/>
      <point x="933" y="1268" type="line" smooth="yes"/>
      <point x="983" y="1268"/>
      <point x="1007" y="1303"/>
      <point x="1007" y="1342" type="curve" smooth="yes"/>
      <point x="1007" y="1380"/>
      <point x="983" y="1417"/>
      <point x="933" y="1417" type="curve" smooth="yes"/>
      <point x="276" y="1417" type="line" smooth="yes"/>
      <point x="213" y="1417"/>
      <point x="182" y="1385"/>
      <point x="182" y="1329" type="curve" smooth="yes"/>
      <point x="182" y="674" type="line" smooth="yes"/>
      <point x="182" y="617"/>
      <point x="315" y="582"/>
      <point x="341" y="614" type="curve" smooth="yes"/>
      <point x="401" y="689"/>
      <point x="518" y="745"/>
      <point x="626" y="745" type="curve" smooth="yes"/>
      <point x="792" y="745"/>
      <point x="901" y="625"/>
      <point x="901" y="447" type="curve" smooth="yes"/>
      <point x="901" y="256"/>
      <point x="802" y="137"/>
      <point x="600" y="137" type="curve" smooth="yes"/>
      <point x="463" y="137"/>
      <point x="358" y="191"/>
      <point x="281" y="258" type="curve" smooth="yes"/>
      <point x="220" y="310"/>
      <point x="120" y="193"/>
      <point x="182" y="138" type="curve" smooth="yes"/>
      <point x="300" y="34"/>
      <point x="425" y="-22"/>
    </contour>
  </outline>
</glyph>
<glyph name="six" format="1">
  <advance width="1173"/>
  <unicode hex="0036"/>
  <outline>
    <contour>
      <point x="612" y="-22" type="curve" smooth="yes"/>
      <point x="909" y="-22"/>
      <point x="1092" y="180"/>
      <point x="1092" y="450" type="curve" smooth="yes"/>
      <point x="1092" y="717"/>
      <point x="918" y="904"/>
      <point x="640" y="904" type="curve" smooth="yes"/>
      <point x="456" y="905"/>
      <point x="321" y="797"/>
      <point x="292" y="696" type="curve" smooth="yes"/>
      <point x="292" y="1033"/>
      <point x="345" y="1290"/>
      <point x="666" y="1290" type="curve" smooth="yes"/>
      <point x="740" y="1290"/>
      <point x="828" y="1271"/>
      <point x="918" y="1229" type="curve" smooth="yes"/>
      <point x="998" y="1193"/>
      <point x="1057" y="1336"/>
      <point x="979" y="1374" type="curve" smooth="yes"/>
      <point x="889" y="1418"/>
      <point x="781" y="1448"/>
      <point x="670" y="1448" type="curve" smooth="yes"/>
      <point x="163" y="1448"/>
      <point x="88" y="992"/>
      <point x="88" y="628" type="curve" smooth="yes"/>
      <point x="88" y="291"/>
      <point x="208" y="-22"/>
    </contour>
    <contour>
      <point x="601" y="133" type="curve" smooth="yes"/>
      <point x="406" y="133"/>
      <point x="307" y="279"/>
      <point x="307" y="445" type="curve" smooth="yes"/>
      <point x="307" y="636"/>
      <point x="419" y="765"/>
      <point x="623" y="764" type="curve" smooth="yes"/>
      <point x="816" y="764"/>
      <point x="900" y="620"/>
      <point x="900" y="448" type="curve" smooth="yes"/>
      <point x="900" y="262"/>
      <point x="798" y="133"/>
    </contour>
  </outline>
</glyph>
<glyph name="seven" format="1">
  <advance width="1173"/>
  <unicode hex="0037"/>
  <outline>
    <contour>
      <point x="434" y="0" type="curve" smooth="yes"/>
      <point x="469" y="0"/>
      <point x="503" y="16"/>
      <point x="520" y="55" type="curve" smooth="yes"/>
      <point x="1032" y="1243" type="line" smooth="yes"/>
      <point x="1045" y="1270"/>
      <point x="1050" y="1302"/>
      <point x="1050" y="1327" type="curve" smooth="yes"/>
      <point x="1050" y="1382"/>
      <point x="1012" y="1420"/>
      <point x="939" y="1420" type="curve" smooth="yes"/>
      <point x="173" y="1420" type="line" smooth="yes"/>
      <point x="120" y="1420"/>
      <point x="94" y="1380"/>
      <point x="94" y="1341" type="curve" smooth="yes"/>
      <point x="94" y="1302"/>
      <point x="120" y="1263"/>
      <point x="173" y="1263" type="curve" smooth="yes"/>
      <point x="835" y="1263" type="line"/>
      <point x="344" y="133" type="line" smooth="yes"/>
      <point x="337" y="118"/>
      <point x="333" y="105"/>
      <point x="333" y="92" type="curve"/>
      <point x="333" y="38"/>
      <point x="383" y="0"/>
    </contour>
  </outline>
</glyph>
<glyph name="eight" format="1">
  <advance width="1173"/>
  <unicode hex="0038"/>
  <outline>
    <contour>
      <point x="586" y="-22" type="curve" smooth="yes"/>
      <point x="863" y="-22"/>
      <point x="1079" y="119"/>
      <point x="1079" y="382" type="curve" smooth="yes"/>
      <point x="1079" y="562"/>
      <point x="986" y="688"/>
      <point x="796" y="740" type="curve"/>
      <point x="966" y="780"/>
      <point x="1056" y="901"/>
      <point x="1056" y="1067" type="curve" smooth="yes"/>
      <point x="1056" y="1320"/>
      <point x="845" y="1448"/>
      <point x="586" y="1448" type="curve" smooth="yes"/>
      <point x="329" y="1448"/>
      <point x="118" y="1320"/>
      <point x="118" y="1067" type="curve" smooth="yes"/>
      <point x="118" y="907"/>
      <point x="200" y="782"/>
      <point x="379" y="740" type="curve"/>
      <point x="193" y="701"/>
      <point x="95" y="556"/>
      <point x="95" y="382" type="curve" smooth="yes"/>
      <point x="95" y="119"/>
      <point x="310" y="-22"/>
    </contour>
    <contour>
      <point x="586" y="128" type="curve" smooth="yes"/>
      <point x="427" y="128"/>
      <point x="292" y="202"/>
      <point x="292" y="381" type="curve" smooth="yes"/>
      <point x="292" y="563"/>
      <point x="426" y="653"/>
      <point x="586" y="653" type="curve" smooth="yes"/>
      <point x="747" y="653"/>
      <point x="881" y="563"/>
      <point x="881" y="381" type="curve" smooth="yes"/>
      <point x="881" y="202"/>
      <point x="747" y="128"/>
    </contour>
    <contour>
      <point x="586" y="830" type="curve" smooth="yes"/>
      <point x="416" y="830"/>
      <point x="305" y="912"/>
      <point x="305" y="1071" type="curve" smooth="yes"/>
      <point x="305" y="1242"/>
      <point x="443" y="1305"/>
      <point x="586" y="1305" type="curve" smooth="yes"/>
      <point x="732" y="1305"/>
      <point x="868" y="1242"/>
      <point x="868" y="1071" type="curve" smooth="yes"/>
      <point x="868" y="912"/>
      <point x="759" y="830"/>
    </contour>
  </outline>
</glyph>
<glyph name="nine" format="1">
  <advance width="1173"/>
  <unicode hex="0039"/>
  <outline>
    <contour>
      <point x="505" y="-22" type="curve" smooth="yes"/>
      <point x="1012" y="-22"/>
      <point x="1087" y="434"/>
      <point x="1087" y="799" type="curve" smooth="yes"/>
      <point x="1087" y="1135"/>
      <point x="967" y="1448"/>
      <point x="564" y="1448" type="curve" smooth="yes"/>
      <point x="267" y="1448"/>
      <point x="83" y="1246"/>
      <point x="83" y="976" type="curve" smooth="yes"/>
      <point x="83" y="709"/>
      <point x="258" y="523"/>
      <point x="535" y="522" type="curve" smooth="yes"/>
      <point x="719" y="521"/>
      <point x="854" y="630"/>
      <point x="883" y="731" type="curve" smooth="yes"/>
      <point x="883" y="393"/>
      <point x="830" y="137"/>
      <point x="509" y="137" type="curve" smooth="yes"/>
      <point x="435" y="137"/>
      <point x="347" y="156"/>
      <point x="257" y="197" type="curve" smooth="yes"/>
      <point x="177" y="234"/>
      <point x="119" y="90"/>
      <point x="196" y="52" type="curve" smooth="yes"/>
      <point x="286" y="8"/>
      <point x="395" y="-22"/>
    </contour>
    <contour>
      <point x="552" y="662" type="curve" smooth="yes"/>
      <point x="359" y="663"/>
      <point x="275" y="806"/>
      <point x="275" y="979" type="curve" smooth="yes"/>
      <point x="275" y="1164"/>
      <point x="377" y="1293"/>
      <point x="574" y="1293" type="curve" smooth="yes"/>
      <point x="770" y="1293"/>
      <point x="868" y="1148"/>
      <point x="868" y="982" type="curve" smooth="yes"/>
      <point x="868" y="790"/>
      <point x="757" y="661"/>
    </contour>
  </outline>
</glyph>
<glyph name="colon" format="1">
  <advance width="591"/>
  <unicode hex="003A"/>
  <outline>
    <contour>
      <point x="296" y="-1" type="curve" smooth="yes"/>
      <point x="367" y="-1"/>
      <point x="410" y="50"/>
      <point x="410" y="104" type="curve" smooth="yes"/>
      <point x="410" y="157"/>
      <point x="367" y="208"/>
      <point x="296" y="208" type="curve" smooth="yes"/>
      <point x="223" y="208"/>
      <point x="181" y="157"/>
      <point x="181" y="104" type="curve" smooth="yes"/>
      <point x="181" y="50"/>
      <point x="223" y="-1"/>
    </contour>
    <contour>
      <point x="296" y="796" type="curve" smooth="yes"/>
      <point x="367" y="796"/>
      <point x="410" y="845"/>
      <point x="410" y="901" type="curve" smooth="yes"/>
      <point x="410" y="955"/>
      <point x="367" y="1006"/>
      <point x="296" y="1006" type="curve" smooth="yes"/>
      <point x="223" y="1006"/>
      <point x="181" y="955"/>
      <point x="181" y="901" type="curve" smooth="yes"/>
      <point x="181" y="845"/>
      <point x="223" y="796"/>
    </contour>
  </outline>
</glyph>
<glyph name="semicolon" format="1">
  <advance width="592"/>
  <unicode hex="003B"/>
  <outline>
    <contour>
      <point x="322" y="814" type="curve" smooth="yes"/>
      <point x="395" y="814"/>
      <point x="438" y="865"/>
      <point x="438" y="921" type="curve" smooth="yes"/>
      <point x="438" y="976"/>
      <point x="394" y="1025"/>
      <point x="322" y="1025" type="curve" smooth="yes"/>
      <point x="250" y="1025"/>
      <point x="208" y="975"/>
      <point x="208" y="921" type="curve" smooth="yes"/>
      <point x="208" y="864"/>
      <point x="251" y="814"/>
    </contour>
    <component base="comma" xOffset="8" yOffset="114"/>
  </outline>
</glyph>
<glyph name="less" format="1">
  <advance width="1334"/>
  <unicode hex="003C"/>
  <outline>
    <contour>
      <point x="1081" y="31" type="line"/>
      <point x="1143" y="4"/>
      <point x="1188" y="125"/>
      <point x="1131" y="150" type="curve" smooth="yes"/>
      <point x="347" y="496" type="line"/>
      <point x="1128" y="825" type="line" smooth="yes"/>
      <point x="1205" y="857"/>
      <point x="1138" y="969"/>
      <point x="1077" y="943" type="curve" smooth="yes"/>
      <point x="205" y="573" type="line" smooth="yes"/>
      <point x="126" y="539"/>
      <point x="136" y="450"/>
      <point x="201" y="421" type="curve" smooth="yes"/>
    </contour>
  </outline>
</glyph>
<glyph name="equal" format="1">
  <advance width="1334"/>
  <unicode hex="003D"/>
  <outline>
    <contour>
      <point x="227" y="227" type="curve" smooth="yes"/>
      <point x="1101" y="227" type="line" smooth="yes"/>
      <point x="1144" y="227"/>
      <point x="1179" y="256"/>
      <point x="1179" y="297" type="curve" smooth="yes"/>
      <point x="1179" y="341"/>
      <point x="1144" y="369"/>
      <point x="1104" y="369" type="curve" smooth="yes"/>
      <point x="232" y="369" type="line" smooth="yes"/>
      <point x="189" y="369"/>
      <point x="154" y="341"/>
      <point x="154" y="297" type="curve" smooth="yes"/>
      <point x="154" y="258"/>
      <point x="187" y="227"/>
    </contour>
    <contour>
      <point x="227" y="625" type="curve" smooth="yes"/>
      <point x="1101" y="625" type="line" smooth="yes"/>
      <point x="1144" y="625"/>
      <point x="1179" y="655"/>
      <point x="1179" y="696" type="curve" smooth="yes"/>
      <point x="1179" y="741"/>
      <point x="1143" y="769"/>
      <point x="1101" y="769" type="curve" smooth="yes"/>
      <point x="232" y="769" type="line" smooth="yes"/>
      <point x="189" y="769"/>
      <point x="154" y="740"/>
      <point x="154" y="696" type="curve" smooth="yes"/>
      <point x="154" y="658"/>
      <point x="187" y="625"/>
    </contour>
  </outline>
</glyph>
<glyph name="greater" format="1">
  <advance width="1334"/>
  <unicode hex="003E"/>
  <outline>
    <contour>
      <point x="231" y="31" type="curve" smooth="yes"/>
      <point x="1111" y="421" type="line" smooth="yes"/>
      <point x="1176" y="450"/>
      <point x="1186" y="539"/>
      <point x="1107" y="573" type="curve" smooth="yes"/>
      <point x="235" y="943" type="line" smooth="yes"/>
      <point x="174" y="969"/>
      <point x="107" y="857"/>
      <point x="184" y="825" type="curve" smooth="yes"/>
      <point x="965" y="496" type="line"/>
      <point x="181" y="150" type="line" smooth="yes"/>
      <point x="124" y="125"/>
      <point x="169" y="4"/>
    </contour>
  </outline>
</glyph>
<glyph name="question" format="1">
  <advance width="1036"/>
  <unicode hex="003F"/>
  <outline>
    <contour>
      <point x="335" y="446" type="line"/>
      <point x="335" y="343"/>
      <point x="506" y="342"/>
      <point x="506" y="440" type="curve" smooth="yes"/>
      <point x="505" y="544" type="line" smooth="yes"/>
      <point x="505" y="701"/>
      <point x="898" y="791"/>
      <point x="898" y="1099" type="curve" smooth="yes"/>
      <point x="898" y="1354"/>
      <point x="711" y="1456"/>
      <point x="488" y="1456" type="curve" smooth="yes"/>
      <point x="395" y="1456"/>
      <point x="295" y="1441"/>
      <point x="201" y="1417" type="curve" smooth="yes"/>
      <point x="154" y="1405"/>
      <point x="134" y="1370"/>
      <point x="134" y="1336" type="curve" smooth="yes"/>
      <point x="134" y="1296"/>
      <point x="164" y="1254"/>
      <point x="207" y="1257" type="curve" smooth="yes"/>
      <point x="256" y="1262"/>
      <point x="401" y="1292"/>
      <point x="444" y="1292" type="curve" smooth="yes"/>
      <point x="573" y="1292"/>
      <point x="699" y="1256"/>
      <point x="699" y="1083" type="curve" smooth="yes"/>
      <point x="699" y="843"/>
      <point x="341" y="776"/>
      <point x="335" y="573" type="curve" smooth="yes"/>
    </contour>
    <contour>
      <point x="424" y="-16" type="curve" smooth="yes"/>
      <point x="497" y="-16"/>
      <point x="539" y="35"/>
      <point x="539" y="90" type="curve" smooth="yes"/>
      <point x="539" y="143"/>
      <point x="497" y="194"/>
      <point x="424" y="194" type="curve" smooth="yes"/>
      <point x="352" y="194"/>
      <point x="311" y="143"/>
      <point x="311" y="90" type="curve" smooth="yes"/>
      <point x="311" y="35"/>
      <point x="352" y="-16"/>
    </contour>
  </outline>
</glyph>
<glyph name="at" format="1">
  <advance width="1638.0"/>
  <unicode hex="0040"/>
  <outline>
    <contour>
      <point x="807.48" y="-25.48" type="curve" smooth="yes"/>
      <point x="911.0" y="-25.48"/>
      <point x="1018.52" y="-8.96"/>
      <point x="1129.28" y="24.8" type="curve" smooth="yes"/>
      <point x="1154.48" y="32.04"/>
      <point x="1166.2" y="54.0"/>
      <point x="1166.2" y="75.96" type="curve" smooth="yes"/>
      <point x="1166.2" y="103.92"/>
      <point x="1147.76" y="130.6"/>
      <point x="1111.32" y="130.6" type="curve" smooth="yes"/>
      <point x="1102.32" y="130.6"/>
      <point x="1093.32" y="129.6"/>
      <point x="1085.08" y="126.6" type="curve" smooth="yes"/>
      <point x="997.04" y="99.6"/>
      <point x="909.76" y="86.32"/>
      <point x="825.0" y="86.32" type="curve" smooth="yes"/>
      <point x="486.16" y="86.32"/>
      <point x="195.12" y="300.44"/>
      <point x="195.12" y="726.32" type="curve" smooth="yes"/>
      <point x="195.12" y="1151.88"/>
      <point x="562.44" y="1394.92"/>
      <point x="894.24" y="1394.92" type="curve" smooth="yes"/>
      <point x="1167.8" y="1394.92"/>
      <point x="1415.08" y="1230.4"/>
      <point x="1415.08" y="868.08" type="curve" smooth="yes"/>
      <point x="1415.08" y="644.92"/>
      <point x="1277.4" y="423.8"/>
      <point x="1125.68" y="423.8" type="curve" smooth="yes"/>
      <point x="1084.36" y="423.8"/>
      <point x="1071.12" y="442.8"/>
      <point x="1071.12" y="474.8" type="curve" smooth="yes"/>
      <point x="1071.12" y="502.56"/>
      <point x="1080.88" y="539.56"/>
      <point x="1094.88" y="584.52" type="curve" smooth="yes"/>
      <point x="1242.72" y="1060.6" type="line"/>
      <point x="1245.48" y="1068.84"/>
      <point x="1246.48" y="1076.84"/>
      <point x="1246.48" y="1085.36" type="curve" smooth="yes"/>
      <point x="1246.48" y="1122.56"/>
      <point x="1215.76" y="1142.04"/>
      <point x="1182.8" y="1142.04" type="curve" smooth="yes"/>
      <point x="1150.6" y="1142.04"/>
      <point x="1117.56" y="1124.8"/>
      <point x="1106.84" y="1088.84" type="curve" smooth="yes"/>
      <point x="1097.84" y="1059.32" type="line"/>
      <point x="1054.64" y="1146.56"/>
      <point x="962.36" y="1190.84"/>
      <point x="866.88" y="1190.84" type="curve" smooth="yes"/>
      <point x="572.28" y="1190.84"/>
      <point x="384.88" y="889.6"/>
      <point x="384.88" y="619.56" type="curve" smooth="yes"/>
      <point x="384.88" y="447.36"/>
      <point x="493.32" y="305.2"/>
      <point x="675.24" y="305.2" type="curve" smooth="yes"/>
      <point x="772.64" y="305.2"/>
      <point x="865.04" y="346.08"/>
      <point x="928.28" y="418.76" type="curve"/>
      <point x="946.52" y="340.76"/>
      <point x="1023.68" y="305.12"/>
      <point x="1095.2" y="305.12" type="curve" smooth="yes"/>
      <point x="1305.52" y="305.12"/>
      <point x="1551.64" y="548.24"/>
      <point x="1551.64" y="872.44" type="curve" smooth="yes"/>
      <point x="1551.64" y="1309.76"/>
      <point x="1232.92" y="1511.76"/>
      <point x="891.48" y="1511.76" type="curve" smooth="yes"/>
      <point x="490.52" y="1511.76"/>
      <point x="56.08" y="1235.0"/>
      <point x="56.08" y="737.84" type="curve" smooth="yes"/>
      <point x="56.08" y="258.8"/>
      <point x="379.28" y="-25.48"/>
    </contour>
    <contour>
      <point x="709.32" y="430.52" type="curve" smooth="yes"/>
      <point x="604.08" y="430.52"/>
      <point x="549.84" y="510.2"/>
      <point x="546.8" y="616.4" type="curve" smooth="yes"/>
      <point x="540.72" y="816.08"/>
      <point x="674.68" y="1061.0"/>
      <point x="872.92" y="1061.0" type="curve" smooth="yes"/>
      <point x="997.12" y="1061.0"/>
      <point x="1058.08" y="928.28"/>
      <point x="1058.08" y="928.28" type="curve" smooth="yes"/>
      <point x="967.6" y="617.48" type="line"/>
      <point x="933.8" y="505.48"/>
      <point x="812.64" y="430.52"/>
    </contour>
  </outline>
</glyph>
<glyph name="A" format="1">
  <advance width="1426"/>
  <unicode hex="0041"/>
  <outline>
    <contour>
      <point x="712" y="1438" type="move" name="top"/>
    </contour>
    <contour>
      <point x="1266" y="19" type="move" name="ogonek"/>
    </contour>
    <contour>
      <point x="248" y="59" type="curve" smooth="yes"/>
      <point x="713" y="1251" type="line"/>
      <point x="713" y="1438" type="line"/>
      <point x="643" y="1438"/>
      <point x="591" y="1419"/>
      <point x="543" y="1299" type="curve" smooth="yes"/>
      <point x="66" y="117" type="line" smooth="yes"/>
      <point x="20" y="3"/>
      <point x="201" y="-63"/>
    </contour>
    <contour>
      <point x="1177" y="59" type="line"/>
      <point x="1225" y="-63"/>
      <point x="1405" y="3"/>
      <point x="1359" y="117" type="curve" smooth="yes"/>
      <point x="882" y="1299" type="line" smooth="yes"/>
      <point x="834" y="1419"/>
      <point x="782" y="1438"/>
      <point x="713" y="1438" type="curve"/>
      <point x="713" y="1251" type="line"/>
    </contour>
    <contour>
      <point x="278" y="365" type="line"/>
      <point x="1157" y="365" type="line"/>
      <point x="1100" y="509" type="line"/>
      <point x="329" y="509" type="line"/>
    </contour>
  </outline>
</glyph>
<glyph name="B" format="1">
  <advance width="1312"/>
  <unicode hex="0042"/>
  <outline>
    <contour>
      <point x="653" y="1438" type="move" name="top"/>
    </contour>
    <contour>
      <point x="275" y="0" type="curve" smooth="yes"/>
      <point x="740" y="0" type="line" smooth="yes"/>
      <point x="1076" y="0"/>
      <point x="1227" y="188"/>
      <point x="1227" y="383" type="curve" smooth="yes"/>
      <point x="1227" y="599"/>
      <point x="1089" y="720"/>
      <point x="878" y="743" type="curve"/>
      <point x="878" y="747" type="line"/>
      <point x="1071" y="771"/>
      <point x="1167" y="910"/>
      <point x="1167" y="1072" type="curve" smooth="yes"/>
      <point x="1167" y="1288"/>
      <point x="1023" y="1429"/>
      <point x="675" y="1429" type="curve" smooth="yes"/>
      <point x="275" y="1429" type="line" smooth="yes"/>
      <point x="221" y="1429"/>
      <point x="177" y="1387"/>
      <point x="177" y="1334" type="curve" smooth="yes"/>
      <point x="177" y="95" type="line" smooth="yes"/>
      <point x="177" y="42"/>
      <point x="221" y="0"/>
    </contour>
    <contour>
      <point x="374" y="154" type="line"/>
      <point x="374" y="659" type="line"/>
      <point x="627" y="659" type="line" smooth="yes"/>
      <point x="884" y="659"/>
      <point x="1020" y="609"/>
      <point x="1020" y="407" type="curve" smooth="yes"/>
      <point x="1020" y="203"/>
      <point x="913" y="154"/>
      <point x="699" y="154" type="curve" smooth="yes"/>
    </contour>
    <contour>
      <point x="374" y="811" type="line"/>
      <point x="374" y="1277" type="line"/>
      <point x="669" y="1277" type="line" smooth="yes"/>
      <point x="834" y="1277"/>
      <point x="975" y="1247"/>
      <point x="975" y="1061" type="curve" smooth="yes"/>
      <point x="975" y="883"/>
      <point x="872" y="811"/>
      <point x="649" y="811" type="curve" smooth="yes"/>
    </contour>
  </outline>
</glyph>
<glyph name="C" format="1">
  <advance width="1354"/>
  <unicode hex="0043"/>
  <outline>
    <contour>
      <point x="785" y="1438" type="move" name="top"/>
    </contour>
    <contour>
      <point x="770" y="7" type="move" name="bot"/>
    </contour>
    <contour>
      <point x="784" y="-22" type="curve" smooth="yes"/>
      <point x="970" y="-22"/>
      <point x="1091" y="32"/>
      <point x="1176" y="86" type="curve" smooth="yes"/>
      <point x="1282" y="155"/>
      <point x="1197" y="276"/>
      <point x="1115" y="229" type="curve" smooth="yes"/>
      <point x="1030" y="180"/>
      <point x="944" y="137"/>
      <point x="813" y="137" type="curve" smooth="yes"/>
      <point x="470" y="137"/>
      <point x="334" y="401"/>
      <point x="334" y="711" type="curve" smooth="yes"/>
      <point x="334" y="1020"/>
      <point x="473" y="1290"/>
      <point x="807" y="1290" type="curve" smooth="yes"/>
      <point x="978" y="1290"/>
      <point x="1053" y="1238"/>
      <point x="1097" y="1217" type="curve" smooth="yes"/>
      <point x="1182" y="1177"/>
      <point x="1253" y="1305"/>
      <point x="1162" y="1355" type="curve" smooth="yes"/>
      <point x="1094" y="1392"/>
      <point x="980" y="1448"/>
      <point x="801" y="1448" type="curve" smooth="yes"/>
      <point x="371" y="1448"/>
      <point x="124" y="1117"/>
      <point x="124" y="709" type="curve" smooth="yes"/>
      <point x="124" y="301"/>
      <point x="360" y="-22"/>
    </contour>
  </outline>
</glyph>
<glyph name="D" format="1">
  <advance width="1508"/>
  <unicode hex="0044"/>
  <outline>
    <contour>
      <point x="769" y="1438" type="move" name="top"/>
    </contour>
    <contour>
      <point x="276" y="3" type="curve" smooth="yes"/>
      <point x="626" y="3" type="line" smooth="yes"/>
      <point x="1106" y="3"/>
      <point x="1385" y="249"/>
      <point x="1385" y="714" type="curve" smooth="yes"/>
      <point x="1385" y="1181"/>
      <point x="1119" y="1432"/>
      <point x="618" y="1432" type="curve" smooth="yes"/>
      <point x="276" y="1432" type="line" smooth="yes"/>
      <point x="222" y="1432"/>
      <point x="177" y="1388"/>
      <point x="177" y="1335" type="curve" smooth="yes"/>
      <point x="177" y="100" type="line" smooth="yes"/>
      <point x="177" y="47"/>
      <point x="222" y="3"/>
    </contour>
    <contour>
      <point x="376" y="161" type="line"/>
      <point x="376" y="1274" type="line"/>
      <point x="601" y="1274" type="line" smooth="yes"/>
      <point x="991" y="1274"/>
      <point x="1178" y="1124"/>
      <point x="1178" y="716" type="curve" smooth="yes"/>
      <point x="1178" y="351"/>
      <point x="1041" y="161"/>
      <point x="635" y="161" type="curve" smooth="yes"/>
    </contour>
  </outline>
</glyph>
<glyph name="E" format="1">
  <advance width="1240"/>
  <unicode hex="0045"/>
  <outline>
    <contour>
      <point x="650" y="1438" type="move" name="top"/>
    </contour>
    <contour>
      <point x="819" y="9" type="move" name="ogonek"/>
    </contour>
    <contour>
      <point x="275" y="0" type="curve" smooth="yes"/>
      <point x="1039" y="0" type="line" smooth="yes"/>
      <point x="1092" y="0"/>
      <point x="1118" y="39"/>
      <point x="1118" y="79" type="curve" smooth="yes"/>
      <point x="1118" y="118"/>
      <point x="1092" y="158"/>
      <point x="1039" y="158" type="curve" smooth="yes"/>
      <point x="376" y="158" type="line"/>
      <point x="376" y="657" type="line"/>
      <point x="979" y="657" type="line" smooth="yes"/>
      <point x="1032" y="657"/>
      <point x="1059" y="695"/>
      <point x="1059" y="734" type="curve" smooth="yes"/>
      <point x="1059" y="774"/>
      <point x="1034" y="812"/>
      <point x="979" y="812" type="curve" smooth="yes"/>
      <point x="376" y="812" type="line"/>
      <point x="376" y="1271" type="line"/>
      <point x="1012" y="1271" type="line" smooth="yes"/>
      <point x="1065" y="1271"/>
      <point x="1091" y="1310"/>
      <point x="1091" y="1350" type="curve" smooth="yes"/>
      <point x="1091" y="1390"/>
      <point x="1065" y="1429"/>
      <point x="1012" y="1429" type="curve" smooth="yes"/>
      <point x="270" y="1429" type="line" smooth="yes"/>
      <point x="217" y="1429"/>
      <point x="177" y="1382"/>
      <point x="177" y="1333" type="curve" smooth="yes"/>
      <point x="177" y="96" type="line" smooth="yes"/>
      <point x="177" y="46"/>
      <point x="225" y="0"/>
    </contour>
  </outline>
</glyph>
<glyph name="F" format="1">
  <advance width="1150"/>
  <unicode hex="0046"/>
  <outline>
    <contour>
      <point x="275" y="0" type="curve" smooth="yes"/>
      <point x="325" y="0"/>
      <point x="375" y="31"/>
      <point x="375" y="95" type="curve" smooth="yes"/>
      <point x="375" y="662" type="line"/>
      <point x="946" y="662" type="line" smooth="yes"/>
      <point x="1000" y="662"/>
      <point x="1026" y="700"/>
      <point x="1026" y="741" type="curve" smooth="yes"/>
      <point x="1026" y="780"/>
      <point x="1000" y="817"/>
      <point x="946" y="817" type="curve" smooth="yes"/>
      <point x="375" y="817" type="line"/>
      <point x="375" y="1271" type="line"/>
      <point x="973" y="1271" type="line" smooth="yes"/>
      <point x="1026" y="1271"/>
      <point x="1052" y="1310"/>
      <point x="1052" y="1350" type="curve" smooth="yes"/>
      <point x="1052" y="1390"/>
      <point x="1026" y="1429"/>
      <point x="973" y="1429" type="curve" smooth="yes"/>
      <point x="271" y="1429" type="line" smooth="yes"/>
      <point x="221" y="1429"/>
      <point x="176" y="1390"/>
      <point x="176" y="1333" type="curve" smooth="yes"/>
      <point x="176" y="95" type="line" smooth="yes"/>
      <point x="176" y="32"/>
      <point x="225" y="0"/>
    </contour>
  </outline>
</glyph>
<glyph name="G" format="1">
  <advance width="1458.56"/>
  <unicode hex="0047"/>
  <outline>
    <contour>
      <point x="805.92" y="-22.0" type="curve" smooth="yes"/>
      <point x="972.76" y="-22.0"/>
      <point x="1141.64" y="12.2"/>
      <point x="1263.36" y="53.08" type="curve" smooth="yes"/>
      <point x="1306.56" y="67.04"/>
      <point x="1339.44" y="103.28"/>
      <point x="1339.44" y="161.4" type="curve" smooth="yes"/>
      <point x="1339.44" y="663.04" type="line" smooth="yes"/>
      <point x="1339.44" y="715.8"/>
      <point x="1310.76" y="751.88"/>
      <point x="1258.0" y="751.88" type="curve" smooth="yes"/>
      <point x="872.04" y="751.88" type="line" smooth="yes"/>
      <point x="824.16" y="751.88"/>
      <point x="800.72" y="708.08"/>
      <point x="800.72" y="674.2" type="curve" smooth="yes"/>
      <point x="800.72" y="641.08"/>
      <point x="824.92" y="599.28"/>
      <point x="872.04" y="599.28" type="curve" smooth="yes"/>
      <point x="1141.84" y="599.28" type="line"/>
      <point x="1141.84" y="180.44" type="line"/>
      <point x="1047.0" y="154.88"/>
      <point x="925.36" y="136.8"/>
      <point x="823.48" y="136.8" type="curve" smooth="yes"/>
      <point x="480.64" y="136.8"/>
      <point x="334.0" y="378.52"/>
      <point x="334.0" y="715.72" type="curve" smooth="yes"/>
      <point x="334.0" y="1052.56"/>
      <point x="493.2" y="1289.52"/>
      <point x="844.36" y="1289.52" type="curve" smooth="yes"/>
      <point x="966.2" y="1289.52"/>
      <point x="1083.8" y="1259.56"/>
      <point x="1196.84" y="1227.24" type="curve"/>
      <point x="1201.28" y="1225.76"/>
      <point x="1213.56" y="1224.76"/>
      <point x="1215.48" y="1224.76" type="curve" smooth="yes"/>
      <point x="1259.52" y="1224.76"/>
      <point x="1286.16" y="1268.04"/>
      <point x="1286.16" y="1307.64" type="curve" smooth="yes"/>
      <point x="1286.16" y="1334.52"/>
      <point x="1273.24" y="1361.4"/>
      <point x="1241.4" y="1375.08" type="curve" smooth="yes"/>
      <point x="1125.44" y="1423.32"/>
      <point x="985.24" y="1448.32"/>
      <point x="837.12" y="1448.32" type="curve" smooth="yes"/>
      <point x="356.84" y="1448.32"/>
      <point x="123.68" y="1105.24"/>
      <point x="123.68" y="716.08" type="curve" smooth="yes"/>
      <point x="123.68" y="227.24"/>
      <point x="411.96" y="-22.0"/>
    </contour>
    <contour>
      <point x="850.0" y="1428.88" type="move" name="top"/>
    </contour>
    <contour>
      <point x="830.84" y="0.0" type="move" name="bot"/>
    </contour>
  </outline>
</glyph>
<glyph name="H" format="1">
  <advance width="1481"/>
  <unicode hex="0048"/>
  <outline>
    <contour>
      <point x="763" y="1438" type="move" name="top"/>
    </contour>
    <contour>
      <point x="277" y="1" type="curve" smooth="yes"/>
      <point x="328" y="1"/>
      <point x="379" y="32"/>
      <point x="379" y="97" type="curve" smooth="yes"/>
      <point x="379" y="661" type="line"/>
      <point x="1102" y="661" type="line"/>
      <point x="1102" y="97" type="line" smooth="yes"/>
      <point x="1102" y="33"/>
      <point x="1152" y="1"/>
      <point x="1202" y="1" type="curve" smooth="yes"/>
      <point x="1254" y="1"/>
      <point x="1304" y="32"/>
      <point x="1304" y="97" type="curve" smooth="yes"/>
      <point x="1304" y="1332" type="line" smooth="yes"/>
      <point x="1304" y="1397"/>
      <point x="1254" y="1429"/>
      <point x="1203" y="1429" type="curve" smooth="yes"/>
      <point x="1152" y="1429"/>
      <point x="1102" y="1396"/>
      <point x="1102" y="1332" type="curve" smooth="yes"/>
      <point x="1102" y="822" type="line"/>
      <point x="379" y="822" type="line"/>
      <point x="379" y="1332" type="line" smooth="yes"/>
      <point x="379" y="1397"/>
      <point x="329" y="1429"/>
      <point x="279" y="1429" type="curve" smooth="yes"/>
      <point x="227" y="1429"/>
      <point x="177" y="1396"/>
      <point x="177" y="1332" type="curve" smooth="yes"/>
      <point x="177" y="97" type="line" smooth="yes"/>
      <point x="177" y="33"/>
      <point x="226" y="1"/>
    </contour>
  </outline>
</glyph>
<glyph name="I" format="1">
  <advance width="603"/>
  <unicode hex="0049"/>
  <outline>
    <contour>
      <point x="307" y="1438" type="move" name="top"/>
    </contour>
    <contour>
      <point x="301" y="0" type="curve" smooth="yes"/>
      <point x="352" y="0"/>
      <point x="402" y="31"/>
      <point x="402" y="95" type="curve" smooth="yes"/>
      <point x="402" y="1334" type="line" smooth="yes"/>
      <point x="402" y="1398"/>
      <point x="353" y="1429"/>
      <point x="303" y="1429" type="curve" smooth="yes"/>
      <point x="253" y="1429"/>
      <point x="203" y="1397"/>
      <point x="203" y="1334" type="curve" smooth="yes"/>
      <point x="203" y="95" type="line" smooth="yes"/>
      <point x="203" y="32"/>
      <point x="252" y="0"/>
    </contour>
  </outline>
</glyph>
<glyph name="J" format="1">
  <advance width="1016.2"/>
  <unicode hex="004A"/>
  <outline>
    <contour>
      <point x="771.96" y="1438.0" type="move" name="top"/>
    </contour>
    <contour>
      <point x="425.76" y="-24.16" type="curve" smooth="yes"/>
      <point x="658.16" y="-24.16"/>
      <point x="872.52" y="102.76"/>
      <point x="872.52" y="441.48" type="curve" smooth="yes"/>
      <point x="872.52" y="1335.08" type="line" smooth="yes"/>
      <point x="872.52" y="1398.04"/>
      <point x="823.48" y="1428.88"/>
      <point x="773.2" y="1428.88" type="curve" smooth="yes"/>
      <point x="722.68" y="1428.88"/>
      <point x="672.64" y="1398.04"/>
      <point x="672.64" y="1335.08" type="curve" smooth="yes"/>
      <point x="672.64" y="457.2" type="line" smooth="yes"/>
      <point x="672.64" y="231.16"/>
      <point x="586.16" y="141.36"/>
      <point x="423.72" y="141.36" type="curve" smooth="yes"/>
      <point x="332.52" y="141.36"/>
      <point x="258.8" y="178.48"/>
      <point x="210.8" y="210.52" type="curve" smooth="yes"/>
      <point x="187.68" y="227.16"/>
      <point x="167.84" y="233.96"/>
      <point x="150.28" y="233.96" type="curve" smooth="yes"/>
      <point x="104.44" y="233.96"/>
      <point x="76.6" y="189.68"/>
      <point x="76.6" y="145.88" type="curve" smooth="yes"/>
      <point x="76.6" y="140.88"/>
      <point x="76.6" y="136.12"/>
      <point x="77.6" y="131.88" type="curve"/>
      <point x="80.84" y="111.08"/>
      <point x="89.96" y="92.52"/>
      <point x="107.92" y="79.6" type="curve" smooth="yes"/>
      <point x="162.52" y="37.04"/>
      <point x="262.52" y="-24.16"/>
    </contour>
  </outline>
</glyph>
<glyph name="K" format="1">
  <advance width="1239"/>
  <unicode hex="004B"/>
  <outline>
    <contour>
      <point x="640" y="1438" type="move" name="top"/>
    </contour>
    <contour>
      <point x="653" y="0" type="move" name="bot"/>
    </contour>
    <contour>
      <point x="274" y="0" type="curve" smooth="yes"/>
      <point x="324" y="0"/>
      <point x="374" y="31"/>
      <point x="374" y="94" type="curve" smooth="yes"/>
      <point x="374" y="709" type="line"/>
      <point x="1014" y="41" type="line" smooth="yes"/>
      <point x="1039" y="15"/>
      <point x="1064" y="0"/>
      <point x="1091" y="0" type="curve" smooth="yes"/>
      <point x="1143" y="0"/>
      <point x="1188" y="38"/>
      <point x="1188" y="90" type="curve" smooth="yes"/>
      <point x="1188" y="109"/>
      <point x="1184" y="130"/>
      <point x="1166" y="149" type="curve" smooth="yes"/>
      <point x="578" y="747" type="line"/>
      <point x="1113" y="1292" type="line" smooth="yes"/>
      <point x="1129" y="1308"/>
      <point x="1134" y="1329"/>
      <point x="1134" y="1347" type="curve" smooth="yes"/>
      <point x="1134" y="1393"/>
      <point x="1093" y="1428"/>
      <point x="1045" y="1428" type="curve" smooth="yes"/>
      <point x="1019" y="1428"/>
      <point x="995" y="1416"/>
      <point x="971" y="1391" type="curve" smooth="yes"/>
      <point x="374" y="764" type="line"/>
      <point x="374" y="1335" type="line" smooth="yes"/>
      <point x="374" y="1397"/>
      <point x="325" y="1429"/>
      <point x="276" y="1429" type="curve" smooth="yes"/>
      <point x="227" y="1429"/>
      <point x="177" y="1398"/>
      <point x="177" y="1335" type="curve" smooth="yes"/>
      <point x="177" y="94" type="line" smooth="yes"/>
      <point x="177" y="31"/>
      <point x="226" y="0"/>
    </contour>
  </outline>
</glyph>
<glyph name="M" format="1">
  <advance width="1905.0"/>
  <unicode hex="004D"/>
  <outline>
    <contour>
      <point x="977.52" y="1438.0" type="move" name="top"/>
    </contour>
    <contour>
      <point x="950.72" y="36.6" type="curve"/>
      <point x="950.72" y="270.4" type="line"/>
      <point x="491.96" y="1286.6" type="line" smooth="yes"/>
      <point x="406.84" y="1477.12"/>
      <point x="179.08" y="1409.04"/>
      <point x="179.08" y="1269.12" type="curve" smooth="yes"/>
      <point x="179.08" y="81.04" type="line" smooth="yes"/>
      <point x="179.08" y="-13.16"/>
      <point x="362.0" y="-12.4"/>
      <point x="362.0" y="81.04" type="curve" smooth="yes"/>
      <point x="362.0" y="1176.4" type="line"/>
      <point x="832.92" y="124.24" type="line" smooth="yes"/>
      <point x="858.6" y="65.96"/>
      <point x="906.16" y="36.6"/>
    </contour>
    <contour>
      <point x="950.96" y="36.6" type="line"/>
      <point x="995.52" y="36.6"/>
      <point x="1043.08" y="65.96"/>
      <point x="1068.76" y="124.24" type="curve" smooth="yes"/>
      <point x="1539.68" y="1176.4" type="line"/>
      <point x="1539.68" y="81.04" type="line" smooth="yes"/>
      <point x="1539.68" y="-12.4"/>
      <point x="1722.6" y="-13.16"/>
      <point x="1722.6" y="81.04" type="curve" smooth="yes"/>
      <point x="1722.6" y="1269.12" type="line" smooth="yes"/>
      <point x="1722.6" y="1409.04"/>
      <point x="1494.84" y="1477.12"/>
      <point x="1409.72" y="1286.6" type="curve" smooth="yes"/>
      <point x="950.96" y="270.4" type="line"/>
    </contour>
  </outline>
</glyph>
<glyph name="N" format="1">
  <advance width="1515"/>
  <unicode hex="004E"/>
  <outline>
    <contour>
      <point x="797" y="1438" type="move" name="top"/>
    </contour>
    <contour>
      <point x="783" y="0" type="move" name="bot"/>
    </contour>
    <contour>
      <point x="268" y="0" type="curve" smooth="yes"/>
      <point x="315" y="0"/>
      <point x="362" y="30"/>
      <point x="362" y="89" type="curve" smooth="yes"/>
      <point x="362" y="1126" type="line"/>
      <point x="1093" y="66" type="line" smooth="yes"/>
      <point x="1124" y="21"/>
      <point x="1175" y="0"/>
      <point x="1217" y="0" type="curve" smooth="yes"/>
      <point x="1284" y="0"/>
      <point x="1340" y="47"/>
      <point x="1340" y="129" type="curve" smooth="yes"/>
      <point x="1340" y="1340" type="line" smooth="yes"/>
      <point x="1340" y="1399"/>
      <point x="1293" y="1429"/>
      <point x="1247" y="1429" type="curve" smooth="yes"/>
      <point x="1199" y="1429"/>
      <point x="1154" y="1399"/>
      <point x="1154" y="1340" type="curve" smooth="yes"/>
      <point x="1154" y="290" type="line"/>
      <point x="426" y="1350" type="line" smooth="yes"/>
      <point x="388" y="1405"/>
      <point x="332" y="1429"/>
      <point x="289" y="1429" type="curve" smooth="yes"/>
      <point x="226" y="1429"/>
      <point x="175" y="1382"/>
      <point x="175" y="1300" type="curve" smooth="yes"/>
      <point x="175" y="89" type="line" smooth="yes"/>
      <point x="175" y="29"/>
      <point x="221" y="0"/>
    </contour>
  </outline>
</glyph>
<glyph name="O" format="1">
  <advance width="1599"/>
  <unicode hex="004F"/>
  <outline>
    <contour>
      <point x="800" y="1438" type="move" name="top"/>
    </contour>
    <contour>
      <point x="800" y="137" type="curve" smooth="yes"/>
      <point x="504" y="137"/>
      <point x="334" y="358"/>
      <point x="334" y="713" type="curve" smooth="yes"/>
      <point x="334" y="1067"/>
      <point x="504" y="1290"/>
      <point x="800" y="1290" type="curve" smooth="yes"/>
      <point x="1096" y="1290"/>
      <point x="1265" y="1067"/>
      <point x="1265" y="713" type="curve" smooth="yes"/>
      <point x="1265" y="358"/>
      <point x="1095" y="137"/>
    </contour>
    <contour>
      <point x="800" y="-22" type="curve" smooth="yes"/>
      <point x="1220" y="-22"/>
      <point x="1475" y="265"/>
      <point x="1475" y="713" type="curve" smooth="yes"/>
      <point x="1475" y="1161"/>
      <point x="1220" y="1448"/>
      <point x="800" y="1448" type="curve" smooth="yes"/>
      <point x="379" y="1448"/>
      <point x="124" y="1161"/>
      <point x="124" y="713" type="curve" smooth="yes"/>
      <point x="124" y="265"/>
      <point x="379" y="-22"/>
    </contour>
  </outline>
</glyph>
<glyph name="P" format="1">
  <advance width="1225"/>
  <unicode hex="0050"/>
  <outline>
    <contour>
      <point x="647" y="1438" type="move" name="top"/>
    </contour>
    <contour>
      <point x="276" y="0" type="curve" smooth="yes"/>
      <point x="326" y="0"/>
      <point x="376" y="31"/>
      <point x="376" y="95" type="curve" smooth="yes"/>
      <point x="376" y="617" type="line"/>
      <point x="682" y="617" type="line" smooth="yes"/>
      <point x="985" y="617"/>
      <point x="1202" y="715"/>
      <point x="1202" y="1022" type="curve" smooth="yes"/>
      <point x="1202" y="1324"/>
      <point x="1011" y="1429"/>
      <point x="699" y="1429" type="curve" smooth="yes"/>
      <point x="278" y="1429" type="line" smooth="yes"/>
      <point x="221" y="1429"/>
      <point x="177" y="1385"/>
      <point x="177" y="1331" type="curve" smooth="yes"/>
      <point x="177" y="95" type="line" smooth="yes"/>
      <point x="177" y="31"/>
      <point x="226" y="0"/>
    </contour>
    <contour>
      <point x="376" y="769" type="line"/>
      <point x="376" y="1271" type="line"/>
      <point x="693" y="1271" type="line" smooth="yes"/>
      <point x="910" y="1271"/>
      <point x="1007" y="1207"/>
      <point x="1007" y="1022" type="curve" smooth="yes"/>
      <point x="1007" y="834"/>
      <point x="901" y="769"/>
      <point x="681" y="769" type="curve" smooth="yes"/>
    </contour>
  </outline>
</glyph>
<glyph name="Q" format="1">
  <advance width="1599"/>
  <unicode hex="0051"/>
  <outline>
    <contour>
      <point x="800" y="-25" type="curve" smooth="yes"/>
      <point x="857" y="-25"/>
      <point x="906" y="-17"/>
      <point x="974" y="-2" type="curve"/>
      <point x="980" y="-2"/>
      <point x="1426" y="-1"/>
      <point x="1449" y="0" type="curve" smooth="yes"/>
      <point x="1501" y="1"/>
      <point x="1527" y="38"/>
      <point x="1527" y="78" type="curve" smooth="yes"/>
      <point x="1527" y="116"/>
      <point x="1501" y="154"/>
      <point x="1449" y="154" type="curve" smooth="yes"/>
      <point x="1233" y="154" type="line"/>
      <point x="1380" y="296"/>
      <point x="1472" y="492"/>
      <point x="1472" y="709" type="curve" smooth="yes"/>
      <point x="1472" y="1142"/>
      <point x="1238" y="1446"/>
      <point x="800" y="1446" type="curve" smooth="yes"/>
      <point x="359" y="1446"/>
      <point x="124" y="1138"/>
      <point x="124" y="706" type="curve" smooth="yes"/>
      <point x="124" y="266"/>
      <point x="370" y="-25"/>
    </contour>
    <contour>
      <point x="800" y="130" type="curve" smooth="yes"/>
      <point x="464" y="130"/>
      <point x="333" y="421"/>
      <point x="333" y="706" type="curve" smooth="yes"/>
      <point x="333" y="1017"/>
      <point x="474" y="1288"/>
      <point x="800" y="1288" type="curve" smooth="yes"/>
      <point x="1128" y="1288"/>
      <point x="1266" y="1008"/>
      <point x="1266" y="706" type="curve" smooth="yes"/>
      <point x="1266" y="406"/>
      <point x="1126" y="130"/>
    </contour>
  </outline>
</glyph>
<glyph name="R" format="1">
  <advance width="1374"/>
  <unicode hex="0052"/>
  <outline>
    <contour>
      <point x="682" y="1438" type="move" name="top"/>
    </contour>
    <contour>
      <point x="715" y="0" type="move" name="bot"/>
    </contour>
    <contour>
      <point x="275" y="0" type="curve" smooth="yes"/>
      <point x="325" y="0"/>
      <point x="376" y="31"/>
      <point x="376" y="95" type="curve" smooth="yes"/>
      <point x="376" y="655" type="line"/>
      <point x="713" y="655" type="line" smooth="yes"/>
      <point x="922" y="655"/>
      <point x="963" y="601"/>
      <point x="989" y="370" type="curve" smooth="yes"/>
      <point x="1020" y="90" type="line" smooth="yes"/>
      <point x="1026" y="29"/>
      <point x="1080" y="0"/>
      <point x="1128" y="0" type="curve" smooth="yes"/>
      <point x="1180" y="0"/>
      <point x="1227" y="41"/>
      <point x="1219" y="103" type="curve" smooth="yes"/>
      <point x="1183" y="420" type="line" smooth="yes"/>
      <point x="1163" y="592"/>
      <point x="1085" y="705"/>
      <point x="919" y="740" type="curve"/>
      <point x="919" y="744" type="line"/>
      <point x="1125" y="783"/>
      <point x="1219" y="912"/>
      <point x="1219" y="1069" type="curve" smooth="yes"/>
      <point x="1219" y="1369"/>
      <point x="960" y="1429"/>
      <point x="710" y="1429" type="curve" smooth="yes"/>
      <point x="276" y="1429" type="line" smooth="yes"/>
      <point x="222" y="1429"/>
      <point x="177" y="1385"/>
      <point x="177" y="1332" type="curve" smooth="yes"/>
      <point x="177" y="95" type="line" smooth="yes"/>
      <point x="177" y="32"/>
      <point x="226" y="0"/>
    </contour>
    <contour>
      <point x="376" y="808" type="line"/>
      <point x="376" y="1271" type="line"/>
      <point x="697" y="1271" type="line" smooth="yes"/>
      <point x="838" y="1271"/>
      <point x="1021" y="1260"/>
      <point x="1021" y="1051" type="curve" smooth="yes"/>
      <point x="1021" y="841"/>
      <point x="847" y="808"/>
      <point x="671" y="808" type="curve" smooth="yes"/>
    </contour>
  </outline>
</glyph>
<glyph name="S" format="1">
  <advance width="1284"/>
  <unicode hex="0053"/>
  <outline>
    <contour>
      <point x="651" y="1438" type="move" name="top"/>
    </contour>
    <contour>
      <point x="641" y="7" type="move" name="bot"/>
    </contour>
    <contour>
      <point x="635" y="-22" type="curve" smooth="yes"/>
      <point x="954" y="-22"/>
      <point x="1162" y="122"/>
      <point x="1170" y="371" type="curve" smooth="yes"/>
      <point x="1178" y="608"/>
      <point x="1035" y="702"/>
      <point x="815" y="774" type="curve" smooth="yes"/>
      <point x="530" y="867" type="line" smooth="yes"/>
      <point x="398" y="909"/>
      <point x="332" y="964"/>
      <point x="332" y="1073" type="curve" smooth="yes"/>
      <point x="332" y="1215"/>
      <point x="467" y="1290"/>
      <point x="662" y="1290" type="curve" smooth="yes"/>
      <point x="823" y="1290"/>
      <point x="957" y="1219"/>
      <point x="1014" y="1181" type="curve" smooth="yes"/>
      <point x="1094" y="1128"/>
      <point x="1174" y="1239"/>
      <point x="1111" y="1295" type="curve"/>
      <point x="1031" y="1369"/>
      <point x="847" y="1448"/>
      <point x="647" y="1448" type="curve" smooth="yes"/>
      <point x="363" y="1448"/>
      <point x="140" y="1305"/>
      <point x="140" y="1067" type="curve" smooth="yes"/>
      <point x="140" y="867"/>
      <point x="258" y="773"/>
      <point x="455" y="707" type="curve" smooth="yes"/>
      <point x="740" y="611" type="line" smooth="yes"/>
      <point x="900" y="558"/>
      <point x="977" y="510"/>
      <point x="977" y="365" type="curve" smooth="yes"/>
      <point x="977" y="211"/>
      <point x="829" y="137"/>
      <point x="645" y="137" type="curve" smooth="yes"/>
      <point x="467" y="137"/>
      <point x="332" y="207"/>
      <point x="251" y="269" type="curve" smooth="yes"/>
      <point x="199" y="310"/>
      <point x="100" y="192"/>
      <point x="147" y="150" type="curve" smooth="yes"/>
      <point x="247" y="58"/>
      <point x="404" y="-22"/>
    </contour>
  </outline>
</glyph>
<glyph name="T" format="1">
  <advance width="1167.84"/>
  <unicode hex="0054"/>
  <outline>
    <contour>
      <point x="600.08" y="1438.0" type="move" name="top"/>
    </contour>
    <contour>
      <point x="586.08" y="6.84" type="move" name="bot"/>
    </contour>
    <contour>
      <point x="591.84" y="729.4" type="move" name="mid"/>
    </contour>
    <contour>
      <point x="586.32" y="-0.24" type="curve" smooth="yes"/>
      <point x="635.84" y="-0.24"/>
      <point x="685.88" y="32.36"/>
      <point x="685.88" y="95.56" type="curve" smooth="yes"/>
      <point x="685.88" y="1270.84" type="line"/>
      <point x="1059.84" y="1270.84" type="line" smooth="yes"/>
      <point x="1113.4" y="1270.84"/>
      <point x="1141.32" y="1310.12"/>
      <point x="1141.32" y="1349.72" type="curve" smooth="yes"/>
      <point x="1141.32" y="1389.84"/>
      <point x="1114.68" y="1428.88"/>
      <point x="1059.84" y="1428.88" type="curve" smooth="yes"/>
      <point x="107.48" y="1428.88" type="line" smooth="yes"/>
      <point x="53.92" y="1428.88"/>
      <point x="26.52" y="1389.84"/>
      <point x="26.52" y="1349.48" type="curve" smooth="yes"/>
      <point x="26.52" y="1309.88"/>
      <point x="53.68" y="1270.84"/>
      <point x="107.48" y="1270.84" type="curve" smooth="yes"/>
      <point x="486.76" y="1270.84" type="line"/>
      <point x="486.76" y="95.56" type="line" smooth="yes"/>
      <point x="486.76" y="32.36"/>
      <point x="536.04" y="-0.24"/>
    </contour>
  </outline>
</glyph>
<glyph name="U" format="1">
  <advance width="1496"/>
  <unicode hex="0055"/>
  <outline>
    <contour>
      <point x="761" y="1438" type="move" name="top"/>
    </contour>
    <contour>
      <point x="868" y="9" type="move" name="ogonek"/>
    </contour>
    <contour>
      <point x="748" y="-22" type="curve" smooth="yes"/>
      <point x="1044" y="-22"/>
      <point x="1313" y="146"/>
      <point x="1313" y="497" type="curve" smooth="yes"/>
      <point x="1313" y="1335" type="line" smooth="yes"/>
      <point x="1313" y="1399"/>
      <point x="1264" y="1431"/>
      <point x="1214" y="1431" type="curve" smooth="yes"/>
      <point x="1163" y="1431"/>
      <point x="1113" y="1398"/>
      <point x="1113" y="1335" type="curve" smooth="yes"/>
      <point x="1113" y="502" type="line" smooth="yes"/>
      <point x="1113" y="252"/>
      <point x="930" y="137"/>
      <point x="748" y="137" type="curve" smooth="yes"/>
      <point x="566" y="137"/>
      <point x="383" y="252"/>
      <point x="383" y="502" type="curve" smooth="yes"/>
      <point x="383" y="1335" type="line" smooth="yes"/>
      <point x="383" y="1399"/>
      <point x="334" y="1431"/>
      <point x="284" y="1431" type="curve" smooth="yes"/>
      <point x="233" y="1431"/>
      <point x="184" y="1398"/>
      <point x="184" y="1335" type="curve" smooth="yes"/>
      <point x="184" y="497" type="line" smooth="yes"/>
      <point x="184" y="146"/>
      <point x="451" y="-22"/>
    </contour>
  </outline>
</glyph>
<glyph name="V" format="1">
  <advance width="1307.24"/>
  <unicode hex="0056"/>
  <outline>
    <contour>
      <point x="659.64" y="-7.64" type="curve"/>
      <point x="659.64" y="209.28" type="line"/>
      <point x="241.12" y="1368.32" type="line" smooth="yes"/>
      <point x="199.45" y="1485.5712"/>
      <point x="16.64" y="1422.68"/>
      <point x="57.24" y="1312.24" type="curve" smooth="yes"/>
      <point x="493.2" y="130.44" type="line" smooth="yes"/>
      <point x="529.0" y="32.12"/>
      <point x="585.6" y="-7.64"/>
    </contour>
    <contour>
      <point x="659.64" y="-7.64" type="line"/>
      <point x="733.68" y="-7.64"/>
      <point x="790.28" y="32.12"/>
      <point x="826.08" y="130.44" type="curve" smooth="yes"/>
      <point x="1262.04" y="1312.24" type="line" smooth="yes"/>
      <point x="1302.64" y="1422.68"/>
      <point x="1119.8" y="1485.6"/>
      <point x="1078.16" y="1368.32" type="curve" smooth="yes"/>
      <point x="659.64" y="209.28" type="line"/>
    </contour>
  </outline>
</glyph>
<glyph name="W" format="1">
  <advance width="2113"/>
  <unicode hex="0057"/>
  <outline>
    <contour>
      <point x="1051" y="1438" type="move" name="top"/>
    </contour>
    <contour>
      <point x="394" y="120" type="line"/>
      <point x="417" y="37"/>
      <point x="665" y="42"/>
      <point x="690" y="119" type="curve" smooth="yes"/>
      <point x="1053" y="1203" type="line"/>
      <point x="1053" y="1429" type="line"/>
      <point x="992" y="1429"/>
      <point x="938" y="1379"/>
      <point x="914" y="1305" type="curve" smooth="yes"/>
      <point x="552" y="204" type="line"/>
      <point x="251" y="1363" type="line" smooth="yes"/>
      <point x="222" y="1477"/>
      <point x="32" y="1442"/>
      <point x="67" y="1312" type="curve" smooth="yes"/>
    </contour>
    <contour>
      <point x="1711" y="120" type="curve" smooth="yes"/>
      <point x="2038" y="1312" type="line" smooth="yes"/>
      <point x="2073" y="1442"/>
      <point x="1883" y="1477"/>
      <point x="1854" y="1363" type="curve" smooth="yes"/>
      <point x="1553" y="204" type="line"/>
      <point x="1191" y="1305" type="line" smooth="yes"/>
      <point x="1167" y="1379"/>
      <point x="1113" y="1429"/>
      <point x="1053" y="1429" type="curve"/>
      <point x="1053" y="1203" type="line"/>
      <point x="1415" y="119" type="line" smooth="yes"/>
      <point x="1440" y="42"/>
      <point x="1688" y="37"/>
    </contour>
  </outline>
</glyph>
<glyph name="Y" format="1">
  <advance width="1284"/>
  <unicode hex="0059"/>
  <outline>
    <contour>
      <point x="665" y="1438" type="move" name="top"/>
    </contour>
    <contour>
      <point x="543" y="96" type="line"/>
      <point x="543" y="-31"/>
      <point x="742" y="-31"/>
      <point x="742" y="96" type="curve" smooth="yes"/>
      <point x="742" y="603" type="line"/>
      <point x="1197" y="1304" type="line" smooth="yes"/>
      <point x="1259" y="1400"/>
      <point x="1116" y="1484"/>
      <point x="1052" y="1382" type="curve" smooth="yes"/>
      <point x="653" y="753" type="line"/>
      <point x="257" y="1379" type="line" smooth="yes"/>
      <point x="189" y="1487"/>
      <point x="25" y="1390"/>
      <point x="90" y="1291" type="curve" smooth="yes"/>
      <point x="543" y="597" type="line"/>
    </contour>
  </outline>
</glyph>
<glyph name="bracketleft" format="1">
  <advance width="630.92"/>
  <unicode hex="005B"/>
  <outline>
    <contour>
      <point x="261.72" y="-205.04" type="curve" smooth="yes"/>
      <point x="454.56" y="-205.04" type="line"/>
      <point x="499.4" y="-204.32"/>
      <point x="522.84" y="-170.16"/>
      <point x="522.84" y="-136.28" type="curve" smooth="yes"/>
      <point x="522.84" y="-102.4"/>
      <point x="500.68" y="-69.76"/>
      <point x="454.56" y="-69.76" type="curve" smooth="yes"/>
      <point x="349.92" y="-69.76" type="line"/>
      <point x="349.92" y="1294.6" type="line"/>
      <point x="454.56" y="1294.6" type="line" smooth="yes"/>
      <point x="499.16" y="1294.6"/>
      <point x="522.08" y="1328.48"/>
      <point x="522.08" y="1362.12" type="curve" smooth="yes"/>
      <point x="522.08" y="1396.24"/>
      <point x="500.68" y="1428.88"/>
      <point x="454.56" y="1428.88" type="curve" smooth="yes"/>
      <point x="261.72" y="1428.88" type="line" smooth="yes"/>
      <point x="210.64" y="1428.88"/>
      <point x="172.52" y="1389.28"/>
      <point x="172.52" y="1341.44" type="curve" smooth="yes"/>
      <point x="172.52" y="-117.84" type="line" smooth="yes"/>
      <point x="172.52" y="-165.92"/>
      <point x="210.64" y="-205.04"/>
    </contour>
  </outline>
</glyph>
<glyph name="backslash" format="1">
  <advance width="597"/>
  <unicode hex="005C"/>
  <outline>
    <contour>
      <point x="542" y="-102" type="curve" smooth="yes"/>
      <point x="579" y="-102"/>
      <point x="614" y="-76"/>
      <point x="614" y="-34" type="curve" smooth="yes"/>
      <point x="614" y="-25"/>
      <point x="613" y="-15"/>
      <point x="610" y="-6" type="curve"/>
      <point x="129" y="1448" type="line"/>
      <point x="116" y="1484"/>
      <point x="86" y="1500"/>
      <point x="57" y="1500" type="curve" smooth="yes"/>
      <point x="19" y="1500"/>
      <point x="-18" y="1475"/>
      <point x="-18" y="1431" type="curve" smooth="yes"/>
      <point x="-18" y="1424"/>
      <point x="-16" y="1414"/>
      <point x="-13" y="1403" type="curve" smooth="yes"/>
      <point x="472" y="-50" type="line" smooth="yes"/>
      <point x="483" y="-86"/>
      <point x="512" y="-102"/>
    </contour>
  </outline>
</glyph>
<glyph name="bracketright" format="1">
  <advance width="631"/>
  <unicode hex="005D"/>
  <outline>
    <contour>
      <point x="175" y="-205" type="curve"/>
      <point x="368" y="-205" type="line" smooth="yes"/>
      <point x="418" y="-205"/>
      <point x="457" y="-166"/>
      <point x="457" y="-118" type="curve" smooth="yes"/>
      <point x="457" y="1341" type="line" smooth="yes"/>
      <point x="457" y="1389"/>
      <point x="418" y="1429"/>
      <point x="368" y="1429" type="curve" smooth="yes"/>
      <point x="175" y="1429" type="line" smooth="yes"/>
      <point x="128" y="1429"/>
      <point x="107" y="1396"/>
      <point x="107" y="1362" type="curve" smooth="yes"/>
      <point x="107" y="1328"/>
      <point x="130" y="1295"/>
      <point x="175" y="1295" type="curve" smooth="yes"/>
      <point x="280" y="1295" type="line"/>
      <point x="280" y="-70" type="line"/>
      <point x="175" y="-70" type="line" smooth="yes"/>
      <point x="130" y="-70"/>
      <point x="107" y="-102"/>
      <point x="107" y="-136" type="curve" smooth="yes"/>
      <point x="107" y="-170"/>
      <point x="130" y="-204"/>
    </contour>
  </outline>
</glyph>
<glyph name="asciicircum" format="1">
  <advance width="1334"/>
  <unicode hex="005E"/>
  <outline>
    <contour>
      <point x="257" y="497" type="curve" smooth="yes"/>
      <point x="285" y="497"/>
      <point x="311" y="512"/>
      <point x="326" y="547" type="curve"/>
      <point x="667" y="1233" type="line"/>
      <point x="1006" y="547" type="line" smooth="yes"/>
      <point x="1022" y="515"/>
      <point x="1047" y="498"/>
      <point x="1075" y="498" type="curve" smooth="yes"/>
      <point x="1113" y="498"/>
      <point x="1150" y="527"/>
      <point x="1150" y="566" type="curve" smooth="yes"/>
      <point x="1150" y="576"/>
      <point x="1146" y="589"/>
      <point x="1141" y="601" type="curve"/>
      <point x="761" y="1341" type="line" smooth="yes"/>
      <point x="739" y="1383"/>
      <point x="706" y="1406"/>
      <point x="667" y="1406" type="curve" smooth="yes"/>
      <point x="628" y="1406"/>
      <point x="595" y="1382"/>
      <point x="574" y="1341" type="curve" smooth="yes"/>
      <point x="193" y="601" type="line"/>
      <point x="187" y="589"/>
      <point x="183" y="577"/>
      <point x="183" y="566" type="curve" smooth="yes"/>
      <point x="183" y="524"/>
      <point x="220" y="497"/>
    </contour>
  </outline>
</glyph>
<glyph name="underscore" format="1">
  <advance width="1024.0"/>
  <unicode hex="005F"/>
  <outline>
    <contour>
      <point x="56.2" y="-254.24" type="curve" smooth="yes"/>
      <point x="964.04" y="-254.24" type="line" smooth="yes"/>
      <point x="1003.52" y="-254.24"/>
      <point x="1023.0" y="-223.76"/>
      <point x="1023.0" y="-194.04" type="curve" smooth="yes"/>
      <point x="1023.0" y="-162.8"/>
      <point x="1003.52" y="-133.08"/>
      <point x="964.04" y="-133.08" type="curve" smooth="yes"/>
      <point x="56.2" y="-133.08" type="line" smooth="yes"/>
      <point x="18.48" y="-133.08"/>
      <point x="-0.76" y="-162.8"/>
      <point x="-0.76" y="-194.04" type="curve" smooth="yes"/>
      <point x="-0.76" y="-223.76"/>
      <point x="18.48" y="-254.24"/>
    </contour>
  </outline>
</glyph>
<glyph name="grave" format="1">
  <advance width="569.0"/>
  <unicode hex="0060"/>
  <outline>
    <contour>
      <point x="446.0" y="1040.0" type="move" name="_top"/>
    </contour>
    <contour>
      <point x="461.36" y="1193.6" type="curve" smooth="yes"/>
      <point x="485.92" y="1193.6"/>
      <point x="501.72" y="1212.64"/>
      <point x="501.72" y="1235.56" type="curve" smooth="yes"/>
      <point x="501.72" y="1247.16"/>
      <point x="497.64" y="1258.12"/>
      <point x="488.4" y="1269.84" type="curve" smooth="yes"/>
      <point x="228.64" y="1568.32" type="line" smooth="yes"/>
      <point x="209.72" y="1589.92"/>
      <point x="191.96" y="1600.04"/>
      <point x="170.08" y="1600.04" type="curve" smooth="yes"/>
      <point x="122.44" y="1600.04"/>
      <point x="73.32" y="1552.36"/>
      <point x="73.32" y="1507.36" type="curve" smooth="yes"/>
      <point x="73.32" y="1490.04"/>
      <point x="81.56" y="1473.2"/>
      <point x="97.64" y="1460.24" type="curve" smooth="yes"/>
      <point x="416.28" y="1212.64" type="line" smooth="yes"/>
      <point x="431.0" y="1200.56"/>
      <point x="447.4" y="1193.6"/>
    </contour>
  </outline>
</glyph>
<glyph name="a" format="1">
  <advance width="1047"/>
  <unicode hex="0061"/>
  <outline>
    <contour>
      <point x="517" y="993" type="move" name="top"/>
    </contour>
    <contour>
      <point x="809" y="14" type="move" name="ogonek"/>
    </contour>
    <contour>
      <point x="420" y="-18" type="curve" smooth="yes"/>
      <point x="594" y="-18"/>
      <point x="681" y="75"/>
      <point x="731" y="178" type="curve"/>
      <point x="731" y="79" type="line" smooth="yes"/>
      <point x="731" y="-31"/>
      <point x="906" y="-25"/>
      <point x="906" y="81" type="curve" smooth="yes"/>
      <point x="906" y="667" type="line" smooth="yes"/>
      <point x="906" y="912"/>
      <point x="748" y="1013"/>
      <point x="517" y="1013" type="curve" smooth="yes"/>
      <point x="357" y="1013"/>
      <point x="238" y="978"/>
      <point x="147" y="925" type="curve" smooth="yes"/>
      <point x="84" y="889"/>
      <point x="142" y="788"/>
      <point x="207" y="818" type="curve" smooth="yes"/>
      <point x="286" y="853"/>
      <point x="379" y="893"/>
      <point x="511" y="893" type="curve" smooth="yes"/>
      <point x="643" y="893"/>
      <point x="729" y="831"/>
      <point x="729" y="683" type="curve" smooth="yes"/>
      <point x="729" y="573" type="line"/>
      <point x="243" y="573"/>
      <point x="68" y="534"/>
      <point x="68" y="270" type="curve" smooth="yes"/>
      <point x="68" y="79"/>
      <point x="218" y="-18"/>
    </contour>
    <contour>
      <point x="440" y="99" type="curve" smooth="yes"/>
      <point x="322" y="99"/>
      <point x="236" y="150"/>
      <point x="237" y="278" type="curve" smooth="yes"/>
      <point x="237" y="439"/>
      <point x="333" y="470"/>
      <point x="729" y="470" type="curve"/>
      <point x="729" y="440" type="line" smooth="yes"/>
      <point x="729" y="235"/>
      <point x="587" y="99"/>
    </contour>
  </outline>
</glyph>
<glyph name="b" format="1">
  <advance width="1189"/>
  <unicode hex="0062"/>
  <outline>
    <contour>
      <point x="674" y="-18" type="curve" smooth="yes"/>
      <point x="963" y="-18"/>
      <point x="1104" y="227"/>
      <point x="1104" y="503" type="curve" smooth="yes"/>
      <point x="1104" y="785"/>
      <point x="944" y="1013"/>
      <point x="659" y="1013" type="curve" smooth="yes"/>
      <point x="512" y="1013"/>
      <point x="391" y="947"/>
      <point x="330" y="824" type="curve"/>
      <point x="330" y="1345" type="line" smooth="yes"/>
      <point x="330" y="1400"/>
      <point x="286" y="1428"/>
      <point x="242" y="1428" type="curve" smooth="yes"/>
      <point x="197" y="1428"/>
      <point x="153" y="1400"/>
      <point x="153" y="1345" type="curve" smooth="yes"/>
      <point x="153" y="85" type="line" smooth="yes"/>
      <point x="153" y="30"/>
      <point x="197" y="2"/>
      <point x="241" y="2" type="curve" smooth="yes"/>
      <point x="303" y="2"/>
      <point x="330" y="36"/>
      <point x="330" y="85" type="curve" smooth="yes"/>
      <point x="330" y="177" type="line"/>
      <point x="397" y="44"/>
      <point x="525" y="-18"/>
    </contour>
    <contour>
      <point x="645" y="103" type="curve" smooth="yes"/>
      <point x="405" y="103"/>
      <point x="331" y="279"/>
      <point x="331" y="501" type="curve" smooth="yes"/>
      <point x="331" y="696"/>
      <point x="416" y="891"/>
      <point x="634" y="891" type="curve" smooth="yes"/>
      <point x="854" y="891"/>
      <point x="926" y="681"/>
      <point x="926" y="499" type="curve" smooth="yes"/>
      <point x="926" y="325"/>
      <point x="863" y="106"/>
    </contour>
  </outline>
</glyph>
<glyph name="c" format="1">
  <advance width="958"/>
  <unicode hex="0063"/>
  <outline>
    <contour>
      <point x="564" y="1004" type="move" name="top"/>
    </contour>
    <contour>
      <point x="531" y="7" type="move" name="bot"/>
    </contour>
    <contour>
      <point x="556" y="-20" type="curve" smooth="yes"/>
      <point x="699" y="-20"/>
      <point x="802" y="21"/>
      <point x="860" y="68" type="curve" smooth="yes"/>
      <point x="938" y="132"/>
      <point x="866" y="214"/>
      <point x="800" y="168" type="curve" smooth="yes"/>
      <point x="736" y="124"/>
      <point x="658" y="103"/>
      <point x="570" y="103" type="curve" smooth="yes"/>
      <point x="353" y="103"/>
      <point x="262" y="298"/>
      <point x="262" y="494" type="curve" smooth="yes"/>
      <point x="262" y="742"/>
      <point x="397" y="892"/>
      <point x="586" y="892" type="curve" smooth="yes"/>
      <point x="655" y="892"/>
      <point x="728" y="873"/>
      <point x="787" y="833" type="curve" smooth="yes"/>
      <point x="858" y="788"/>
      <point x="928" y="867"/>
      <point x="851" y="928" type="curve" smooth="yes"/>
      <point x="798" y="973"/>
      <point x="698" y="1013"/>
      <point x="578" y="1013" type="curve" smooth="yes"/>
      <point x="277" y="1013"/>
      <point x="85" y="786"/>
      <point x="85" y="497" type="curve" smooth="yes"/>
      <point x="85" y="208"/>
      <point x="260" y="-20"/>
    </contour>
  </outline>
</glyph>
<glyph name="d" format="1">
  <advance width="1189"/>
  <unicode hex="0064"/>
  <outline>
    <contour>
      <point x="891" y="1190" type="move" name="mid"/>
    </contour>
    <contour>
      <point x="515" y="-18" type="curve" smooth="yes"/>
      <point x="664" y="-18"/>
      <point x="791" y="44"/>
      <point x="858" y="177" type="curve"/>
      <point x="858" y="85" type="line" smooth="yes"/>
      <point x="858" y="36"/>
      <point x="886" y="2"/>
      <point x="947" y="2" type="curve" smooth="yes"/>
      <point x="992" y="2"/>
      <point x="1036" y="30"/>
      <point x="1036" y="85" type="curve" smooth="yes"/>
      <point x="1036" y="1345" type="line" smooth="yes"/>
      <point x="1036" y="1400"/>
      <point x="992" y="1428"/>
      <point x="947" y="1428" type="curve" smooth="yes"/>
      <point x="903" y="1428"/>
      <point x="858" y="1400"/>
      <point x="858" y="1345" type="curve" smooth="yes"/>
      <point x="858" y="824" type="line"/>
      <point x="798" y="947"/>
      <point x="677" y="1013"/>
      <point x="530" y="1013" type="curve" smooth="yes"/>
      <point x="244" y="1013"/>
      <point x="85" y="785"/>
      <point x="85" y="503" type="curve" smooth="yes"/>
      <point x="85" y="227"/>
      <point x="226" y="-18"/>
    </contour>
    <contour>
      <point x="544" y="103" type="curve" smooth="yes"/>
      <point x="326" y="106"/>
      <point x="262" y="325"/>
      <point x="262" y="499" type="curve" smooth="yes"/>
      <point x="262" y="681"/>
      <point x="334" y="891"/>
      <point x="555" y="891" type="curve" smooth="yes"/>
      <point x="773" y="891"/>
      <point x="857" y="696"/>
      <point x="857" y="501" type="curve" smooth="yes"/>
      <point x="857" y="279"/>
      <point x="784" y="103"/>
    </contour>
  </outline>
</glyph>
<glyph name="e" format="1">
  <advance width="1121"/>
  <unicode hex="0065"/>
  <outline>
    <contour>
      <point x="580" y="1001" type="move" name="top"/>
    </contour>
    <contour>
      <point x="749" y="31" type="move" name="ogonek"/>
    </contour>
    <contour>
      <point x="583" y="-18" type="curve" smooth="yes"/>
      <point x="771" y="-18"/>
      <point x="885" y="52"/>
      <point x="965" y="125" type="curve" smooth="yes"/>
      <point x="1032" y="186"/>
      <point x="964" y="277"/>
      <point x="899" y="227" type="curve" smooth="yes"/>
      <point x="821" y="167"/>
      <point x="728" y="108"/>
      <point x="594" y="108" type="curve" smooth="yes"/>
      <point x="417" y="110"/>
      <point x="272" y="220"/>
      <point x="269" y="462" type="curve"/>
      <point x="958" y="462" type="line" smooth="yes"/>
      <point x="1003" y="462"/>
      <point x="1022" y="493"/>
      <point x="1022" y="528" type="curve"/>
      <point x="1015" y="786"/>
      <point x="893" y="1013"/>
      <point x="571" y="1013" type="curve" smooth="yes"/>
      <point x="265" y="1013"/>
      <point x="91" y="772"/>
      <point x="91" y="500" type="curve" smooth="yes"/>
      <point x="91" y="176"/>
      <point x="304" y="-18"/>
    </contour>
    <contour>
      <point x="273" y="572" type="line"/>
      <point x="285" y="733"/>
      <point x="385" y="891"/>
      <point x="581" y="891" type="curve" smooth="yes"/>
      <point x="773" y="891"/>
      <point x="856" y="744"/>
      <point x="867" y="572" type="curve"/>
    </contour>
  </outline>
</glyph>
<glyph name="f" format="1">
  <advance width="695.64"/>
  <unicode hex="0066"/>
  <outline>
    <contour>
      <point x="324.32" y="0.0" type="curve" smooth="yes"/>
      <point x="369.88" y="0.0"/>
      <point x="414.2" y="29.64"/>
      <point x="414.2" y="87.64" type="curve" smooth="yes"/>
      <point x="414.2" y="867.36" type="line"/>
      <point x="585.08" y="867.36" type="line" smooth="yes"/>
      <point x="631.2" y="867.36"/>
      <point x="647.56" y="891.96"/>
      <point x="647.56" y="924.88" type="curve" smooth="yes"/>
      <point x="647.56" y="955.8"/>
      <point x="631.2" y="983.4"/>
      <point x="585.08" y="983.4" type="curve" smooth="yes"/>
      <point x="414.2" y="983.4" type="line"/>
      <point x="414.2" y="1060.44" type="line" smooth="yes"/>
      <point x="414.2" y="1277.32"/>
      <point x="449.64" y="1306.0"/>
      <point x="556.12" y="1306.0" type="curve" smooth="yes"/>
      <point x="641.12" y="1306.0" type="line" smooth="yes"/>
      <point x="725.8" y="1306.0"/>
      <point x="721.84" y="1440.88"/>
      <point x="641.88" y="1440.88" type="curve" smooth="yes"/>
      <point x="520.44" y="1440.88" type="line" smooth="yes"/>
      <point x="359.28" y="1440.88"/>
      <point x="236.2" y="1366.68"/>
      <point x="236.2" y="1110.8" type="curve" smooth="yes"/>
      <point x="236.2" y="983.4" type="line"/>
      <point x="104.12" y="983.4" type="line" smooth="yes"/>
      <point x="58.0" y="983.64"/>
      <point x="39.36" y="955.8"/>
      <point x="39.36" y="924.88" type="curve" smooth="yes"/>
      <point x="39.36" y="893.48"/>
      <point x="58.0" y="867.6"/>
      <point x="104.12" y="867.36" type="curve" smooth="yes"/>
      <point x="236.2" y="867.36" type="line"/>
      <point x="236.2" y="87.64" type="line" smooth="yes"/>
      <point x="236.2" y="28.88"/>
      <point x="280.52" y="0.0"/>
    </contour>
  </outline>
</glyph>
<glyph name="g" format="1">
  <advance width="1176"/>
  <unicode hex="0067"/>
  <outline>
    <contour>
      <point x="551" y="1001" type="move" name="top"/>
    </contour>
    <contour>
      <point x="560" y="-421" type="curve" smooth="yes"/>
      <point x="845" y="-421"/>
      <point x="1035" y="-287"/>
      <point x="1035" y="5" type="curve" smooth="yes"/>
      <point x="1035" y="911" type="line" smooth="yes"/>
      <point x="1035" y="966"/>
      <point x="994" y="993"/>
      <point x="951" y="993" type="curve" smooth="yes"/>
      <point x="912" y="993"/>
      <point x="873" y="969"/>
      <point x="868" y="921" type="curve"/>
      <point x="868" y="818" type="line"/>
      <point x="809" y="935"/>
      <point x="711" y="1013"/>
      <point x="536" y="1013" type="curve" smooth="yes"/>
      <point x="245" y="1013"/>
      <point x="85" y="779"/>
      <point x="85" y="492" type="curve" smooth="yes"/>
      <point x="85" y="220"/>
      <point x="245" y="0"/>
      <point x="540" y="0" type="curve" smooth="yes"/>
      <point x="699" y="0"/>
      <point x="811" y="83"/>
      <point x="863" y="201" type="curve"/>
      <point x="863" y="0" type="line" smooth="yes"/>
      <point x="863" y="-191"/>
      <point x="760" y="-297"/>
      <point x="548" y="-297" type="curve" smooth="yes"/>
      <point x="418" y="-297"/>
      <point x="327" y="-258"/>
      <point x="264" y="-235" type="curve" smooth="yes"/>
      <point x="195" y="-209"/>
      <point x="144" y="-310"/>
      <point x="220" y="-351" type="curve" smooth="yes"/>
      <point x="282" y="-384"/>
      <point x="400" y="-421"/>
    </contour>
    <contour>
      <point x="558" y="119" type="curve"/>
      <point x="401" y="125"/>
      <point x="262" y="238"/>
      <point x="262" y="498" type="curve" smooth="yes"/>
      <point x="262" y="713"/>
      <point x="356" y="891"/>
      <point x="568" y="891" type="curve" smooth="yes"/>
      <point x="794" y="891"/>
      <point x="863" y="693"/>
      <point x="862" y="494" type="curve" smooth="yes"/>
      <point x="859" y="245"/>
      <point x="725" y="112"/>
    </contour>
  </outline>
</glyph>
<glyph name="h" format="1">
  <advance width="1157"/>
  <unicode hex="0068"/>
  <outline>
    <contour>
      <point x="241" y="0" type="curve" smooth="yes"/>
      <point x="286" y="0"/>
      <point x="331" y="28"/>
      <point x="331" y="85" type="curve" smooth="yes"/>
      <point x="331" y="571" type="line" smooth="yes"/>
      <point x="331" y="778"/>
      <point x="467" y="881"/>
      <point x="624" y="881" type="curve" smooth="yes"/>
      <point x="754" y="881"/>
      <point x="840" y="807"/>
      <point x="840" y="642" type="curve" smooth="yes"/>
      <point x="840" y="85" type="line" smooth="yes"/>
      <point x="840" y="28"/>
      <point x="884" y="0"/>
      <point x="928" y="0" type="curve" smooth="yes"/>
      <point x="973" y="0"/>
      <point x="1018" y="28"/>
      <point x="1018" y="85" type="curve" smooth="yes"/>
      <point x="1018" y="633" type="line" smooth="yes"/>
      <point x="1018" y="905"/>
      <point x="852" y="1013"/>
      <point x="662" y="1013" type="curve" smooth="yes"/>
      <point x="519" y="1013"/>
      <point x="385" y="949"/>
      <point x="331" y="836" type="curve"/>
      <point x="331" y="1346" type="line" smooth="yes"/>
      <point x="331" y="1401"/>
      <point x="287" y="1428"/>
      <point x="243" y="1428" type="curve" smooth="yes"/>
      <point x="198" y="1428"/>
      <point x="153" y="1400"/>
      <point x="153" y="1346" type="curve" smooth="yes"/>
      <point x="153" y="85" type="line" smooth="yes"/>
      <point x="153" y="28"/>
      <point x="196" y="0"/>
    </contour>
  </outline>
</glyph>
<glyph name="i" format="1">
  <advance width="479"/>
  <unicode hex="0069"/>
  <outline>
    <contour>
      <point x="240" y="0" type="curve" smooth="yes"/>
      <point x="284" y="0"/>
      <point x="330" y="31"/>
      <point x="330" y="89" type="curve" smooth="yes"/>
      <point x="330" y="905" type="line" smooth="yes"/>
      <point x="330" y="963"/>
      <point x="286" y="993"/>
      <point x="242" y="993" type="curve" smooth="yes"/>
      <point x="198" y="993"/>
      <point x="152" y="963"/>
      <point x="152" y="905" type="curve" smooth="yes"/>
      <point x="152" y="89" type="line" smooth="yes"/>
      <point x="152" y="28"/>
      <point x="195" y="0"/>
    </contour>
    <contour>
      <point x="241" y="1226" type="curve" smooth="yes"/>
      <point x="310" y="1226"/>
      <point x="357" y="1270"/>
      <point x="357" y="1335" type="curve" smooth="yes"/>
      <point x="357" y="1401"/>
      <point x="311" y="1444"/>
      <point x="242" y="1444" type="curve" smooth="yes"/>
      <point x="172" y="1444"/>
      <point x="125" y="1401"/>
      <point x="125" y="1335" type="curve" smooth="yes"/>
      <point x="125" y="1270"/>
      <point x="171" y="1226"/>
    </contour>
  </outline>
</glyph>
<glyph name="j" format="1">
  <advance width="486"/>
  <unicode hex="006A"/>
  <outline>
    <contour>
      <point x="5" y="-378" type="curve" smooth="yes"/>
      <point x="312" y="-378"/>
      <point x="335" y="-279"/>
      <point x="335" y="-28" type="curve" smooth="yes"/>
      <point x="335" y="905" type="line" smooth="yes"/>
      <point x="335" y="963"/>
      <point x="290" y="993"/>
      <point x="247" y="993" type="curve" smooth="yes"/>
      <point x="201" y="993"/>
      <point x="156" y="963"/>
      <point x="156" y="905" type="curve" smooth="yes"/>
      <point x="156" y="-65" type="line" smooth="yes"/>
      <point x="156" y="-226"/>
      <point x="138" y="-242"/>
      <point x="3" y="-242" type="curve" smooth="yes"/>
      <point x="-79" y="-242"/>
      <point x="-81" y="-378"/>
    </contour>
    <contour>
      <point x="241" y="1226" type="curve" smooth="yes"/>
      <point x="310" y="1226"/>
      <point x="357" y="1270"/>
      <point x="357" y="1335" type="curve" smooth="yes"/>
      <point x="357" y="1401"/>
      <point x="311" y="1444"/>
      <point x="242" y="1444" type="curve" smooth="yes"/>
      <point x="172" y="1444"/>
      <point x="125" y="1401"/>
      <point x="125" y="1335" type="curve" smooth="yes"/>
      <point x="125" y="1270"/>
      <point x="171" y="1226"/>
    </contour>
  </outline>
</glyph>
<glyph name="k" format="1">
  <advance width="999"/>
  <unicode hex="006B"/>
  <outline>
    <contour>
      <point x="531" y="0" type="move" name="bot"/>
    </contour>
    <contour>
      <point x="803" y="27" type="line"/>
      <point x="878" y="-53"/>
      <point x="997" y="57"/>
      <point x="925" y="133" type="curve" smooth="yes"/>
      <point x="528" y="551" type="line"/>
      <point x="891" y="876" type="line" smooth="yes"/>
      <point x="963" y="942"/>
      <point x="857" y="1053"/>
      <point x="787" y="989" type="curve" smooth="yes"/>
      <point x="333" y="573" type="line"/>
      <point x="333" y="527" type="line"/>
    </contour>
    <contour>
      <point x="241" y="0" type="curve" smooth="yes"/>
      <point x="287" y="0"/>
      <point x="333" y="31"/>
      <point x="333" y="91" type="curve" smooth="yes"/>
      <point x="333" y="1338" type="line" smooth="yes"/>
      <point x="333" y="1398"/>
      <point x="288" y="1428"/>
      <point x="244" y="1428" type="curve" smooth="yes"/>
      <point x="198" y="1428"/>
      <point x="152" y="1398"/>
      <point x="152" y="1338" type="curve" smooth="yes"/>
      <point x="152" y="91" type="line" smooth="yes"/>
      <point x="152" y="29"/>
      <point x="196" y="0"/>
    </contour>
  </outline>
</glyph>
<glyph name="l" format="1">
  <advance width="458.56"/>
  <unicode hex="006C"/>
  <outline>
    <contour>
      <point x="267.4" y="1428.88" type="move" name="top"/>
    </contour>
    <contour>
      <point x="235.28" y="0.0" type="move" name="bot"/>
    </contour>
    <contour>
      <point x="235.76" y="0.0" type="curve" smooth="yes"/>
      <point x="280.32" y="0.0"/>
      <point x="326.64" y="30.88"/>
      <point x="326.64" y="89.4" type="curve" smooth="yes"/>
      <point x="326.64" y="1339.24" type="line" smooth="yes"/>
      <point x="326.64" y="1397.76"/>
      <point x="282.32" y="1427.88"/>
      <point x="238.52" y="1427.88" type="curve" smooth="yes"/>
      <point x="193.72" y="1427.88"/>
      <point x="148.64" y="1397.76"/>
      <point x="148.64" y="1339.24" type="curve" smooth="yes"/>
      <point x="148.64" y="89.4" type="line" smooth="yes"/>
      <point x="148.64" y="28.12"/>
      <point x="191.2" y="0.0"/>
    </contour>
  </outline>
</glyph>
<glyph name="m" format="1">
  <advance width="1844"/>
  <unicode hex="006D"/>
  <outline>
    <contour>
      <point x="969" y="1000" type="move" name="top"/>
    </contour>
    <contour>
      <point x="241" y="0" type="curve" smooth="yes"/>
      <point x="286" y="0"/>
      <point x="331" y="27"/>
      <point x="331" y="84" type="curve" smooth="yes"/>
      <point x="331" y="573" type="line" smooth="yes"/>
      <point x="331" y="778"/>
      <point x="447" y="892"/>
      <point x="620" y="892" type="curve" smooth="yes"/>
      <point x="756" y="892"/>
      <point x="839" y="808"/>
      <point x="839" y="612" type="curve" smooth="yes"/>
      <point x="839" y="85" type="line" smooth="yes"/>
      <point x="839" y="28"/>
      <point x="882" y="0"/>
      <point x="927" y="0" type="curve" smooth="yes"/>
      <point x="971" y="0"/>
      <point x="1017" y="28"/>
      <point x="1017" y="85" type="curve" smooth="yes"/>
      <point x="1017" y="569" type="line" smooth="yes"/>
      <point x="1017" y="792"/>
      <point x="1149" y="892"/>
      <point x="1305" y="892" type="curve" smooth="yes"/>
      <point x="1444" y="892"/>
      <point x="1525" y="809"/>
      <point x="1525" y="640" type="curve" smooth="yes"/>
      <point x="1525" y="84" type="line" smooth="yes"/>
      <point x="1525" y="27"/>
      <point x="1568" y="0"/>
      <point x="1613" y="0" type="curve" smooth="yes"/>
      <point x="1657" y="0"/>
      <point x="1703" y="27"/>
      <point x="1703" y="84" type="curve" smooth="yes"/>
      <point x="1703" y="633" type="line" smooth="yes"/>
      <point x="1703" y="904"/>
      <point x="1536" y="1013"/>
      <point x="1342" y="1013" type="curve" smooth="yes"/>
      <point x="1169" y="1013"/>
      <point x="1040" y="938"/>
      <point x="983" y="779" type="curve"/>
      <point x="941" y="932"/>
      <point x="817" y="1013"/>
      <point x="655" y="1013" type="curve" smooth="yes"/>
      <point x="510" y="1013"/>
      <point x="389" y="946"/>
      <point x="331" y="821" type="curve"/>
      <point x="331" y="915" type="line" smooth="yes"/>
      <point x="331" y="968"/>
      <point x="285" y="993"/>
      <point x="243" y="993" type="curve" smooth="yes"/>
      <point x="198" y="993"/>
      <point x="153" y="966"/>
      <point x="153" y="912" type="curve" smooth="yes"/>
      <point x="153" y="84" type="line" smooth="yes"/>
      <point x="153" y="27"/>
      <point x="196" y="0"/>
    </contour>
  </outline>
</glyph>
<glyph name="n" format="1">
  <advance width="1160"/>
  <unicode hex="006E"/>
  <outline>
    <contour>
      <point x="617" y="991" type="move" name="top"/>
    </contour>
    <contour>
      <point x="586" y="0" type="move" name="bot"/>
    </contour>
    <contour>
      <point x="241" y="0" type="curve" smooth="yes"/>
      <point x="286" y="0"/>
      <point x="330" y="29"/>
      <point x="330" y="84" type="curve" smooth="yes"/>
      <point x="330" y="586" type="line" smooth="yes"/>
      <point x="340" y="782"/>
      <point x="462" y="891"/>
      <point x="612" y="891" type="curve" smooth="yes"/>
      <point x="757" y="891"/>
      <point x="840" y="801"/>
      <point x="840" y="628" type="curve" smooth="yes"/>
      <point x="840" y="84" type="line" smooth="yes"/>
      <point x="840" y="27"/>
      <point x="885" y="0"/>
      <point x="929" y="0" type="curve" smooth="yes"/>
      <point x="974" y="0"/>
      <point x="1018" y="27"/>
      <point x="1018" y="84" type="curve" smooth="yes"/>
      <point x="1018" y="626" type="line" smooth="yes"/>
      <point x="1018" y="897"/>
      <point x="867" y="1013"/>
      <point x="657" y="1013" type="curve" smooth="yes"/>
      <point x="507" y="1013"/>
      <point x="381" y="947"/>
      <point x="330" y="823" type="curve"/>
      <point x="330" y="912" type="line" smooth="yes"/>
      <point x="330" y="966"/>
      <point x="286" y="993"/>
      <point x="243" y="993" type="curve" smooth="yes"/>
      <point x="198" y="993"/>
      <point x="153" y="966"/>
      <point x="153" y="909" type="curve" smooth="yes"/>
      <point x="153" y="84" type="line" smooth="yes"/>
      <point x="153" y="27"/>
      <point x="196" y="0"/>
    </contour>
  </outline>
</glyph>
<glyph name="o" format="1">
  <advance width="1169.16"/>
  <unicode hex="006F"/>
  <outline>
    <contour>
      <point x="577.76" y="998.6" type="move" name="top"/>
    </contour>
    <contour>
      <point x="584.08" y="103.44" type="curve" smooth="yes"/>
      <point x="381.52" y="102.68"/>
      <point x="261.6" y="257.52"/>
      <point x="261.6" y="496.72" type="curve" smooth="yes"/>
      <point x="261.6" y="738.44"/>
      <point x="381.28" y="891.48"/>
      <point x="584.08" y="891.48" type="curve" smooth="yes"/>
      <point x="787.64" y="891.48"/>
      <point x="907.56" y="736.16"/>
      <point x="907.56" y="496.72" type="curve" smooth="yes"/>
      <point x="907.56" y="257.52"/>
      <point x="791.44" y="104.2"/>
    </contour>
    <contour>
      <point x="584.08" y="-18.08" type="curve" smooth="yes"/>
      <point x="896.68" y="-18.08"/>
      <point x="1084.6" y="201.84"/>
      <point x="1084.6" y="496.72" type="curve" smooth="yes"/>
      <point x="1084.6" y="795.68"/>
      <point x="894.04" y="1013.0"/>
      <point x="584.08" y="1013.0" type="curve" smooth="yes"/>
      <point x="273.44" y="1013.0"/>
      <point x="84.56" y="793.76"/>
      <point x="84.56" y="496.72" type="curve" smooth="yes"/>
      <point x="84.56" y="201.36"/>
      <point x="272.48" y="-18.08"/>
    </contour>
  </outline>
</glyph>
<glyph name="p" format="1">
  <advance width="1189"/>
  <unicode hex="0070"/>
  <outline>
    <contour>
      <point x="242" y="-380" type="curve" smooth="yes"/>
      <point x="286" y="-380"/>
      <point x="330" y="-352"/>
      <point x="330" y="-297" type="curve" smooth="yes"/>
      <point x="330" y="171" type="line"/>
      <point x="391" y="48"/>
      <point x="512" y="-18"/>
      <point x="659" y="-18" type="curve" smooth="yes"/>
      <point x="944" y="-18"/>
      <point x="1104" y="210"/>
      <point x="1104" y="492" type="curve" smooth="yes"/>
      <point x="1104" y="768"/>
      <point x="963" y="1013"/>
      <point x="674" y="1013" type="curve" smooth="yes"/>
      <point x="525" y="1013"/>
      <point x="397" y="951"/>
      <point x="330" y="818" type="curve"/>
      <point x="330" y="910" type="line" smooth="yes"/>
      <point x="330" y="959"/>
      <point x="303" y="993"/>
      <point x="241" y="993" type="curve" smooth="yes"/>
      <point x="197" y="993"/>
      <point x="153" y="965"/>
      <point x="153" y="910" type="curve" smooth="yes"/>
      <point x="153" y="-297" type="line" smooth="yes"/>
      <point x="153" y="-352"/>
      <point x="197" y="-380"/>
    </contour>
    <contour>
      <point x="634" y="103" type="curve" smooth="yes"/>
      <point x="416" y="103"/>
      <point x="331" y="299"/>
      <point x="331" y="493" type="curve" smooth="yes"/>
      <point x="331" y="716"/>
      <point x="405" y="891"/>
      <point x="645" y="891" type="curve" smooth="yes"/>
      <point x="863" y="889"/>
      <point x="926" y="669"/>
      <point x="926" y="496" type="curve" smooth="yes"/>
      <point x="926" y="314"/>
      <point x="854" y="103"/>
    </contour>
  </outline>
</glyph>
<glyph name="q" format="1">
  <advance width="1181.08"/>
  <unicode hex="0071"/>
  <outline>
    <contour>
      <point x="947.08" y="-379.72" type="curve" smooth="yes"/>
      <point x="991.64" y="-379.72"/>
      <point x="1035.96" y="-351.84"/>
      <point x="1035.96" y="-297.08" type="curve" smooth="yes"/>
      <point x="1035.96" y="909.8" type="line" smooth="yes"/>
      <point x="1035.96" y="964.8"/>
      <point x="991.68" y="992.64"/>
      <point x="947.36" y="992.64" type="curve" smooth="yes"/>
      <point x="886.16" y="992.64"/>
      <point x="858.2" y="958.6"/>
      <point x="858.2" y="910.04" type="curve" smooth="yes"/>
      <point x="858.2" y="818.4" type="line"/>
      <point x="791.48" y="950.84"/>
      <point x="664.04" y="1013.0"/>
      <point x="514.52" y="1013.0" type="curve" smooth="yes"/>
      <point x="226.16" y="1013.0"/>
      <point x="84.56" y="768.0"/>
      <point x="84.56" y="491.72" type="curve" smooth="yes"/>
      <point x="84.56" y="209.52"/>
      <point x="244.4" y="-18.08"/>
      <point x="530.04" y="-18.08" type="curve" smooth="yes"/>
      <point x="676.8" y="-18.08"/>
      <point x="797.8" y="48.12"/>
      <point x="858.2" y="170.84" type="curve"/>
      <point x="858.2" y="-297.08" type="line" smooth="yes"/>
      <point x="858.2" y="-351.84"/>
      <point x="902.52" y="-379.72"/>
    </contour>
    <contour>
      <point x="554.52" y="103.44" type="curve" smooth="yes"/>
      <point x="334.48" y="103.44"/>
      <point x="262.32" y="313.76"/>
      <point x="262.32" y="496.04" type="curve" smooth="yes"/>
      <point x="262.32" y="669.32"/>
      <point x="325.92" y="889.2"/>
      <point x="544.16" y="891.48" type="curve" smooth="yes"/>
      <point x="783.84" y="891.48"/>
      <point x="857.2" y="716.16"/>
      <point x="857.2" y="493.2" type="curve" smooth="yes"/>
      <point x="857.2" y="298.72"/>
      <point x="773.04" y="103.44"/>
    </contour>
  </outline>
</glyph>
<glyph name="r" format="1">
  <advance width="727"/>
  <unicode hex="0072"/>
  <outline>
    <contour>
      <point x="373" y="1001" type="move" name="top"/>
    </contour>
    <contour>
      <point x="242" y="0" type="move" name="bot"/>
    </contour>
    <contour>
      <point x="242" y="0" type="curve" smooth="yes"/>
      <point x="288" y="0"/>
      <point x="333" y="28"/>
      <point x="333" y="83" type="curve" smooth="yes"/>
      <point x="333" y="602" type="line" smooth="yes"/>
      <point x="333" y="749"/>
      <point x="431" y="859"/>
      <point x="616" y="859" type="curve" smooth="yes"/>
      <point x="710" y="859"/>
      <point x="699" y="1009"/>
      <point x="615" y="1009" type="curve" smooth="yes"/>
      <point x="466" y="1009"/>
      <point x="363" y="909"/>
      <point x="333" y="791" type="curve"/>
      <point x="333" y="912" type="line" smooth="yes"/>
      <point x="334" y="1018"/>
      <point x="155" y="1019"/>
      <point x="155" y="910" type="curve" smooth="yes"/>
      <point x="155" y="83" type="line" smooth="yes"/>
      <point x="155" y="26"/>
      <point x="198" y="0"/>
    </contour>
  </outline>
</glyph>
<glyph name="s" format="1">
  <advance width="1006"/>
  <unicode hex="0073"/>
  <outline>
    <contour>
      <point x="489" y="1002" type="move" name="top"/>
    </contour>
    <contour>
      <point x="510" y="0" type="move" name="bot"/>
    </contour>
    <contour>
      <point x="510" y="-19" type="curve" smooth="yes"/>
      <point x="740" y="-20"/>
      <point x="918" y="80"/>
      <point x="909" y="304" type="curve" smooth="yes"/>
      <point x="904" y="424"/>
      <point x="831" y="520"/>
      <point x="630" y="569" type="curve" smooth="yes"/>
      <point x="456" y="612" type="line" smooth="yes"/>
      <point x="312" y="647"/>
      <point x="279" y="666"/>
      <point x="279" y="749" type="curve" smooth="yes"/>
      <point x="279" y="853"/>
      <point x="382" y="895"/>
      <point x="521" y="894" type="curve" smooth="yes"/>
      <point x="640" y="893"/>
      <point x="734" y="848"/>
      <point x="781" y="831" type="curve" smooth="yes"/>
      <point x="866" y="801"/>
      <point x="899" y="902"/>
      <point x="829" y="939" type="curve" smooth="yes"/>
      <point x="774" y="968"/>
      <point x="656" y="1014"/>
      <point x="514" y="1014" type="curve" smooth="yes"/>
      <point x="304" y="1016"/>
      <point x="112" y="941"/>
      <point x="114" y="739" type="curve" smooth="yes"/>
      <point x="115" y="560"/>
      <point x="230" y="519"/>
      <point x="415" y="473" type="curve" smooth="yes"/>
      <point x="593" y="429" type="line" smooth="yes"/>
      <point x="708" y="401"/>
      <point x="754" y="355"/>
      <point x="757" y="284" type="curve" smooth="yes"/>
      <point x="763" y="160"/>
      <point x="657" y="101"/>
      <point x="512" y="102" type="curve" smooth="yes"/>
      <point x="391" y="102"/>
      <point x="293" y="143"/>
      <point x="220" y="187" type="curve" smooth="yes"/>
      <point x="137" y="237"/>
      <point x="77" y="139"/>
      <point x="145" y="90" type="curve" smooth="yes"/>
      <point x="216" y="38"/>
      <point x="358" y="-18"/>
    </contour>
  </outline>
</glyph>
<glyph name="t" format="1">
  <advance width="721"/>
  <unicode hex="0074"/>
  <outline>
    <contour>
      <point x="448" y="8" type="move" name="bot"/>
    </contour>
    <contour>
      <point x="474" y="-15" type="curve" smooth="yes"/>
      <point x="534" y="-15"/>
      <point x="594" y="-13"/>
      <point x="624" y="-7" type="curve" smooth="yes"/>
      <point x="707" y="8"/>
      <point x="695" y="133"/>
      <point x="603" y="128" type="curve" smooth="yes"/>
      <point x="536" y="124" type="line" smooth="yes"/>
      <point x="444" y="120"/>
      <point x="402" y="173"/>
      <point x="402" y="319" type="curve" smooth="yes"/>
      <point x="402" y="867" type="line"/>
      <point x="587" y="867" type="line" smooth="yes"/>
      <point x="633" y="867"/>
      <point x="652" y="891"/>
      <point x="652" y="924" type="curve" smooth="yes"/>
      <point x="652" y="957"/>
      <point x="633" y="983"/>
      <point x="587" y="983" type="curve" smooth="yes"/>
      <point x="402" y="983" type="line"/>
      <point x="402" y="1274" type="line" smooth="yes"/>
      <point x="402" y="1324"/>
      <point x="370" y="1346"/>
      <point x="333" y="1346" type="curve" smooth="yes"/>
      <point x="293" y="1346"/>
      <point x="251" y="1311"/>
      <point x="248" y="1268" type="curve" smooth="yes"/>
      <point x="225" y="983" type="line"/>
      <point x="101" y="983" type="line" smooth="yes"/>
      <point x="55" y="983"/>
      <point x="34" y="959"/>
      <point x="34" y="925" type="curve" smooth="yes"/>
      <point x="34" y="892"/>
      <point x="56" y="867"/>
      <point x="102" y="867" type="curve" smooth="yes"/>
      <point x="225" y="867" type="line"/>
      <point x="225" y="290" type="line" smooth="yes"/>
      <point x="225" y="72"/>
      <point x="331" y="-15"/>
    </contour>
  </outline>
</glyph>
<glyph name="u" format="1">
  <advance width="1146.24"/>
  <unicode hex="0075"/>
  <outline>
    <contour>
      <point x="567.44" y="998.6" type="move" name="top"/>
    </contour>
    <contour>
      <point x="905.12" y="19.72" type="move" name="ogonek"/>
    </contour>
    <contour>
      <point x="496.6" y="-18.08" type="curve" smooth="yes"/>
      <point x="646.08" y="-18.08"/>
      <point x="772.72" y="48.04"/>
      <point x="823.36" y="172.28" type="curve"/>
      <point x="823.36" y="80.92" type="line" smooth="yes"/>
      <point x="823.36" y="26.64"/>
      <point x="867.44" y="0.0"/>
      <point x="911.24" y="0.0" type="curve" smooth="yes"/>
      <point x="956.04" y="0.0"/>
      <point x="1001.12" y="27.12"/>
      <point x="1001.12" y="83.4" type="curve" smooth="yes"/>
      <point x="1001.12" y="909.28" type="line" smooth="yes"/>
      <point x="1001.12" y="966.04"/>
      <point x="957.56" y="993.4"/>
      <point x="913.0" y="993.4" type="curve" smooth="yes"/>
      <point x="868.2" y="993.4"/>
      <point x="823.36" y="964.52"/>
      <point x="823.36" y="909.28" type="curve" smooth="yes"/>
      <point x="823.36" y="408.44" type="line" smooth="yes"/>
      <point x="813.48" y="213.36"/>
      <point x="689.76" y="103.44"/>
      <point x="539.52" y="103.44" type="curve" smooth="yes"/>
      <point x="394.52" y="103.44"/>
      <point x="313.36" y="193.96"/>
      <point x="313.36" y="367.24" type="curve" smooth="yes"/>
      <point x="313.36" y="909.28" type="line" smooth="yes"/>
      <point x="313.36" y="966.04"/>
      <point x="269.04" y="993.4"/>
      <point x="224.72" y="993.4" type="curve" smooth="yes"/>
      <point x="179.92" y="993.4"/>
      <point x="135.6" y="966.04"/>
      <point x="135.6" y="909.28" type="curve" smooth="yes"/>
      <point x="135.6" y="369.24" type="line" smooth="yes"/>
      <point x="135.6" y="97.44"/>
      <point x="289.84" y="-18.08"/>
    </contour>
  </outline>
</glyph>
<glyph name="v" format="1">
  <advance width="1037"/>
  <unicode hex="0076"/>
  <outline>
    <contour>
      <point x="523" y="-1" type="curve"/>
      <point x="523" y="181" type="line"/>
      <point x="216" y="938" type="line" smooth="yes"/>
      <point x="170" y="1054"/>
      <point x="22" y="969"/>
      <point x="58" y="882" type="curve" smooth="yes"/>
      <point x="372" y="132" type="line" smooth="yes"/>
      <point x="410" y="40"/>
      <point x="445" y="-1"/>
    </contour>
    <contour>
      <point x="523" y="-1" type="line"/>
      <point x="601" y="-1"/>
      <point x="635" y="40"/>
      <point x="674" y="132" type="curve" smooth="yes"/>
      <point x="987" y="882" type="line" smooth="yes"/>
      <point x="1023" y="969"/>
      <point x="876" y="1054"/>
      <point x="830" y="938" type="curve" smooth="yes"/>
      <point x="523" y="181" type="line"/>
    </contour>
  </outline>
</glyph>
<glyph name="w" format="1">
  <advance width="1700"/>
  <unicode hex="0077"/>
  <outline>
    <contour>
      <point x="858" y="1004" type="move" name="top"/>
    </contour>
    <contour>
      <point x="476" y="0" type="curve" smooth="yes"/>
      <point x="528" y="0"/>
      <point x="574" y="30"/>
      <point x="601" y="108" type="curve" smooth="yes"/>
      <point x="859" y="824" type="line"/>
      <point x="859" y="993" type="line"/>
      <point x="804" y="993"/>
      <point x="763" y="960"/>
      <point x="740" y="895" type="curve" smooth="yes"/>
      <point x="489" y="189" type="line"/>
      <point x="239" y="934" type="line" smooth="yes"/>
      <point x="205" y="1036"/>
      <point x="47" y="991"/>
      <point x="85" y="882" type="curve" smooth="yes"/>
      <point x="360" y="98" type="line" smooth="yes"/>
      <point x="384" y="28"/>
      <point x="427" y="0"/>
    </contour>
    <contour>
      <point x="1241" y="0" type="curve" smooth="yes"/>
      <point x="1290" y="0"/>
      <point x="1333" y="28"/>
      <point x="1357" y="98" type="curve" smooth="yes"/>
      <point x="1632" y="882" type="line" smooth="yes"/>
      <point x="1670" y="991"/>
      <point x="1512" y="1036"/>
      <point x="1478" y="934" type="curve" smooth="yes"/>
      <point x="1228" y="189" type="line"/>
      <point x="977" y="895" type="line" smooth="yes"/>
      <point x="954" y="960"/>
      <point x="913" y="993"/>
      <point x="859" y="993" type="curve"/>
      <point x="859" y="824" type="line"/>
      <point x="1116" y="108" type="line" smooth="yes"/>
      <point x="1143" y="30"/>
      <point x="1189" y="0"/>
    </contour>
  </outline>
</glyph>
<glyph name="x" format="1">
  <advance width="1044"/>
  <unicode hex="0078"/>
  <outline>
    <contour>
      <point x="170" y="0" type="curve" smooth="yes"/>
      <point x="193" y="0"/>
      <point x="213" y="11"/>
      <point x="230" y="33" type="curve"/>
      <point x="526" y="405" type="line"/>
      <point x="616" y="495" type="line"/>
      <point x="919" y="875" type="line" smooth="yes"/>
      <point x="931" y="889"/>
      <point x="936" y="904"/>
      <point x="936" y="919" type="curve" smooth="yes"/>
      <point x="936" y="959"/>
      <point x="898" y="993"/>
      <point x="857" y="993" type="curve" smooth="yes"/>
      <point x="834" y="993"/>
      <point x="813" y="983"/>
      <point x="795" y="960" type="curve"/>
      <point x="512" y="606" type="line"/>
      <point x="425" y="517" type="line"/>
      <point x="102" y="120" type="line" smooth="yes"/>
      <point x="92" y="107"/>
      <point x="87" y="93"/>
      <point x="87" y="78" type="curve" smooth="yes"/>
      <point x="87" y="38"/>
      <point x="126" y="0"/>
    </contour>
    <contour>
      <point x="870" y="0" type="curve" smooth="yes"/>
      <point x="918" y="0"/>
      <point x="957" y="40"/>
      <point x="957" y="84" type="curve" smooth="yes"/>
      <point x="957" y="100"/>
      <point x="952" y="116"/>
      <point x="940" y="131" type="curve" smooth="yes"/>
      <point x="275" y="956" type="line" smooth="yes"/>
      <point x="254" y="982"/>
      <point x="229" y="993"/>
      <point x="205" y="993" type="curve" smooth="yes"/>
      <point x="157" y="993"/>
      <point x="118" y="954"/>
      <point x="118" y="908" type="curve" smooth="yes"/>
      <point x="118" y="892"/>
      <point x="122" y="876"/>
      <point x="135" y="860" type="curve" smooth="yes"/>
      <point x="800" y="37" type="line" smooth="yes"/>
      <point x="820" y="11"/>
      <point x="845" y="0"/>
    </contour>
  </outline>
</glyph>
<glyph name="y" format="1">
  <advance width="1040"/>
  <unicode hex="0079"/>
  <outline>
    <contour>
      <point x="566" y="1008" type="move" name="top"/>
    </contour>
    <contour>
      <point x="505" y="4" type="line"/>
      <point x="597" y="187" type="line"/>
      <point x="243" y="937" type="line" smooth="yes"/>
      <point x="192" y="1046"/>
      <point x="39" y="969"/>
      <point x="88" y="868" type="curve" smooth="yes"/>
    </contour>
    <contour>
      <point x="439" y="-340" type="curve" smooth="yes"/>
      <point x="1015" y="879" type="line" smooth="yes"/>
      <point x="1056" y="974"/>
      <point x="910" y="1049"/>
      <point x="857" y="940" type="curve" smooth="yes"/>
      <point x="283" y="-281" type="line" smooth="yes"/>
      <point x="235" y="-381"/>
      <point x="387" y="-449"/>
    </contour>
  </outline>
</glyph>
<glyph name="z" format="1">
  <advance width="939"/>
  <unicode hex="007A"/>
  <outline>
    <contour>
      <point x="480" y="1001" type="move" name="top"/>
    </contour>
    <contour>
      <point x="173" y="0" type="curve" smooth="yes"/>
      <point x="775" y="0" type="line" smooth="yes"/>
      <point x="823" y="0"/>
      <point x="848" y="35"/>
      <point x="848" y="70" type="curve" smooth="yes"/>
      <point x="848" y="104"/>
      <point x="823" y="139"/>
      <point x="775" y="139" type="curve" smooth="yes"/>
      <point x="292" y="139" type="line"/>
      <point x="828" y="847" type="line" smooth="yes"/>
      <point x="846" y="870"/>
      <point x="854" y="894"/>
      <point x="854" y="915" type="curve" smooth="yes"/>
      <point x="854" y="959"/>
      <point x="820" y="993"/>
      <point x="756" y="993" type="curve" smooth="yes"/>
      <point x="166" y="993" type="line" smooth="yes"/>
      <point x="119" y="993"/>
      <point x="96" y="959"/>
      <point x="96" y="924" type="curve" smooth="yes"/>
      <point x="96" y="889"/>
      <point x="118" y="856"/>
      <point x="166" y="856" type="curve" smooth="yes"/>
      <point x="641" y="856" type="line"/>
      <point x="105" y="147" type="line" smooth="yes"/>
      <point x="89" y="125"/>
      <point x="81" y="102"/>
      <point x="81" y="81" type="curve" smooth="yes"/>
      <point x="81" y="36"/>
      <point x="115" y="0"/>
    </contour>
  </outline>
</glyph>
<glyph name="braceleft" format="1">
  <advance width="632"/>
  <unicode hex="007B"/>
  <outline>
    <contour>
      <point x="429" y="-212" type="curve" smooth="yes"/>
      <point x="551" y="-212" type="line" smooth="yes"/>
      <point x="594" y="-212"/>
      <point x="613" y="-180"/>
      <point x="614" y="-144" type="curve" smooth="yes"/>
      <point x="614" y="-107"/>
      <point x="593" y="-74"/>
      <point x="551" y="-74" type="curve" smooth="yes"/>
      <point x="493" y="-74" type="line" smooth="yes"/>
      <point x="430" y="-74"/>
      <point x="408" y="-16"/>
      <point x="408" y="83" type="curve" smooth="yes"/>
      <point x="408" y="358" type="line" smooth="yes"/>
      <point x="408" y="544"/>
      <point x="290" y="618"/>
      <point x="260" y="631" type="curve"/>
      <point x="292" y="646"/>
      <point x="408" y="690"/>
      <point x="408" y="910" type="curve" smooth="yes"/>
      <point x="408" y="1183" type="line" smooth="yes"/>
      <point x="408" y="1284"/>
      <point x="431" y="1341"/>
      <point x="492" y="1341" type="curve" smooth="yes"/>
      <point x="549" y="1341" type="line" smooth="yes"/>
      <point x="593" y="1341"/>
      <point x="614" y="1373"/>
      <point x="614" y="1410" type="curve" smooth="yes"/>
      <point x="614" y="1449"/>
      <point x="591" y="1479"/>
      <point x="549" y="1479" type="curve" smooth="yes"/>
      <point x="429" y="1479" type="line" smooth="yes"/>
      <point x="326" y="1479"/>
      <point x="229" y="1382"/>
      <point x="229" y="1249" type="curve" smooth="yes"/>
      <point x="229" y="948" type="line" smooth="yes"/>
      <point x="229" y="802"/>
      <point x="206" y="717"/>
      <point x="87" y="705" type="curve"/>
      <point x="38" y="704"/>
      <point x="14" y="669"/>
      <point x="14" y="631" type="curve" smooth="yes"/>
      <point x="14" y="592"/>
      <point x="40" y="558"/>
      <point x="87" y="558" type="curve"/>
      <point x="208" y="545"/>
      <point x="229" y="460"/>
      <point x="229" y="318" type="curve" smooth="yes"/>
      <point x="229" y="18" type="line" smooth="yes"/>
      <point x="229" y="-121"/>
      <point x="331" y="-212"/>
    </contour>
  </outline>
</glyph>
<glyph name="bar" format="1">
  <advance width="455"/>
  <unicode hex="007C"/>
  <outline>
    <contour>
      <point x="227" y="-422" type="curve" smooth="yes"/>
      <point x="264" y="-422"/>
      <point x="301" y="-397"/>
      <point x="301" y="-347" type="curve" smooth="yes"/>
      <point x="301" y="1407" type="line" smooth="yes"/>
      <point x="301" y="1456"/>
      <point x="265" y="1480"/>
      <point x="228" y="1480" type="curve" smooth="yes"/>
      <point x="191" y="1480"/>
      <point x="154" y="1456"/>
      <point x="154" y="1407" type="curve" smooth="yes"/>
      <point x="154" y="-347" type="line" smooth="yes"/>
      <point x="154" y="-397"/>
      <point x="190" y="-422"/>
    </contour>
  </outline>
</glyph>
<glyph name="braceright" format="1">
  <advance width="632.36"/>
  <unicode hex="007D"/>
  <outline>
    <contour>
      <point x="79.8" y="-211.92" type="curve" smooth="yes"/>
      <point x="201.36" y="-211.92" type="line" smooth="yes"/>
      <point x="303.0" y="-211.92"/>
      <point x="400.92" y="-116.92"/>
      <point x="400.92" y="18.96" type="curve" smooth="yes"/>
      <point x="400.92" y="317.52" type="line" smooth="yes"/>
      <point x="400.92" y="461.6"/>
      <point x="423.12" y="545.92"/>
      <point x="544.84" y="557.96" type="curve"/>
      <point x="591.48" y="557.96"/>
      <point x="616.16" y="594.48"/>
      <point x="616.16" y="630.72" type="curve" smooth="yes"/>
      <point x="616.16" y="671.48"/>
      <point x="588.96" y="704.0"/>
      <point x="543.28" y="704.6" type="curve"/>
      <point x="422.28" y="717.0"/>
      <point x="400.92" y="803.04"/>
      <point x="400.92" y="947.56" type="curve" smooth="yes"/>
      <point x="400.92" y="1250.2" type="line" smooth="yes"/>
      <point x="400.92" y="1387.72"/>
      <point x="298.92" y="1479.0"/>
      <point x="201.36" y="1479.0" type="curve" smooth="yes"/>
      <point x="79.8" y="1479.0" type="line" smooth="yes"/>
      <point x="36.36" y="1479.0"/>
      <point x="16.2" y="1445.2"/>
      <point x="16.2" y="1410.24" type="curve" smooth="yes"/>
      <point x="16.2" y="1372.0"/>
      <point x="38.88" y="1341.0"/>
      <point x="81.0" y="1341.0" type="curve" smooth="yes"/>
      <point x="138.48" y="1341.0" type="line" smooth="yes"/>
      <point x="199.8" y="1341.0"/>
      <point x="222.44" y="1282.92"/>
      <point x="222.44" y="1184.64" type="curve" smooth="yes"/>
      <point x="222.44" y="907.56" type="line" smooth="yes"/>
      <point x="222.44" y="718.24"/>
      <point x="345.36" y="655.96"/>
      <point x="369.48" y="631.48" type="curve"/>
      <point x="339.32" y="616.64"/>
      <point x="222.44" y="543.68"/>
      <point x="222.44" y="357.52" type="curve" smooth="yes"/>
      <point x="222.44" y="80.56" type="line" smooth="yes"/>
      <point x="222.44" y="-18.32"/>
      <point x="198.84" y="-74.04"/>
      <point x="139.08" y="-74.04" type="curve" smooth="yes"/>
      <point x="79.8" y="-74.04" type="line" smooth="yes"/>
      <point x="36.0" y="-74.04"/>
      <point x="16.08" y="-108.44"/>
      <point x="16.08" y="-143.04" type="curve" smooth="yes"/>
      <point x="16.08" y="-180.32"/>
      <point x="37.92" y="-211.92"/>
    </contour>
  </outline>
</glyph>
<glyph name="asciitilde" format="1">
  <advance width="1334"/>
  <unicode hex="007E"/>
  <outline>
    <contour>
      <point x="770" y="1175" type="curve" smooth="yes"/>
      <point x="861" y="1175"/>
      <point x="913" y="1223"/>
      <point x="939" y="1301" type="curve" smooth="yes"/>
      <point x="956" y="1352"/>
      <point x="883" y="1398"/>
      <point x="845" y="1337" type="curve" smooth="yes"/>
      <point x="830" y="1312"/>
      <point x="805" y="1299"/>
      <point x="780" y="1299" type="curve" smooth="yes"/>
      <point x="714" y="1299"/>
      <point x="624" y="1369"/>
      <point x="528" y="1369" type="curve" smooth="yes"/>
      <point x="443" y="1369"/>
      <point x="390" y="1327"/>
      <point x="357" y="1248" type="curve" smooth="yes"/>
      <point x="331" y="1188"/>
      <point x="419" y="1156"/>
      <point x="449" y="1205" type="curve" smooth="yes"/>
      <point x="468" y="1237"/>
      <point x="495" y="1248"/>
      <point x="525" y="1248" type="curve" smooth="yes"/>
      <point x="595" y="1248"/>
      <point x="687" y="1175"/>
    </contour>
  </outline>
</glyph>
<glyph name="cent" format="1">
  <advance width="1035"/>
  <unicode hex="00A2"/>
  <outline>
    <contour>
      <point x="554" y="-268" type="curve" smooth="yes"/>
      <point x="581" y="-268"/>
      <point x="607" y="-251"/>
      <point x="607" y="-214" type="curve" smooth="yes"/>
      <point x="607" y="42" type="line"/>
      <point x="501" y="42" type="line"/>
      <point x="501" y="-214" type="line" smooth="yes"/>
      <point x="501" y="-250"/>
      <point x="528" y="-268"/>
    </contour>
    <contour>
      <point x="501" y="956" type="line"/>
      <point x="607" y="957" type="line"/>
      <point x="607" y="1213" type="line" smooth="yes"/>
      <point x="607" y="1249"/>
      <point x="581" y="1267"/>
      <point x="554" y="1267" type="curve" smooth="yes"/>
      <point x="528" y="1267"/>
      <point x="501" y="1248"/>
      <point x="501" y="1213" type="curve" smooth="yes"/>
    </contour>
    <component base="c"/>
  </outline>
</glyph>
<glyph name="sterling" format="1">
  <advance width="1366"/>
  <unicode hex="00A3"/>
  <outline>
    <contour>
      <point x="228" y="-1" type="curve" smooth="yes"/>
      <point x="1081" y="-1" type="line" smooth="yes"/>
      <point x="1136" y="-1"/>
      <point x="1136" y="150"/>
      <point x="1081" y="150" type="curve" smooth="yes"/>
      <point x="508" y="150" type="line"/>
      <point x="508" y="749" type="line"/>
      <point x="871" y="749" type="line" smooth="yes"/>
      <point x="925" y="749"/>
      <point x="920" y="882"/>
      <point x="872" y="882" type="curve" smooth="yes"/>
      <point x="508" y="882" type="line"/>
      <point x="508" y="999" type="line" smooth="yes"/>
      <point x="508" y="1224"/>
      <point x="533" y="1302"/>
      <point x="739" y="1302" type="curve" smooth="yes"/>
      <point x="825" y="1302"/>
      <point x="898" y="1287"/>
      <point x="974" y="1274" type="curve" smooth="yes"/>
      <point x="1021" y="1266"/>
      <point x="1040" y="1392"/>
      <point x="1012" y="1401" type="curve" smooth="yes"/>
      <point x="926" y="1425"/>
      <point x="813" y="1444"/>
      <point x="718" y="1444" type="curve" smooth="yes"/>
      <point x="485" y="1444"/>
      <point x="326" y="1344"/>
      <point x="326" y="1084" type="curve" smooth="yes"/>
      <point x="326" y="882" type="line"/>
      <point x="193" y="882" type="line" smooth="yes"/>
      <point x="143" y="882"/>
      <point x="146" y="749"/>
      <point x="193" y="749" type="curve" smooth="yes"/>
      <point x="326" y="749" type="line"/>
      <point x="326" y="148" type="line"/>
      <point x="225" y="148" type="line" smooth="yes"/>
      <point x="173" y="148"/>
      <point x="174" y="-1"/>
    </contour>
  </outline>
</glyph>
<glyph name="currency" format="1">
  <advance width="1172.8"/>
  <unicode hex="00A4"/>
  <outline>
    <contour>
      <point x="205.24" y="158.76" type="curve" smooth="yes"/>
      <point x="218.24" y="158.76"/>
      <point x="230.96" y="163.76"/>
      <point x="242.44" y="175.24" type="curve" smooth="yes"/>
      <point x="329.2" y="262.24" type="line"/>
      <point x="397.2" y="213.72"/>
      <point x="484.48" y="184.68"/>
      <point x="591.52" y="184.68" type="curve" smooth="yes"/>
      <point x="699.56" y="184.68"/>
      <point x="786.08" y="213.2"/>
      <point x="854.08" y="263.24" type="curve"/>
      <point x="942.6" y="175.24" type="line" smooth="yes"/>
      <point x="953.08" y="164.52"/>
      <point x="964.8" y="158.76"/>
      <point x="976.76" y="158.76" type="curve" smooth="yes"/>
      <point x="1005.72" y="158.76"/>
      <point x="1032.2" y="182.96"/>
      <point x="1032.2" y="212.68" type="curve" smooth="yes"/>
      <point x="1032.2" y="225.4"/>
      <point x="1027.96" y="238.64"/>
      <point x="1016.48" y="250.12" type="curve" smooth="yes"/>
      <point x="930.2" y="334.4" type="line"/>
      <point x="990.2" y="410.4"/>
      <point x="1020.72" y="505.68"/>
      <point x="1020.72" y="602.44" type="curve" smooth="yes"/>
      <point x="1020.72" y="696.72"/>
      <point x="992.2" y="790.24"/>
      <point x="932.44" y="866.24" type="curve"/>
      <point x="1016.48" y="949.28" type="line" smooth="yes"/>
      <point x="1027.72" y="960.52"/>
      <point x="1032.2" y="974.24"/>
      <point x="1032.2" y="985.72" type="curve" smooth="yes"/>
      <point x="1032.2" y="1014.68"/>
      <point x="1007.24" y="1039.64"/>
      <point x="979.04" y="1039.64" type="curve" smooth="yes"/>
      <point x="965.56" y="1039.64"/>
      <point x="953.08" y="1034.64"/>
      <point x="941.6" y="1023.16" type="curve" smooth="yes"/>
      <point x="858.32" y="939.64" type="line"/>
      <point x="790.32" y="990.16"/>
      <point x="701.8" y="1021.44"/>
      <point x="591.52" y="1021.44" type="curve" smooth="yes"/>
      <point x="480.48" y="1021.44"/>
      <point x="392.96" y="989.92"/>
      <point x="324.96" y="939.64" type="curve"/>
      <point x="242.44" y="1023.16" type="line" smooth="yes"/>
      <point x="230.96" y="1034.64"/>
      <point x="218.48" y="1039.64"/>
      <point x="205.0" y="1039.64" type="curve" smooth="yes"/>
      <point x="177.04" y="1039.64"/>
      <point x="152.08" y="1014.68"/>
      <point x="152.08" y="986.48" type="curve" smooth="yes"/>
      <point x="152.08" y="973.0"/>
      <point x="157.32" y="960.52"/>
      <point x="168.56" y="949.28" type="curve" smooth="yes"/>
      <point x="250.84" y="866.24" type="line"/>
      <point x="191.56" y="790.48"/>
      <point x="162.56" y="697.72"/>
      <point x="162.56" y="602.44" type="curve" smooth="yes"/>
      <point x="162.56" y="505.68"/>
      <point x="192.32" y="410.4"/>
      <point x="253.08" y="334.64" type="curve"/>
      <point x="168.56" y="250.12" type="line" smooth="yes"/>
      <point x="157.08" y="238.64"/>
      <point x="152.08" y="226.16"/>
      <point x="152.08" y="212.68" type="curve" smooth="yes"/>
      <point x="152.08" y="183.72"/>
      <point x="177.04" y="158.76"/>
    </contour>
    <contour>
      <point x="591.52" y="289.08" type="curve" smooth="yes"/>
      <point x="389.96" y="289.08"/>
      <point x="288.92" y="445.88"/>
      <point x="288.92" y="602.44" type="curve" smooth="yes"/>
      <point x="288.92" y="758.24"/>
      <point x="389.96" y="916.8"/>
      <point x="591.52" y="916.8" type="curve" smooth="yes"/>
      <point x="793.08" y="916.8"/>
      <point x="894.36" y="758.24"/>
      <point x="894.36" y="602.44" type="curve" smooth="yes"/>
      <point x="894.36" y="445.88"/>
      <point x="793.08" y="289.08"/>
    </contour>
  </outline>
</glyph>
<glyph name="yen" format="1">
  <advance width="1196"/>
  <unicode hex="00A5"/>
  <outline>
    <contour>
      <point x="199" y="298" type="curve" smooth="yes"/>
      <point x="1062" y="298" type="line" smooth="yes"/>
      <point x="1103" y="298"/>
      <point x="1123" y="328"/>
      <point x="1123" y="360" type="curve" smooth="yes"/>
      <point x="1123" y="391"/>
      <point x="1103" y="423"/>
      <point x="1062" y="423" type="curve" smooth="yes"/>
      <point x="199" y="423" type="line" smooth="yes"/>
      <point x="158" y="423"/>
      <point x="139" y="391"/>
      <point x="139" y="362" type="curve" smooth="yes"/>
      <point x="139" y="330"/>
      <point x="159" y="298"/>
    </contour>
    <contour>
      <point x="199" y="543" type="curve" smooth="yes"/>
      <point x="1062" y="543" type="line" smooth="yes"/>
      <point x="1103" y="543"/>
      <point x="1123" y="574"/>
      <point x="1123" y="605" type="curve" smooth="yes"/>
      <point x="1123" y="636"/>
      <point x="1103" y="668"/>
      <point x="1062" y="668" type="curve" smooth="yes"/>
      <point x="199" y="668" type="line" smooth="yes"/>
      <point x="158" y="668"/>
      <point x="139" y="636"/>
      <point x="139" y="607" type="curve" smooth="yes"/>
      <point x="139" y="575"/>
      <point x="159" y="543"/>
    </contour>
    <component base="Y"/>
  </outline>
</glyph>
<glyph name="brokenbar" format="1">
  <advance width="455.0"/>
  <unicode hex="00A6"/>
  <outline>
    <contour>
      <point x="218.92" y="-108.32" type="curve" smooth="yes"/>
      <point x="269.28" y="-108.32"/>
      <point x="291.0" y="-69.44"/>
      <point x="291.0" y="-22.56" type="curve" smooth="yes"/>
      <point x="291.0" y="515.0" type="line" smooth="yes"/>
      <point x="291.0" y="568.72"/>
      <point x="265.2" y="601.52"/>
      <point x="219.92" y="601.52" type="curve" smooth="yes"/>
      <point x="179.72" y="601.52"/>
      <point x="147.84" y="573.28"/>
      <point x="147.84" y="530.2" type="curve" smooth="yes"/>
      <point x="147.84" y="-22.56" type="line" smooth="yes"/>
      <point x="147.84" y="-76.28"/>
      <point x="173.64" y="-108.32"/>
    </contour>
    <contour>
      <point x="220.16" y="805.08" type="curve" smooth="yes"/>
      <point x="269.76" y="805.08"/>
      <point x="291.48" y="843.96"/>
      <point x="291.48" y="890.84" type="curve" smooth="yes"/>
      <point x="291.48" y="1440.68" type="line" smooth="yes"/>
      <point x="291.48" y="1492.12"/>
      <point x="265.68" y="1525.68"/>
      <point x="220.4" y="1525.68" type="curve" smooth="yes"/>
      <point x="180.2" y="1525.68"/>
      <point x="148.32" y="1499.72"/>
      <point x="148.32" y="1453.6" type="curve" smooth="yes"/>
      <point x="148.32" y="890.84" type="line" smooth="yes"/>
      <point x="148.32" y="837.12"/>
      <point x="174.12" y="805.08"/>
    </contour>
  </outline>
</glyph>
<glyph name="section" format="1">
  <advance width="1184"/>
  <unicode hex="00A7"/>
  <outline>
    <contour>
      <point x="546" y="-32" type="curve" smooth="yes"/>
      <point x="761" y="-32"/>
      <point x="950" y="67"/>
      <point x="950" y="281" type="curve" smooth="yes"/>
      <point x="950" y="417"/>
      <point x="855" y="489"/>
      <point x="735" y="536" type="curve"/>
      <point x="845" y="582"/>
      <point x="953" y="672"/>
      <point x="953" y="794" type="curve" smooth="yes"/>
      <point x="953" y="1066"/>
      <point x="448" y="1036"/>
      <point x="448" y="1233" type="curve" smooth="yes"/>
      <point x="448" y="1346"/>
      <point x="570" y="1375"/>
      <point x="665" y="1375" type="curve" smooth="yes"/>
      <point x="726" y="1375"/>
      <point x="817" y="1346"/>
      <point x="847" y="1342" type="curve"/>
      <point x="886" y="1339"/>
      <point x="920" y="1374"/>
      <point x="920" y="1412" type="curve" smooth="yes"/>
      <point x="920" y="1437"/>
      <point x="906" y="1462"/>
      <point x="872" y="1472" type="curve" smooth="yes"/>
      <point x="796" y="1493"/>
      <point x="715" y="1510"/>
      <point x="633" y="1510" type="curve" smooth="yes"/>
      <point x="426" y="1510"/>
      <point x="250" y="1432"/>
      <point x="250" y="1228" type="curve" smooth="yes"/>
      <point x="250" y="1102"/>
      <point x="334" y="1050"/>
      <point x="440" y="983" type="curve"/>
      <point x="330" y="940"/>
      <point x="218" y="849"/>
      <point x="218" y="731" type="curve" smooth="yes"/>
      <point x="218" y="415"/>
      <point x="754" y="491"/>
      <point x="754" y="285" type="curve" smooth="yes"/>
      <point x="754" y="152"/>
      <point x="626" y="104"/>
      <point x="512" y="104" type="curve" smooth="yes"/>
      <point x="419" y="104"/>
      <point x="351" y="116"/>
      <point x="294" y="137" type="curve" smooth="yes"/>
      <point x="235" y="156"/>
      <point x="204" y="114"/>
      <point x="204" y="73" type="curve" smooth="yes"/>
      <point x="204" y="48"/>
      <point x="218" y="24"/>
      <point x="252" y="13" type="curve" smooth="yes"/>
      <point x="344" y="-18"/>
      <point x="446" y="-32"/>
    </contour>
    <contour>
      <point x="598" y="585" type="curve"/>
      <point x="520" y="618"/>
      <point x="393" y="660"/>
      <point x="393" y="752" type="curve" smooth="yes"/>
      <point x="393" y="847"/>
      <point x="474" y="885"/>
      <point x="554" y="935" type="curve"/>
      <point x="641" y="892"/>
      <point x="781" y="866"/>
      <point x="781" y="767" type="curve" smooth="yes"/>
      <point x="781" y="673"/>
      <point x="678" y="630"/>
    </contour>
  </outline>
</glyph>
<glyph name="dieresis" format="1">
  <advance width="569.0"/>
  <unicode hex="00A8"/>
  <outline>
    <contour>
      <point x="287.0" y="1040.0" type="move" name="_top"/>
    </contour>
    <contour>
      <point x="91.08" y="1203.56" type="curve" smooth="yes"/>
      <point x="159.52" y="1203.56"/>
      <point x="200.36" y="1252.36"/>
      <point x="200.36" y="1304.32" type="curve" smooth="yes"/>
      <point x="200.36" y="1355.4"/>
      <point x="159.52" y="1403.44"/>
      <point x="91.08" y="1403.44" type="curve" smooth="yes"/>
      <point x="23.04" y="1403.44"/>
      <point x="-17.44" y="1355.04"/>
      <point x="-17.44" y="1304.32" type="curve" smooth="yes"/>
      <point x="-17.44" y="1251.88"/>
      <point x="23.88" y="1203.56"/>
    </contour>
    <contour>
      <point x="478.92" y="1203.56" type="curve" smooth="yes"/>
      <point x="546.48" y="1203.56"/>
      <point x="587.32" y="1252.36"/>
      <point x="587.32" y="1304.32" type="curve" smooth="yes"/>
      <point x="587.32" y="1355.64"/>
      <point x="546.12" y="1403.44"/>
      <point x="478.92" y="1403.44" type="curve" smooth="yes"/>
      <point x="409.64" y="1403.44"/>
      <point x="369.52" y="1354.8"/>
      <point x="369.52" y="1304.32" type="curve" smooth="yes"/>
      <point x="369.52" y="1251.88"/>
      <point x="410.72" y="1203.56"/>
    </contour>
  </outline>
</glyph>
<glyph name="copyright" format="1">
  <advance width="1664.64"/>
  <unicode hex="00A9"/>
  <outline>
    <contour>
      <point x="851.6" y="395.88" type="curve" smooth="yes"/>
      <point x="931.8" y="395.88"/>
      <point x="1109.28" y="432.4"/>
      <point x="1109.28" y="505.84" type="curve" smooth="yes"/>
      <point x="1109.28" y="530.56"/>
      <point x="1090.56" y="551.76"/>
      <point x="1067.08" y="551.76" type="curve" smooth="yes"/>
      <point x="1059.04" y="551.76"/>
      <point x="1052.8" y="549.76"/>
      <point x="1047.08" y="546.76" type="curve"/>
      <point x="988.08" y="515.48"/>
      <point x="931.08" y="497.72"/>
      <point x="871.32" y="497.72" type="curve" smooth="yes"/>
      <point x="722.48" y="497.72"/>
      <point x="590.88" y="601.32"/>
      <point x="590.88" y="794.88" type="curve" smooth="yes"/>
      <point x="590.88" y="993.68"/>
      <point x="714.72" y="1080.28"/>
      <point x="861.56" y="1080.28" type="curve" smooth="yes"/>
      <point x="924.6" y="1080.28"/>
      <point x="993.4" y="1063.52"/>
      <point x="1054.16" y="1031.48" type="curve"/>
      <point x="1062.16" y="1028.48"/>
      <point x="1068.4" y="1026.48"/>
      <point x="1073.4" y="1026.48" type="curve" smooth="yes"/>
      <point x="1101.36" y="1026.48"/>
      <point x="1119.84" y="1053.44"/>
      <point x="1119.84" y="1079.4" type="curve" smooth="yes"/>
      <point x="1119.84" y="1148.36"/>
      <point x="924.04" y="1183.12"/>
      <point x="849.08" y="1183.12" type="curve" smooth="yes"/>
      <point x="645.08" y="1183.12"/>
      <point x="463.84" y="1052.36"/>
      <point x="463.84" y="792.88" type="curve" smooth="yes"/>
      <point x="463.84" y="532.92"/>
      <point x="651.36" y="395.88"/>
    </contour>
    <contour>
      <point x="841.08" y="235.4" type="curve" smooth="yes"/>
      <point x="509.8" y="235.4"/>
      <point x="267.56" y="467.84"/>
      <point x="267.56" y="787.36" type="curve" smooth="yes"/>
      <point x="267.56" y="1105.12"/>
      <point x="509.8" y="1338.32"/>
      <point x="841.08" y="1338.32" type="curve" smooth="yes"/>
      <point x="1170.12" y="1338.32"/>
      <point x="1410.08" y="1105.12"/>
      <point x="1410.08" y="787.36" type="curve" smooth="yes"/>
      <point x="1410.08" y="467.84"/>
      <point x="1170.12" y="235.4"/>
    </contour>
    <contour>
      <point x="841.08" y="120.28" type="curve" smooth="yes"/>
      <point x="1223.72" y="120.28"/>
      <point x="1534.88" y="419.2"/>
      <point x="1534.88" y="787.36" type="curve" smooth="yes"/>
      <point x="1534.88" y="1154.76"/>
      <point x="1223.72" y="1454.92"/>
      <point x="841.08" y="1454.92" type="curve" smooth="yes"/>
      <point x="455.92" y="1454.92"/>
      <point x="143.52" y="1154.76"/>
      <point x="143.52" y="787.36" type="curve" smooth="yes"/>
      <point x="143.52" y="419.2"/>
      <point x="455.92" y="120.28"/>
    </contour>
  </outline>
</glyph>
<glyph name="ordfeminine" format="1">
  <advance width="1052"/>
  <unicode hex="00AA"/>
  <outline>
    <contour>
      <point x="400" y="705" type="curve" smooth="yes"/>
      <point x="505" y="705"/>
      <point x="610" y="758"/>
      <point x="652" y="852" type="curve"/>
      <point x="653" y="783" type="line" smooth="yes"/>
      <point x="653" y="745"/>
      <point x="684" y="727"/>
      <point x="714" y="727" type="curve" smooth="yes"/>
      <point x="746" y="727"/>
      <point x="777" y="746"/>
      <point x="777" y="785" type="curve" smooth="yes"/>
      <point x="778" y="1246" type="line" smooth="yes"/>
      <point x="778" y="1433"/>
      <point x="663" y="1510"/>
      <point x="484" y="1510" type="curve" smooth="yes"/>
      <point x="359" y="1510"/>
      <point x="259" y="1476"/>
      <point x="199" y="1411" type="curve"/>
      <point x="190" y="1401"/>
      <point x="184" y="1391"/>
      <point x="184" y="1380" type="curve" smooth="yes"/>
      <point x="184" y="1356"/>
      <point x="203" y="1334"/>
      <point x="231" y="1334" type="curve" smooth="yes"/>
      <point x="239" y="1334"/>
      <point x="248" y="1335"/>
      <point x="257" y="1341" type="curve" smooth="yes"/>
      <point x="319" y="1377"/>
      <point x="374" y="1406"/>
      <point x="480" y="1406" type="curve" smooth="yes"/>
      <point x="582" y="1406"/>
      <point x="651" y="1368"/>
      <point x="651" y="1256" type="curve" smooth="yes"/>
      <point x="651" y="1193" type="line"/>
      <point x="623" y="1195"/>
      <point x="591" y="1196"/>
      <point x="565" y="1196" type="curve" smooth="yes"/>
      <point x="310" y="1196"/>
      <point x="138" y="1126"/>
      <point x="138" y="938" type="curve" smooth="yes"/>
      <point x="138" y="791"/>
      <point x="252" y="705"/>
    </contour>
    <contour>
      <point x="431" y="800" type="curve"/>
      <point x="342" y="803"/>
      <point x="270" y="846"/>
      <point x="270" y="943" type="curve" smooth="yes"/>
      <point x="270" y="1090"/>
      <point x="451" y="1102"/>
      <point x="651" y="1102" type="curve"/>
      <point x="651" y="1032" type="line"/>
      <point x="644" y="879"/>
      <point x="551" y="803"/>
    </contour>
  </outline>
</glyph>
<glyph name="guillemotleft" format="1">
  <advance width="1168"/>
  <unicode hex="00AB"/>
  <outline>
    <contour>
      <point x="473" y="102" type="curve" smooth="yes"/>
      <point x="509" y="102"/>
      <point x="537" y="127"/>
      <point x="537" y="162" type="curve" smooth="yes"/>
      <point x="537" y="172"/>
      <point x="534" y="182"/>
      <point x="531" y="190" type="curve" smooth="yes"/>
      <point x="366" y="542" type="line"/>
      <point x="530" y="892" type="line" smooth="yes"/>
      <point x="534" y="902"/>
      <point x="537" y="913"/>
      <point x="537" y="921" type="curve" smooth="yes"/>
      <point x="537" y="956"/>
      <point x="509" y="982"/>
      <point x="474" y="982" type="curve" smooth="yes"/>
      <point x="447" y="982"/>
      <point x="419" y="967"/>
      <point x="399" y="931" type="curve" smooth="yes"/>
      <point x="182" y="542" type="line"/>
      <point x="397" y="156" type="line" smooth="yes"/>
      <point x="419" y="117"/>
      <point x="446" y="102"/>
    </contour>
    <contour>
      <point x="873" y="102" type="curve" smooth="yes"/>
      <point x="909" y="102"/>
      <point x="938" y="127"/>
      <point x="938" y="163" type="curve" smooth="yes"/>
      <point x="937" y="173"/>
      <point x="935" y="182"/>
      <point x="931" y="190" type="curve" smooth="yes"/>
      <point x="767" y="542" type="line"/>
      <point x="930" y="892" type="line" smooth="yes"/>
      <point x="934" y="901"/>
      <point x="938" y="911"/>
      <point x="938" y="921" type="curve" smooth="yes"/>
      <point x="938" y="956"/>
      <point x="908" y="982"/>
      <point x="874" y="982" type="curve" smooth="yes"/>
      <point x="848" y="982"/>
      <point x="820" y="967"/>
      <point x="799" y="931" type="curve" smooth="yes"/>
      <point x="581" y="542" type="line"/>
      <point x="797" y="156" type="line" smooth="yes"/>
      <point x="818" y="117"/>
      <point x="847" y="102"/>
    </contour>
  </outline>
</glyph>
<glyph name="logicalnot" format="1">
  <advance width="1334"/>
  <unicode hex="00AC"/>
  <outline>
    <contour>
      <point x="1107" y="230" type="curve" smooth="yes"/>
      <point x="1143" y="230"/>
      <point x="1180" y="253"/>
      <point x="1180" y="301" type="curve" smooth="yes"/>
      <point x="1180" y="720" type="line" smooth="yes"/>
      <point x="1180" y="757"/>
      <point x="1143" y="793"/>
      <point x="1106" y="793" type="curve" smooth="yes"/>
      <point x="222" y="793" type="line" smooth="yes"/>
      <point x="176" y="793"/>
      <point x="156" y="757"/>
      <point x="156" y="721" type="curve" smooth="yes"/>
      <point x="156" y="683"/>
      <point x="176" y="648"/>
      <point x="222" y="648" type="curve" smooth="yes"/>
      <point x="1034" y="648" type="line"/>
      <point x="1034" y="301" type="line" smooth="yes"/>
      <point x="1034" y="253"/>
      <point x="1070" y="230"/>
    </contour>
  </outline>
</glyph>
<glyph name="registered" format="1">
  <advance width="1666.36"/>
  <unicode hex="00AE"/>
  <outline>
    <contour>
      <point x="638.84" y="388.6" type="curve" smooth="yes"/>
      <point x="668.8" y="388.6"/>
      <point x="699.0" y="407.32"/>
      <point x="699.0" y="443.76" type="curve" smooth="yes"/>
      <point x="699.0" y="728.16" type="line"/>
      <point x="842.68" y="728.16" type="line"/>
      <point x="1044.6" y="413.28" type="line" smooth="yes"/>
      <point x="1083.42857143" y="351.605714286"/>
      <point x="1175.23272727" y="414.36"/>
      <point x="1139.92" y="469.96" type="curve" smooth="yes"/>
      <point x="959.0" y="729.64" type="line"/>
      <point x="1089.52" y="743.36"/>
      <point x="1187.08" y="787.8"/>
      <point x="1187.08" y="934.36" type="curve" smooth="yes"/>
      <point x="1187.08" y="1071.76"/>
      <point x="1115.16" y="1140.76"/>
      <point x="909.24" y="1140.76" type="curve" smooth="yes"/>
      <point x="656.6" y="1140.76" type="line" smooth="yes"/>
      <point x="602.88" y="1140.76"/>
      <point x="580.68" y="1100.48"/>
      <point x="580.68" y="1062.4" type="curve" smooth="yes"/>
      <point x="580.68" y="443.76" type="line" smooth="yes"/>
      <point x="580.68" y="406.08"/>
      <point x="609.64" y="388.6"/>
    </contour>
    <contour>
      <point x="699.0" y="826.28" type="curve"/>
      <point x="699.0" y="1040.88" type="line"/>
      <point x="891.68" y="1040.88" type="line" smooth="yes"/>
      <point x="983.64" y="1040.88"/>
      <point x="1062.24" y="1025.92"/>
      <point x="1062.24" y="939.08" type="curve" smooth="yes"/>
      <point x="1062.24" y="830.92"/>
      <point x="979.08" y="826.04"/>
      <point x="890.12" y="826.04" type="curve" smooth="yes"/>
      <point x="876.25448" y="826.04"/>
      <point x="713.05344" y="827.10656"/>
    </contour>
    <contour>
      <point x="838.32" y="202.32" type="curve" smooth="yes"/>
      <point x="503.52" y="202.32"/>
      <point x="259.04" y="438.52"/>
      <point x="259.04" y="760.8" type="curve" smooth="yes"/>
      <point x="259.04" y="1082.32"/>
      <point x="503.52" y="1318.28"/>
      <point x="838.32" y="1318.28" type="curve" smooth="yes"/>
      <point x="1171.12" y="1318.28"/>
      <point x="1414.84" y="1082.32"/>
      <point x="1414.84" y="760.8" type="curve" smooth="yes"/>
      <point x="1414.84" y="438.52"/>
      <point x="1171.12" y="202.32"/>
    </contour>
    <contour>
      <point x="838.32" y="87.96" type="curve" smooth="yes"/>
      <point x="1225.72" y="87.96"/>
      <point x="1543.4" y="392.64"/>
      <point x="1543.4" y="760.8" type="curve" smooth="yes"/>
      <point x="1543.4" y="1132.96"/>
      <point x="1225.72" y="1437.88"/>
      <point x="838.32" y="1437.88" type="curve" smooth="yes"/>
      <point x="448.4" y="1437.88"/>
      <point x="130.24" y="1132.96"/>
      <point x="130.24" y="760.8" type="curve" smooth="yes"/>
      <point x="130.24" y="392.64"/>
      <point x="448.4" y="87.96"/>
    </contour>
  </outline>
</glyph>
<glyph name="macron" format="1">
  <advance width="569"/>
  <unicode hex="00AF"/>
  <outline>
    <contour>
      <point x="289" y="1040" type="move" name="_top"/>
    </contour>
    <contour>
      <point x="291" y="1322" type="move" name="_mid"/>
    </contour>
    <contour>
      <point x="37" y="1263" type="curve" smooth="yes"/>
      <point x="538" y="1263" type="line" smooth="yes"/>
      <point x="583" y="1263"/>
      <point x="605" y="1291"/>
      <point x="605" y="1327" type="curve" smooth="yes"/>
      <point x="605" y="1361"/>
      <point x="583" y="1391"/>
      <point x="538" y="1391" type="curve" smooth="yes"/>
      <point x="37" y="1391" type="line" smooth="yes"/>
      <point x="-10" y="1391"/>
      <point x="-33" y="1361"/>
      <point x="-33" y="1327" type="curve" smooth="yes"/>
      <point x="-33" y="1291"/>
      <point x="-10" y="1263"/>
    </contour>
  </outline>
</glyph>
<glyph name="degree" format="1">
  <advance width="819.0"/>
  <unicode hex="00B0"/>
  <outline>
    <contour>
      <point x="410.0" y="921.8" type="curve" smooth="yes"/>
      <point x="294.12" y="921.8"/>
      <point x="210.04" y="1002.12"/>
      <point x="210.04" y="1114.24" type="curve" smooth="yes"/>
      <point x="210.04" y="1223.36"/>
      <point x="292.88" y="1307.68"/>
      <point x="408.24" y="1307.68" type="curve" smooth="yes"/>
      <point x="522.36" y="1307.68"/>
      <point x="609.96" y="1223.36"/>
      <point x="609.96" y="1114.24" type="curve" smooth="yes"/>
      <point x="609.96" y="1002.12"/>
      <point x="523.12" y="921.8"/>
    </contour>
    <contour>
      <point x="410.0" y="820.24" type="curve" smooth="yes"/>
      <point x="576.52" y="820.24"/>
      <point x="715.28" y="951.24"/>
      <point x="715.28" y="1114.24" type="curve" smooth="yes"/>
      <point x="715.28" y="1276.48"/>
      <point x="576.52" y="1409.0"/>
      <point x="410.0" y="1409.0" type="curve" smooth="yes"/>
      <point x="239.48" y="1409.0"/>
      <point x="104.72" y="1276.48"/>
      <point x="104.72" y="1114.24" type="curve" smooth="yes"/>
      <point x="104.72" y="951.24"/>
      <point x="241.24" y="820.24"/>
    </contour>
  </outline>
</glyph>
<glyph name="plusminus" format="1">
  <advance width="1334.0"/>
  <unicode hex="00B1"/>
  <outline>
    <contour>
      <point x="665.12" y="218.24" type="curve" smooth="yes"/>
      <point x="702.04" y="218.24"/>
      <point x="739.72" y="241.68"/>
      <point x="739.72" y="287.32" type="curve" smooth="yes"/>
      <point x="739.72" y="532.72" type="line"/>
      <point x="1106.52" y="532.72" type="line" smooth="yes"/>
      <point x="1153.92" y="532.72"/>
      <point x="1178.36" y="568.64"/>
      <point x="1178.36" y="603.56" type="curve" smooth="yes"/>
      <point x="1178.36" y="640.48"/>
      <point x="1154.16" y="674.4"/>
      <point x="1106.52" y="674.4" type="curve" smooth="yes"/>
      <point x="739.72" y="674.4" type="line"/>
      <point x="739.72" y="922.56" type="line" smooth="yes"/>
      <point x="739.72" y="968.96"/>
      <point x="704.04" y="992.16"/>
      <point x="666.88" y="992.16" type="curve" smooth="yes"/>
      <point x="630.2" y="992.16"/>
      <point x="593.28" y="968.2"/>
      <point x="593.28" y="922.56" type="curve" smooth="yes"/>
      <point x="593.28" y="674.4" type="line"/>
      <point x="227.48" y="674.4" type="line" smooth="yes"/>
      <point x="179.84" y="674.4"/>
      <point x="156.64" y="639.72"/>
      <point x="156.64" y="604.32" type="curve" smooth="yes"/>
      <point x="156.64" y="567.88"/>
      <point x="180.6" y="532.72"/>
      <point x="227.48" y="532.72" type="curve" smooth="yes"/>
      <point x="593.28" y="532.72" type="line"/>
      <point x="593.28" y="287.32" type="line" smooth="yes"/>
      <point x="593.28" y="240.68"/>
      <point x="628.2" y="218.24"/>
    </contour>
    <contour>
      <point x="227.48" y="0.0" type="curve" smooth="yes"/>
      <point x="1106.52" y="0.0" type="line" smooth="yes"/>
      <point x="1153.92" y="0.0"/>
      <point x="1179.12" y="35.92"/>
      <point x="1179.12" y="70.84" type="curve" smooth="yes"/>
      <point x="1179.12" y="107.76"/>
      <point x="1155.68" y="141.68"/>
      <point x="1106.52" y="141.68" type="curve" smooth="yes"/>
      <point x="227.48" y="141.68" type="line" smooth="yes"/>
      <point x="179.84" y="141.68"/>
      <point x="155.88" y="107.76"/>
      <point x="155.88" y="70.84" type="curve" smooth="yes"/>
      <point x="155.88" y="35.92"/>
      <point x="179.84" y="0.0"/>
    </contour>
  </outline>
</glyph>
<glyph name="twosuperior" format="1">
  <advance width="747"/>
  <unicode hex="00B2"/>
  <outline>
    <contour>
      <point x="163" y="573" type="curve" smooth="yes"/>
      <point x="596" y="573" type="line" smooth="yes"/>
      <point x="627" y="573"/>
      <point x="642" y="596"/>
      <point x="642" y="619" type="curve" smooth="yes"/>
      <point x="642" y="642"/>
      <point x="626" y="665"/>
      <point x="596" y="665" type="curve" smooth="yes"/>
      <point x="222" y="665" type="line"/>
      <point x="377" y="797"/>
      <point x="633" y="1026"/>
      <point x="633" y="1208" type="curve" smooth="yes"/>
      <point x="633" y="1341"/>
      <point x="515" y="1410"/>
      <point x="378" y="1410" type="curve" smooth="yes"/>
      <point x="282" y="1410"/>
      <point x="135" y="1354"/>
      <point x="135" y="1299" type="curve" smooth="yes"/>
      <point x="135" y="1278"/>
      <point x="152" y="1260"/>
      <point x="177" y="1260" type="curve" smooth="yes"/>
      <point x="188" y="1260"/>
      <point x="199" y="1263"/>
      <point x="209" y="1269" type="curve" smooth="yes"/>
      <point x="249" y="1292"/>
      <point x="309" y="1317"/>
      <point x="368" y="1317" type="curve" smooth="yes"/>
      <point x="443" y="1317"/>
      <point x="516" y="1276"/>
      <point x="516" y="1198" type="curve" smooth="yes"/>
      <point x="516" y="1073"/>
      <point x="288" y="850"/>
      <point x="169" y="743" type="curve"/>
      <point x="122" y="697"/>
      <point x="88" y="666"/>
      <point x="88" y="630" type="curve" smooth="yes"/>
      <point x="88" y="597"/>
      <point x="111" y="573"/>
    </contour>
  </outline>
</glyph>
<glyph name="threesuperior" format="1">
  <advance width="796"/>
  <unicode hex="00B3"/>
  <outline>
    <contour>
      <point x="397" y="541" type="curve" smooth="yes"/>
      <point x="546" y="541"/>
      <point x="674" y="615"/>
      <point x="674" y="770" type="curve" smooth="yes"/>
      <point x="674" y="882"/>
      <point x="605" y="962"/>
      <point x="502" y="986" type="curve"/>
      <point x="524" y="1066"/>
      <point x="659" y="1073"/>
      <point x="659" y="1176" type="curve" smooth="yes"/>
      <point x="659" y="1332"/>
      <point x="531" y="1406"/>
      <point x="390" y="1406" type="curve" smooth="yes"/>
      <point x="304" y="1406"/>
      <point x="156" y="1375"/>
      <point x="156" y="1320" type="curve" smooth="yes"/>
      <point x="156" y="1298"/>
      <point x="174" y="1275"/>
      <point x="201" y="1275" type="curve" smooth="yes"/>
      <point x="220" y="1275"/>
      <point x="306" y="1315"/>
      <point x="393" y="1315" type="curve" smooth="yes"/>
      <point x="479" y="1315"/>
      <point x="553" y="1265"/>
      <point x="553" y="1175" type="curve" smooth="yes"/>
      <point x="553" y="1074"/>
      <point x="467" y="1029"/>
      <point x="371" y="1026" type="curve" smooth="yes"/>
      <point x="333" y="1026" type="line" smooth="yes"/>
      <point x="305" y="1025"/>
      <point x="291" y="1003"/>
      <point x="291" y="981" type="curve" smooth="yes"/>
      <point x="291" y="960"/>
      <point x="305" y="938"/>
      <point x="334" y="938" type="curve" smooth="yes"/>
      <point x="379" y="938" type="line" smooth="yes"/>
      <point x="479" y="938"/>
      <point x="567" y="877"/>
      <point x="567" y="772" type="curve" smooth="yes"/>
      <point x="567" y="680"/>
      <point x="501" y="632"/>
      <point x="399" y="632" type="curve" smooth="yes"/>
      <point x="324" y="632"/>
      <point x="258" y="658"/>
      <point x="223" y="673" type="curve" smooth="yes"/>
      <point x="204" y="677"/>
      <point x="165" y="657"/>
      <point x="165" y="631" type="curve" smooth="yes"/>
      <point x="165" y="576"/>
      <point x="318" y="541"/>
    </contour>
  </outline>
</glyph>
<glyph name="acute" format="1">
  <advance width="569.0"/>
  <unicode hex="00B4"/>
  <outline>
    <contour>
      <point x="116.0" y="1040.0" type="move" name="_top"/>
    </contour>
    <contour>
      <point x="94.56" y="1202.52" type="curve" smooth="yes"/>
      <point x="108.52" y="1202.52"/>
      <point x="122.12" y="1208.64"/>
      <point x="137.12" y="1219.88" type="curve" smooth="yes"/>
      <point x="455.76" y="1467.48" type="line" smooth="yes"/>
      <point x="473.32" y="1481.04"/>
      <point x="480.64" y="1499.36"/>
      <point x="480.64" y="1517.16" type="curve" smooth="yes"/>
      <point x="480.64" y="1563.64"/>
      <point x="432.16" y="1609.08"/>
      <point x="385.0" y="1609.08" type="curve" smooth="yes"/>
      <point x="363.0" y="1609.08"/>
      <point x="344.2" y="1598.2"/>
      <point x="327.52" y="1578.08" type="curve" smooth="yes"/>
      <point x="66.92" y="1278.64" type="line" smooth="yes"/>
      <point x="56.56" y="1266.68"/>
      <point x="53.48" y="1254.2"/>
      <point x="53.48" y="1244.0" type="curve" smooth="yes"/>
      <point x="53.48" y="1220.36"/>
      <point x="70.12" y="1202.52"/>
    </contour>
  </outline>
</glyph>
<glyph name="mu" format="1">
  <advance width="1166.88"/>
  <unicode hex="00B5"/>
  <outline>
    <contour>
      <point x="237.56" y="-260.2" type="curve" smooth="yes"/>
      <point x="282.36" y="-260.2"/>
      <point x="328.68" y="-230.08"/>
      <point x="328.68" y="-171.56" type="curve" smooth="yes"/>
      <point x="328.68" y="41.8" type="line"/>
      <point x="382.08" y="3.84"/>
      <point x="447.56" y="-11.72"/>
      <point x="518.04" y="-11.72" type="curve" smooth="yes"/>
      <point x="648.6" y="-11.72"/>
      <point x="783.16" y="51.84"/>
      <point x="838.44" y="168.08" type="curve"/>
      <point x="838.44" y="82.4" type="line" smooth="yes"/>
      <point x="838.44" y="27.88"/>
      <point x="882.0" y="0.0"/>
      <point x="926.32" y="0.0" type="curve" smooth="yes"/>
      <point x="971.12" y="0.0"/>
      <point x="1016.2" y="28.64"/>
      <point x="1016.2" y="83.88" type="curve" smooth="yes"/>
      <point x="1016.2" y="909.04" type="line" smooth="yes"/>
      <point x="1016.2" y="965.8"/>
      <point x="972.64" y="992.92"/>
      <point x="928.08" y="992.92" type="curve" smooth="yes"/>
      <point x="883.52" y="992.92"/>
      <point x="838.44" y="964.28"/>
      <point x="838.44" y="909.04" type="curve" smooth="yes"/>
      <point x="838.44" y="383.76" type="line"/>
      <point x="825.92" y="194.0"/>
      <point x="700.48" y="100.6"/>
      <point x="550.0" y="100.6" type="curve" smooth="yes"/>
      <point x="434.36" y="100.6"/>
      <point x="328.68" y="178.68"/>
      <point x="328.68" y="347.4" type="curve" smooth="yes"/>
      <point x="328.68" y="908.04" type="line" smooth="yes"/>
      <point x="328.68" y="964.8"/>
      <point x="284.36" y="992.16"/>
      <point x="239.56" y="992.16" type="curve" smooth="yes"/>
      <point x="195.0" y="992.16"/>
      <point x="150.68" y="964.8"/>
      <point x="150.68" y="908.04" type="curve" smooth="yes"/>
      <point x="150.68" y="-171.56" type="line" smooth="yes"/>
      <point x="150.68" y="-232.84"/>
      <point x="193.24" y="-260.2"/>
    </contour>
  </outline>
</glyph>
<glyph name="paragraph" format="1">
  <advance width="1322"/>
  <unicode hex="00B6"/>
  <outline>
    <contour>
      <point x="601" y="-255" type="curve" smooth="yes"/>
      <point x="640" y="-255"/>
      <point x="678" y="-230"/>
      <point x="678" y="-181" type="curve" smooth="yes"/>
      <point x="678" y="1298" type="line"/>
      <point x="903" y="1298" type="line"/>
      <point x="903" y="-181" type="line" smooth="yes"/>
      <point x="903" y="-230"/>
      <point x="942" y="-255"/>
      <point x="981" y="-255" type="curve" smooth="yes"/>
      <point x="1019" y="-255"/>
      <point x="1058" y="-230"/>
      <point x="1058" y="-181" type="curve" smooth="yes"/>
      <point x="1058" y="1308" type="line" smooth="yes"/>
      <point x="1058" y="1369"/>
      <point x="1050" y="1429"/>
      <point x="942" y="1429" type="curve" smooth="yes"/>
      <point x="575" y="1429" type="line" smooth="yes"/>
      <point x="290" y="1429"/>
      <point x="124" y="1286"/>
      <point x="124" y="1050" type="curve" smooth="yes"/>
      <point x="124" y="849"/>
      <point x="302" y="680"/>
      <point x="523" y="680" type="curve"/>
      <point x="523" y="-181" type="line" smooth="yes"/>
      <point x="523" y="-230"/>
      <point x="562" y="-255"/>
    </contour>
  </outline>
</glyph>
<glyph name="periodcentered" format="1">
  <advance width="591.44"/>
  <unicode hex="00B7"/>
  <outline>
    <contour>
      <point x="295.6" y="412.6" type="curve" smooth="yes"/>
      <point x="368.2" y="412.6"/>
      <point x="411.04" y="463.96"/>
      <point x="411.04" y="519.76" type="curve" smooth="yes"/>
      <point x="411.04" y="574.08"/>
      <point x="368.2" y="625.68"/>
      <point x="295.6" y="625.68" type="curve" smooth="yes"/>
      <point x="222.24" y="625.68"/>
      <point x="179.4" y="574.08"/>
      <point x="179.4" y="519.76" type="curve" smooth="yes"/>
      <point x="179.4" y="463.96"/>
      <point x="222.24" y="412.6"/>
    </contour>
  </outline>
</glyph>
<glyph name="cedilla" format="1">
  <advance width="569"/>
  <unicode hex="00B8"/>
  <outline>
    <contour>
      <point x="281" y="0" type="move" name="_bot"/>
    </contour>
    <contour>
      <point x="296" y="-399" type="curve" smooth="yes"/>
      <point x="392" y="-399"/>
      <point x="492" y="-350"/>
      <point x="493" y="-248" type="curve" smooth="yes"/>
      <point x="493" y="-134"/>
      <point x="404" y="-104"/>
      <point x="309" y="-103" type="curve" smooth="yes"/>
      <point x="299" y="-103"/>
      <point x="289" y="-104"/>
      <point x="278" y="-104" type="curve"/>
      <point x="314" y="8" type="line"/>
      <point x="249" y="8" type="line"/>
      <point x="202" y="-124" type="line" smooth="yes"/>
      <point x="200" y="-131"/>
      <point x="198" y="-136"/>
      <point x="198" y="-142" type="curve" smooth="yes"/>
      <point x="198" y="-160"/>
      <point x="211" y="-173"/>
      <point x="236" y="-173" type="curve" smooth="yes"/>
      <point x="241" y="-173"/>
      <point x="247" y="-172"/>
      <point x="252" y="-172" type="curve" smooth="yes"/>
      <point x="305" y="-172"/>
      <point x="361" y="-192"/>
      <point x="361" y="-244" type="curve" smooth="yes"/>
      <point x="361" y="-297"/>
      <point x="338" y="-327"/>
      <point x="265" y="-327" type="curve" smooth="yes"/>
      <point x="206" y="-327"/>
      <point x="155" y="-310"/>
      <point x="105" y="-292" type="curve" smooth="yes"/>
      <point x="100" y="-290"/>
      <point x="95" y="-289"/>
      <point x="92" y="-289" type="curve" smooth="yes"/>
      <point x="75" y="-289"/>
      <point x="64" y="-306"/>
      <point x="64" y="-324" type="curve" smooth="yes"/>
      <point x="64" y="-369"/>
      <point x="185" y="-399"/>
    </contour>
  </outline>
</glyph>
<glyph name="onesuperior" format="1">
  <advance width="691"/>
  <unicode hex="00B9"/>
  <outline>
    <contour>
      <point x="426" y="573" type="curve" smooth="yes"/>
      <point x="452" y="573"/>
      <point x="479" y="591"/>
      <point x="479" y="625" type="curve" smooth="yes"/>
      <point x="479" y="1332" type="line" smooth="yes"/>
      <point x="479" y="1370"/>
      <point x="455" y="1387"/>
      <point x="430" y="1387" type="curve" smooth="yes"/>
      <point x="419" y="1387"/>
      <point x="409" y="1384"/>
      <point x="400" y="1379" type="curve" smooth="yes"/>
      <point x="199" y="1253" type="line" smooth="yes"/>
      <point x="186" y="1245"/>
      <point x="180" y="1233"/>
      <point x="180" y="1220" type="curve" smooth="yes"/>
      <point x="180" y="1199"/>
      <point x="198" y="1178"/>
      <point x="222" y="1178" type="curve" smooth="yes"/>
      <point x="230" y="1178"/>
      <point x="237" y="1180"/>
      <point x="245" y="1185" type="curve" smooth="yes"/>
      <point x="373" y="1267" type="line"/>
      <point x="373" y="625" type="line" smooth="yes"/>
      <point x="373" y="591"/>
      <point x="399" y="573"/>
    </contour>
  </outline>
</glyph>
<glyph name="ordmasculine" format="1">
  <advance width="1107.68"/>
  <unicode hex="00BA"/>
  <outline>
    <contour>
      <point x="536.92" y="815.68" type="curve" smooth="yes"/>
      <point x="364.88" y="815.68"/>
      <point x="295.04" y="975.48"/>
      <point x="295.04" y="1112.08" type="curve" smooth="yes"/>
      <point x="295.04" y="1250.16"/>
      <point x="364.88" y="1409.2"/>
      <point x="536.92" y="1409.2" type="curve" smooth="yes"/>
      <point x="709.72" y="1409.2"/>
      <point x="779.32" y="1250.16"/>
      <point x="779.32" y="1113.56" type="curve" smooth="yes"/>
      <point x="779.32" y="975.48"/>
      <point x="709.72" y="815.68"/>
    </contour>
    <contour>
      <point x="536.68" y="715.4" type="curve" smooth="yes"/>
      <point x="804.04" y="715.4"/>
      <point x="925.76" y="910.04"/>
      <point x="925.76" y="1112.56" type="curve" smooth="yes"/>
      <point x="925.76" y="1314.08"/>
      <point x="804.04" y="1510.48"/>
      <point x="536.68" y="1510.48" type="curve" smooth="yes"/>
      <point x="270.56" y="1510.48"/>
      <point x="149.6" y="1314.08"/>
      <point x="149.6" y="1112.56" type="curve" smooth="yes"/>
      <point x="149.6" y="910.04"/>
      <point x="270.56" y="715.4"/>
    </contour>
  </outline>
</glyph>
<glyph name="guillemetright" format="1">
  <advance width="1166.88"/>
  <unicode hex="00BB"/>
  <outline>
    <contour>
      <point x="289.24" y="102.76" type="curve" smooth="yes"/>
      <point x="314.4" y="102.76"/>
      <point x="342.8" y="115.96"/>
      <point x="363.72" y="153.36" type="curve"/>
      <point x="581.0" y="542.32" type="line"/>
      <point x="363.72" y="930.28" type="line"/>
      <point x="342.8" y="966.16"/>
      <point x="313.64" y="980.88"/>
      <point x="289.24" y="980.88" type="curve" smooth="yes"/>
      <point x="255.12" y="980.88"/>
      <point x="226.0" y="955.48"/>
      <point x="226.0" y="921.6" type="curve" smooth="yes"/>
      <point x="226.0" y="912.88"/>
      <point x="228.0" y="904.16"/>
      <point x="232.24" y="895.68" type="curve" smooth="yes"/>
      <point x="397.72" y="542.32" type="line"/>
      <point x="232.24" y="187.96" type="line" smooth="yes"/>
      <point x="228.0" y="178.72"/>
      <point x="226.0" y="169.24"/>
      <point x="226.0" y="161.28" type="curve" smooth="yes"/>
      <point x="226.0" y="127.4"/>
      <point x="255.12" y="102.76"/>
    </contour>
    <contour>
      <point x="689.2" y="102.76" type="curve" smooth="yes"/>
      <point x="714.36" y="102.76"/>
      <point x="742.52" y="115.96"/>
      <point x="763.44" y="153.36" type="curve"/>
      <point x="980.72" y="542.32" type="line"/>
      <point x="763.44" y="930.28" type="line"/>
      <point x="742.52" y="966.16"/>
      <point x="714.36" y="980.88"/>
      <point x="689.2" y="980.88" type="curve" smooth="yes"/>
      <point x="655.08" y="980.88"/>
      <point x="625.72" y="955.48"/>
      <point x="625.72" y="921.6" type="curve" smooth="yes"/>
      <point x="625.72" y="912.88"/>
      <point x="627.72" y="904.16"/>
      <point x="631.96" y="895.68" type="curve" smooth="yes"/>
      <point x="797.68" y="542.32" type="line"/>
      <point x="631.96" y="187.96" type="line" smooth="yes"/>
      <point x="627.72" y="178.72"/>
      <point x="625.72" y="169.24"/>
      <point x="625.72" y="161.28" type="curve" smooth="yes"/>
      <point x="625.72" y="127.4"/>
      <point x="655.08" y="102.76"/>
    </contour>
  </outline>
</glyph>
<glyph name="guillemotright" format="1">
  <advance width="1168"/>
  <unicode hex="00BB"/>
  <outline>
    <contour>
      <point x="289" y="102" type="curve" smooth="yes"/>
      <point x="316" y="102"/>
      <point x="344" y="117"/>
      <point x="366" y="156" type="curve" smooth="yes"/>
      <point x="581" y="542" type="line"/>
      <point x="366" y="927" type="line" smooth="yes"/>
      <point x="344" y="965"/>
      <point x="315" y="981"/>
      <point x="289" y="981" type="curve" smooth="yes"/>
      <point x="254" y="981"/>
      <point x="225" y="956"/>
      <point x="225" y="921" type="curve" smooth="yes"/>
      <point x="225" y="912"/>
      <point x="228" y="902"/>
      <point x="233" y="892" type="curve" smooth="yes"/>
      <point x="397" y="542" type="line"/>
      <point x="233" y="191" type="line" smooth="yes"/>
      <point x="228" y="181"/>
      <point x="225" y="170"/>
      <point x="225" y="161" type="curve" smooth="yes"/>
      <point x="225" y="126"/>
      <point x="255" y="102"/>
    </contour>
    <contour>
      <point x="690" y="102" type="curve" smooth="yes"/>
      <point x="717" y="102"/>
      <point x="744" y="117"/>
      <point x="766" y="156" type="curve" smooth="yes"/>
      <point x="982" y="542" type="line"/>
      <point x="766" y="927" type="line" smooth="yes"/>
      <point x="744" y="965"/>
      <point x="717" y="981"/>
      <point x="690" y="981" type="curve" smooth="yes"/>
      <point x="655" y="981"/>
      <point x="626" y="956"/>
      <point x="626" y="922" type="curve" smooth="yes"/>
      <point x="626" y="912"/>
      <point x="629" y="902"/>
      <point x="634" y="892" type="curve" smooth="yes"/>
      <point x="798" y="542" type="line"/>
      <point x="634" y="192" type="line" smooth="yes"/>
      <point x="629" y="181"/>
      <point x="626" y="170"/>
      <point x="626" y="161" type="curve" smooth="yes"/>
      <point x="626" y="126"/>
      <point x="655" y="102"/>
    </contour>
  </outline>
</glyph>
<glyph name="onequarter" format="1">
  <advance width="1565"/>
  <unicode hex="00BC"/>
  <outline>
    <contour>
      <point x="1302" y="1" type="curve" smooth="yes"/>
      <point x="1327" y="1"/>
      <point x="1353" y="18"/>
      <point x="1353" y="54" type="curve" smooth="yes"/>
      <point x="1353" y="188" type="line"/>
      <point x="1441" y="188" type="line" smooth="yes"/>
      <point x="1470" y="188"/>
      <point x="1483" y="207"/>
      <point x="1483" y="227" type="curve" smooth="yes"/>
      <point x="1483" y="247"/>
      <point x="1469" y="265"/>
      <point x="1441" y="265" type="curve" smooth="yes"/>
      <point x="1353" y="265" type="line"/>
      <point x="1353" y="757" type="line" smooth="yes"/>
      <point x="1353" y="813"/>
      <point x="1320" y="840"/>
      <point x="1278" y="840" type="curve" smooth="yes"/>
      <point x="1243" y="840"/>
      <point x="1211" y="825"/>
      <point x="1186" y="783" type="curve"/>
      <point x="859" y="282" type="line" smooth="yes"/>
      <point x="851" y="269"/>
      <point x="847" y="256"/>
      <point x="847" y="244" type="curve" smooth="yes"/>
      <point x="847" y="213"/>
      <point x="870" y="188"/>
      <point x="907" y="188" type="curve" smooth="yes"/>
      <point x="1250" y="188" type="line"/>
      <point x="1250" y="54" type="line" smooth="yes"/>
      <point x="1250" y="18"/>
      <point x="1276" y="1"/>
    </contour>
    <contour>
      <point x="395" y="573" type="curve" smooth="yes"/>
      <point x="422" y="573"/>
      <point x="449" y="591"/>
      <point x="449" y="625" type="curve" smooth="yes"/>
      <point x="449" y="1332" type="line" smooth="yes"/>
      <point x="449" y="1370"/>
      <point x="425" y="1387"/>
      <point x="400" y="1387" type="curve" smooth="yes"/>
      <point x="389" y="1387"/>
      <point x="379" y="1384"/>
      <point x="369" y="1379" type="curve" smooth="yes"/>
      <point x="169" y="1253" type="line" smooth="yes"/>
      <point x="156" y="1245"/>
      <point x="150" y="1233"/>
      <point x="150" y="1220" type="curve" smooth="yes"/>
      <point x="150" y="1199"/>
      <point x="167" y="1178"/>
      <point x="192" y="1178" type="curve" smooth="yes"/>
      <point x="199" y="1178"/>
      <point x="207" y="1180"/>
      <point x="214" y="1185" type="curve" smooth="yes"/>
      <point x="343" y="1267" type="line"/>
      <point x="343" y="625" type="line" smooth="yes"/>
      <point x="343" y="591"/>
      <point x="369" y="573"/>
    </contour>
    <contour>
      <point x="520" y="-85" type="curve" smooth="yes"/>
      <point x="544" y="-85"/>
      <point x="567" y="-72"/>
      <point x="577" y="-42" type="curve" smooth="yes"/>
      <point x="1052" y="1357" type="line"/>
      <point x="1055" y="1365"/>
      <point x="1056" y="1373"/>
      <point x="1056" y="1380" type="curve" smooth="yes"/>
      <point x="1056" y="1416"/>
      <point x="1026" y="1437"/>
      <point x="995" y="1437" type="curve" smooth="yes"/>
      <point x="970" y="1437"/>
      <point x="946" y="1424"/>
      <point x="936" y="1394" type="curve" smooth="yes"/>
      <point x="463" y="-5" type="line"/>
      <point x="460" y="-13"/>
      <point x="459" y="-21"/>
      <point x="459" y="-28" type="curve" smooth="yes"/>
      <point x="459" y="-63"/>
      <point x="489" y="-85"/>
    </contour>
    <contour>
      <point x="945" y="265" type="line"/>
      <point x="1250" y="739" type="line"/>
      <point x="1250" y="265" type="line"/>
    </contour>
  </outline>
</glyph>
<glyph name="onehalf" format="1">
  <advance width="1583"/>
  <unicode hex="00BD"/>
  <outline>
    <contour>
      <point x="991" y="0" type="curve" smooth="yes"/>
      <point x="1424" y="0" type="line" smooth="yes"/>
      <point x="1454" y="0"/>
      <point x="1469" y="22"/>
      <point x="1469" y="45" type="curve" smooth="yes"/>
      <point x="1469" y="68"/>
      <point x="1453" y="91"/>
      <point x="1424" y="91" type="curve" smooth="yes"/>
      <point x="1051" y="91" type="line"/>
      <point x="1204" y="224"/>
      <point x="1461" y="453"/>
      <point x="1461" y="635" type="curve" smooth="yes"/>
      <point x="1461" y="768"/>
      <point x="1343" y="837"/>
      <point x="1206" y="837" type="curve" smooth="yes"/>
      <point x="1110" y="837"/>
      <point x="963" y="780"/>
      <point x="963" y="725" type="curve" smooth="yes"/>
      <point x="963" y="704"/>
      <point x="980" y="686"/>
      <point x="1005" y="686" type="curve" smooth="yes"/>
      <point x="1016" y="686"/>
      <point x="1026" y="689"/>
      <point x="1037" y="696" type="curve" smooth="yes"/>
      <point x="1077" y="718"/>
      <point x="1137" y="744"/>
      <point x="1197" y="744" type="curve" smooth="yes"/>
      <point x="1271" y="744"/>
      <point x="1344" y="703"/>
      <point x="1344" y="625" type="curve" smooth="yes"/>
      <point x="1344" y="498"/>
      <point x="1113" y="280"/>
      <point x="998" y="169" type="curve"/>
      <point x="952" y="123"/>
      <point x="917" y="91"/>
      <point x="917" y="55" type="curve" smooth="yes"/>
      <point x="917" y="24"/>
      <point x="939" y="0"/>
    </contour>
    <contour>
      <point x="395" y="573" type="curve" smooth="yes"/>
      <point x="422" y="573"/>
      <point x="449" y="591"/>
      <point x="449" y="625" type="curve" smooth="yes"/>
      <point x="449" y="1332" type="line" smooth="yes"/>
      <point x="449" y="1370"/>
      <point x="425" y="1387"/>
      <point x="400" y="1387" type="curve" smooth="yes"/>
      <point x="389" y="1387"/>
      <point x="379" y="1384"/>
      <point x="369" y="1379" type="curve" smooth="yes"/>
      <point x="169" y="1253" type="line" smooth="yes"/>
      <point x="156" y="1245"/>
      <point x="150" y="1233"/>
      <point x="150" y="1220" type="curve" smooth="yes"/>
      <point x="150" y="1199"/>
      <point x="167" y="1178"/>
      <point x="192" y="1178" type="curve" smooth="yes"/>
      <point x="199" y="1178"/>
      <point x="207" y="1180"/>
      <point x="214" y="1185" type="curve" smooth="yes"/>
      <point x="343" y="1267" type="line"/>
      <point x="343" y="625" type="line" smooth="yes"/>
      <point x="343" y="591"/>
      <point x="369" y="573"/>
    </contour>
    <contour>
      <point x="517" y="-85" type="curve" smooth="yes"/>
      <point x="541" y="-85"/>
      <point x="564" y="-72"/>
      <point x="573" y="-42" type="curve" smooth="yes"/>
      <point x="1049" y="1357" type="line"/>
      <point x="1052" y="1365"/>
      <point x="1054" y="1373"/>
      <point x="1054" y="1380" type="curve" smooth="yes"/>
      <point x="1054" y="1416"/>
      <point x="1023" y="1437"/>
      <point x="992" y="1437" type="curve" smooth="yes"/>
      <point x="968" y="1437"/>
      <point x="943" y="1424"/>
      <point x="933" y="1394" type="curve" smooth="yes"/>
      <point x="460" y="-5" type="line"/>
      <point x="457" y="-13"/>
      <point x="456" y="-21"/>
      <point x="456" y="-28" type="curve" smooth="yes"/>
      <point x="456" y="-63"/>
      <point x="486" y="-85"/>
    </contour>
  </outline>
</glyph>
<glyph name="threequarters" format="1">
  <advance width="1632"/>
  <unicode hex="00BE"/>
  <outline>
    <contour>
      <point x="301" y="548" type="curve" smooth="yes"/>
      <point x="449" y="548"/>
      <point x="579" y="622"/>
      <point x="579" y="777" type="curve" smooth="yes"/>
      <point x="579" y="889"/>
      <point x="507" y="969"/>
      <point x="403" y="993" type="curve"/>
      <point x="472" y="1033"/>
      <point x="563" y="1082"/>
      <point x="563" y="1184" type="curve" smooth="yes"/>
      <point x="563" y="1339"/>
      <point x="433" y="1412"/>
      <point x="291" y="1412" type="curve" smooth="yes"/>
      <point x="205" y="1412"/>
      <point x="61" y="1382"/>
      <point x="61" y="1327" type="curve" smooth="yes"/>
      <point x="61" y="1303"/>
      <point x="77" y="1281"/>
      <point x="105" y="1281" type="curve" smooth="yes"/>
      <point x="124" y="1281"/>
      <point x="213" y="1320"/>
      <point x="296" y="1320" type="curve" smooth="yes"/>
      <point x="382" y="1320"/>
      <point x="457" y="1271"/>
      <point x="457" y="1183" type="curve" smooth="yes"/>
      <point x="457" y="1081"/>
      <point x="371" y="1036"/>
      <point x="275" y="1033" type="curve" smooth="yes"/>
      <point x="238" y="1032" type="line" smooth="yes"/>
      <point x="209" y="1031"/>
      <point x="196" y="1011"/>
      <point x="196" y="989" type="curve" smooth="yes"/>
      <point x="196" y="967"/>
      <point x="209" y="946"/>
      <point x="238" y="946" type="curve" smooth="yes"/>
      <point x="283" y="946" type="line" smooth="yes"/>
      <point x="384" y="946"/>
      <point x="471" y="883"/>
      <point x="471" y="778" type="curve" smooth="yes"/>
      <point x="471" y="688"/>
      <point x="406" y="640"/>
      <point x="303" y="640" type="curve" smooth="yes"/>
      <point x="231" y="640"/>
      <point x="162" y="664"/>
      <point x="127" y="679" type="curve" smooth="yes"/>
      <point x="91" y="688"/>
      <point x="70" y="663"/>
      <point x="70" y="637" type="curve" smooth="yes"/>
      <point x="70" y="583"/>
      <point x="222" y="548"/>
    </contour>
    <contour>
      <point x="1325" y="1" type="curve" smooth="yes"/>
      <point x="1351" y="1"/>
      <point x="1377" y="18"/>
      <point x="1377" y="54" type="curve" smooth="yes"/>
      <point x="1377" y="188" type="line"/>
      <point x="1465" y="188" type="line" smooth="yes"/>
      <point x="1494" y="188"/>
      <point x="1507" y="207"/>
      <point x="1507" y="227" type="curve" smooth="yes"/>
      <point x="1507" y="247"/>
      <point x="1492" y="265"/>
      <point x="1465" y="265" type="curve" smooth="yes"/>
      <point x="1377" y="265" type="line"/>
      <point x="1377" y="757" type="line" smooth="yes"/>
      <point x="1377" y="813"/>
      <point x="1344" y="840"/>
      <point x="1302" y="840" type="curve" smooth="yes"/>
      <point x="1265" y="840"/>
      <point x="1234" y="825"/>
      <point x="1210" y="783" type="curve"/>
      <point x="882" y="282" type="line" smooth="yes"/>
      <point x="874" y="269"/>
      <point x="870" y="257"/>
      <point x="870" y="244" type="curve" smooth="yes"/>
      <point x="870" y="213"/>
      <point x="893" y="188"/>
      <point x="931" y="188" type="curve" smooth="yes"/>
      <point x="1272" y="188" type="line"/>
      <point x="1272" y="54" type="line" smooth="yes"/>
      <point x="1272" y="18"/>
      <point x="1298" y="1"/>
    </contour>
    <contour>
      <point x="558" y="-85" type="curve" smooth="yes"/>
      <point x="582" y="-85"/>
      <point x="605" y="-72"/>
      <point x="614" y="-42" type="curve" smooth="yes"/>
      <point x="1089" y="1357" type="line"/>
      <point x="1092" y="1365"/>
      <point x="1094" y="1373"/>
      <point x="1094" y="1380" type="curve" smooth="yes"/>
      <point x="1094" y="1416"/>
      <point x="1064" y="1437"/>
      <point x="1033" y="1437" type="curve" smooth="yes"/>
      <point x="1008" y="1437"/>
      <point x="983" y="1424"/>
      <point x="973" y="1394" type="curve" smooth="yes"/>
      <point x="501" y="-5" type="line"/>
      <point x="498" y="-13"/>
      <point x="497" y="-21"/>
      <point x="497" y="-28" type="curve" smooth="yes"/>
      <point x="497" y="-63"/>
      <point x="527" y="-85"/>
    </contour>
    <contour>
      <point x="968" y="265" type="line"/>
      <point x="1272" y="739" type="line"/>
      <point x="1272" y="265" type="line"/>
    </contour>
  </outline>
</glyph>
